<svg width="1890" height="439" viewBox="0 0 1890 439" fill="none" xmlns="http://www.w3.org/2000/svg">
<path opacity="0.73" d="M502.474 406.751C501.706 407.241 500.915 407.748 500.131 408.252C499.298 408.839 498.488 409.395 497.659 409.989C499.26 408.916 500.853 407.852 502.474 406.758M511.586 400.647C510.124 401.541 508.661 402.431 507.197 403.315C505.546 404.493 503.964 405.563 502.32 406.727C503.791 405.785 505.262 404.847 506.736 403.899C508.376 402.784 509.95 401.755 511.586 400.64V400.647ZM516.194 397.868L513.728 399.365C512.849 399.966 512.004 400.515 511.125 401.102C512.788 400.022 514.466 398.955 516.174 397.851L516.194 397.868ZM518.962 395.697L513.778 398.677C512.039 399.928 510.323 401.109 508.61 402.353C510.284 401.335 511.958 400.321 513.644 399.289C515.414 398.052 517.138 396.923 518.943 395.679L518.962 395.697ZM524.822 392.33C523.209 393.261 521.612 394.175 520.011 395.109C518.586 396.096 517.184 397.044 515.787 398.014C517.25 397.128 518.709 396.245 520.176 395.342C521.712 394.283 523.217 393.355 524.803 392.313L524.822 392.33ZM529.507 389.638C528.385 390.287 527.283 390.916 526.177 391.552C525.525 391.979 524.856 392.434 524.208 392.862C525.943 391.788 527.687 390.742 529.495 389.62L529.507 389.638ZM524.899 391.524C523.198 392.441 521.481 393.372 519.784 394.283C518.056 395.537 516.282 396.857 514.566 398.104C516.358 397.083 518.149 396.054 519.941 395.019C521.554 393.862 523.244 392.653 524.887 391.507L524.899 391.524ZM530.551 388.481C528.933 389.356 527.322 390.225 525.717 391.086C524.15 392.177 522.541 393.327 520.982 394.408C522.691 393.428 524.388 392.459 526.108 391.462C527.575 390.478 529.069 389.443 530.539 388.463L530.551 388.481ZM535.839 385.632C534.391 386.421 532.97 387.182 531.538 387.949C530.186 388.846 528.804 389.797 527.464 390.683C529 389.797 530.536 388.929 532.106 388.015C533.335 387.234 534.591 386.393 535.827 385.615L535.839 385.632ZM540.132 383.318C539.114 383.878 538.123 384.406 537.125 384.941C536.13 385.566 535.109 386.233 534.122 386.858C536.104 385.686 538.103 384.501 540.12 383.301L540.132 383.318ZM-6.93705 257.28C-6.93705 257.367 -6.81418 259.389 -6.42635 262.981C-6.91785 256.238 -7.02153 251.781 -7.04457 250.322C-7.04457 252.326 -7.02153 254.612 -6.95625 257.27L-6.93705 257.28ZM531.204 387.077C529.522 387.918 527.817 388.783 526.139 389.613C524.219 391.003 522.299 392.424 520.406 393.803C522.142 392.872 523.893 391.924 525.636 390.986C527.479 389.7 529.349 388.38 531.204 387.077ZM536.729 384.298L531.868 386.73C530.063 387.994 528.247 389.276 526.454 390.527C528.12 389.631 529.783 388.738 531.446 387.828C533.204 386.685 534.975 385.497 536.729 384.312V384.298ZM542.017 381.651C540.5 382.418 539.003 383.162 537.497 383.916C535.812 385.041 534.118 386.188 532.444 387.3C533.98 386.476 535.516 385.667 537.052 384.823C538.711 383.794 540.366 382.717 542.017 381.675V381.651ZM546.805 379.253C545.504 379.921 544.233 380.542 542.965 381.185C541.429 382.161 539.893 383.158 538.357 384.128C539.571 383.475 540.777 382.839 542.021 382.154C543.587 381.22 545.208 380.226 546.805 379.267V379.253ZM550.261 377.516C549.493 377.906 548.771 378.27 548.038 378.635C546.752 379.41 545.45 380.202 544.167 380.97C546.168 379.865 548.226 378.673 550.23 377.541L550.261 377.516ZM-5.27822 274.248C-5.01327 275.568 -4.70992 276.992 -4.36049 278.549C-4.96719 274.97 -5.43182 271.809 -5.80429 269.04C-5.65069 270.683 -5.4779 272.424 -5.27822 274.248ZM-6.59914 267.046C-6.38027 268.436 -6.0462 270.405 -5.5355 272.99C-5.78893 270.558 -5.9886 268.349 -6.1614 266.264C-6.54538 263.138 -6.7681 260.81 -6.89865 259.285C-6.82954 261.678 -6.73738 264.249 -6.59914 267.046ZM537.739 382.495C536.077 383.252 534.391 384.044 532.747 384.798C530.708 386.299 528.7 387.755 526.673 389.235C528.378 388.39 530.102 387.498 531.814 386.66C533.78 385.271 535.746 383.902 537.739 382.495ZM543.154 380.004L538.292 382.241C536.334 383.631 534.406 384.965 532.459 386.33L537.451 383.843C539.337 382.564 541.234 381.3 543.154 380.004ZM548.41 377.572C546.874 378.291 545.338 378.993 543.772 379.705C541.902 380.966 540.055 382.196 538.196 383.443C539.759 382.662 541.31 381.894 542.885 381.098C544.728 379.938 546.56 378.774 548.41 377.586V377.572ZM553.402 375.283C551.97 375.957 550.568 376.589 549.151 377.238C547.37 378.385 545.607 379.5 543.837 380.629C545.216 379.934 546.583 379.274 547.984 378.545L553.402 375.283ZM558.164 373.049C556.863 373.667 555.568 374.277 554.278 374.88C552.581 375.922 550.895 376.926 549.201 377.944C550.568 377.249 551.958 376.502 553.329 375.79C554.927 374.893 556.532 373.984 558.144 373.063L558.164 373.049ZM562.691 370.853C561.693 371.329 560.686 371.822 559.68 372.312C558.605 372.927 557.534 373.528 556.463 374.136L562.691 370.853ZM-2.59798 287.415C-2.19351 288.624 -1.75705 289.89 -1.28858 291.212C-2.13336 288.172 -2.87061 285.341 -3.50035 282.739C-3.22388 284.236 -2.92053 285.81 -2.59798 287.415ZM-4.36817 281.877C-3.9381 283.305 -3.43892 284.879 -2.87829 286.574C-3.26228 284.569 -3.62707 282.669 -3.9573 280.821C-4.40657 278.903 -4.79824 277.131 -5.13615 275.519C-4.90831 277.548 -4.65232 279.668 -4.36817 281.877ZM-6.06924 275.86C-5.68525 277.27 -5.21294 279.042 -4.57168 281.186C-4.88271 278.754 -5.15151 276.461 -5.39342 274.258C-5.90796 271.729 -6.28427 269.648 -6.54539 268.085C-6.41867 270.534 -6.25739 273.143 -6.06924 275.86ZM544.409 377.815C542.77 378.493 541.107 379.205 539.475 379.872C537.34 381.456 535.286 382.919 533.162 384.482C534.84 383.721 536.537 382.926 538.219 382.154C540.3 380.688 542.316 379.306 544.409 377.815ZM549.708 375.609L544.878 377.621C542.812 379.094 540.823 380.452 538.772 381.901C540.416 381.15 542.06 380.394 543.706 379.632C545.719 378.27 547.681 376.988 549.708 375.609ZM554.9 373.441C553.337 374.101 551.782 374.744 550.219 375.394C548.23 376.752 546.302 378.01 544.325 379.347C545.907 378.621 547.477 377.906 549.067 377.166C551.021 375.908 552.918 374.727 554.9 373.441ZM559.922 371.357C558.429 371.993 556.962 372.59 555.48 373.208C553.56 374.456 551.697 375.613 549.785 376.842C551.256 376.148 552.707 375.512 554.197 374.814C556.113 373.643 557.995 372.531 559.922 371.35V371.357ZM564.968 369.203C563.504 369.835 562.047 370.459 560.598 371.075C558.736 372.218 556.923 373.285 555.073 374.411C556.574 373.716 558.091 372.965 559.596 372.25C561.393 371.218 563.159 370.235 564.968 369.196V369.203ZM570.236 366.882C568.815 367.501 567.372 368.147 565.943 368.772C564.315 369.71 562.729 370.589 561.113 371.513C562.568 370.818 564.031 370.089 565.482 369.39C567.072 368.539 568.639 367.726 570.236 366.875V366.882ZM574.679 364.923L571.63 366.267C570.528 366.854 569.457 367.407 568.362 368.004C570.463 366.965 572.559 365.954 574.679 364.916V364.923ZM0.915514 298.369C1.43006 299.411 1.99068 300.512 2.56283 301.624C1.50302 299.032 0.544325 296.574 -0.31325 294.248C0.0758591 295.587 0.485447 296.961 0.915514 298.369ZM-1.25786 293.779C-0.681879 295.027 -0.0674973 296.326 0.604483 297.705C0.0860977 295.996 -0.409246 294.332 -0.862353 292.734C-1.4345 291.163 -1.94904 289.683 -2.42903 288.262C-2.07192 290.055 -1.67641 291.9 -1.25786 293.779ZM-3.36596 289.055C-2.80918 290.357 -2.1756 291.785 -1.48058 293.31C-1.92344 291.284 -2.33431 289.326 -2.71318 287.436C-3.29684 285.699 -3.82675 284.041 -4.27985 282.572C-4.00338 284.654 -3.69875 286.815 -3.36596 289.055ZM-5.4011 284.024C-4.90575 285.31 -4.29137 286.852 -3.52724 288.652C-3.87794 286.317 -4.19281 284.065 -4.47185 281.894C-5.12079 279.747 -5.62381 277.951 -6.0078 276.482C-5.84141 278.9 -5.63917 281.414 -5.4011 284.024ZM550.998 373.132C549.378 373.723 547.731 374.355 546.114 374.939C543.998 376.526 541.925 378.045 539.824 379.604C541.468 378.93 543.142 378.215 544.793 377.52C546.886 376.054 548.921 374.636 550.998 373.132ZM556.19 371.207C554.585 371.801 552.972 372.406 551.371 372.993C549.313 374.473 547.305 375.884 545.262 377.339L550.142 375.307C552.185 373.924 554.163 372.614 556.205 371.207H556.19ZM561.32 369.307C559.738 369.898 558.168 370.478 556.589 371.044C554.589 372.434 552.642 373.719 550.657 375.074C552.239 374.414 553.813 373.764 555.403 373.097C557.403 371.826 559.335 370.617 561.335 369.307H561.32ZM566.358 367.431C564.822 368.015 563.286 368.564 561.75 369.133C559.799 370.412 557.91 371.607 555.99 372.861C557.503 372.229 558.997 371.624 560.529 370.971C562.518 369.776 564.4 368.664 566.358 367.431ZM571.477 365.486L566.846 367.25C564.926 368.432 563.09 369.526 561.193 370.69C562.729 370.026 564.307 369.342 565.866 368.668C567.771 367.594 569.591 366.601 571.492 365.496L571.477 365.486ZM576.799 363.401C575.236 364.009 573.654 364.641 572.091 365.249C570.321 366.291 568.604 367.23 566.842 368.244C568.409 367.549 569.987 366.854 571.553 366.159C573.331 365.225 575.036 364.367 576.814 363.405L576.799 363.401ZM581.906 361.396L577.559 363.102C576 363.946 574.487 364.725 572.951 365.555C574.38 364.927 575.811 364.296 577.244 363.662C578.822 362.89 580.343 362.185 581.921 361.4L581.906 361.396ZM586.252 359.687C585.162 360.121 584.083 360.538 583.004 360.962C581.952 361.49 580.923 361.98 579.87 362.501C582.005 361.577 584.117 360.663 586.268 359.691L586.252 359.687ZM5.16243 307.488C5.80369 308.416 6.45647 309.347 7.15533 310.316C5.87665 308.086 4.717 305.953 3.63031 303.903C4.1295 305.084 4.62484 306.265 5.16243 307.488ZM2.66266 303.792C3.35768 304.834 4.08726 305.921 4.86676 307.047C4.22934 305.584 3.60728 304.139 3.03129 302.746C2.35547 301.454 1.72573 300.21 1.11135 299.005C1.59517 300.561 2.10972 302.162 2.66266 303.792ZM0.185935 299.97C0.884794 301.082 1.62589 302.242 2.43611 303.469C1.87165 301.732 1.32638 300.054 0.823357 298.414C0.112978 296.972 -0.528284 295.635 -1.13115 294.321C-0.739478 296.138 -0.294051 298.028 0.170575 299.956L0.185935 299.97ZM-2.24855 295.958C-1.57657 297.104 -0.835475 298.331 -0.00605965 299.661C-0.484765 297.667 -0.934031 295.725 -1.35386 293.835C-2.07192 292.275 -2.71318 290.83 -3.2738 289.496C-2.97429 291.583 -2.63766 293.732 -2.26391 295.944L-2.24855 295.958ZM-4.63312 291.747C-4.01874 292.873 -3.28916 294.179 -2.41367 295.673C-2.7951 293.41 -3.14453 291.21 -3.46196 289.072C-4.22993 287.272 -4.852 285.726 -5.3819 284.417C-5.15919 286.793 -4.92111 289.232 -4.63312 291.747ZM557.365 368.473C555.791 368.974 554.189 369.516 552.623 369.991C550.572 371.541 548.456 373.181 546.417 374.709C548.042 374.119 549.697 373.486 551.325 372.889C553.302 371.475 555.368 369.936 557.365 368.473ZM562.399 366.858C560.832 367.362 559.258 367.872 557.691 368.369C555.71 369.807 553.667 371.336 551.697 372.753L556.543 370.957C558.467 369.647 560.464 368.216 562.399 366.872V366.858ZM567.391 365.26C565.855 365.76 564.309 366.256 562.752 366.747C560.832 368.081 558.855 369.495 556.95 370.808L561.719 369.043C563.578 367.834 565.513 366.51 567.387 365.274L567.391 365.26ZM572.314 363.679C570.778 364.179 569.284 364.652 567.767 365.138C565.909 366.365 564 367.671 562.153 368.88C563.689 368.303 565.225 367.751 566.807 367.143C568.612 366.041 570.49 364.829 572.31 363.693L572.314 363.679ZM577.252 362.06C575.735 362.567 574.23 363.057 572.721 363.547C570.927 364.669 569.08 365.871 567.295 366.976C568.873 366.375 570.467 365.76 572.056 365.148C573.761 364.169 575.531 363.081 577.248 362.074L577.252 362.06ZM582.37 360.323C580.834 360.841 579.298 361.386 577.762 361.9C576.084 362.883 574.36 363.94 572.69 364.912C574.303 364.287 575.931 363.637 577.54 363.008C579.11 362.15 580.765 361.205 582.366 360.33L582.37 360.323ZM587.389 358.61C585.907 359.117 584.421 359.628 582.942 360.128C581.406 360.973 579.813 361.865 578.277 362.71C579.839 362.103 581.404 361.489 582.973 360.868C584.405 360.135 585.941 359.354 587.385 358.617L587.389 358.61ZM592.177 356.977C590.81 357.45 589.451 357.908 588.092 358.367C586.732 359.062 585.335 359.791 583.979 360.452C585.442 359.878 586.898 359.312 588.372 358.714C589.62 358.186 590.933 357.561 592.174 356.984L592.177 356.977ZM596.24 355.588C595.192 355.956 594.159 356.283 593.122 356.651C592.089 357.127 591.025 357.634 589.996 358.106C592.067 357.287 594.147 356.45 596.236 355.598L596.24 355.588ZM10.112 315.128C10.8608 315.899 11.6019 316.67 12.416 317.47C10.9415 315.587 9.57062 313.773 8.28042 312.015C8.86792 313.043 9.47078 314.072 10.112 315.128ZM7.27053 312.144C8.0769 313.005 8.91016 313.881 9.78949 314.794C9.04071 313.554 8.30729 312.324 7.61996 311.129C6.85198 310.059 6.10704 309.024 5.39282 308.002C5.988 309.357 6.61775 310.74 7.27053 312.144ZM4.45205 309.066C5.2661 309.971 6.12496 310.912 7.02861 311.887C6.34895 310.41 5.68081 308.951 5.05875 307.53C4.24854 306.37 3.49208 305.251 2.75482 304.171C3.30008 305.769 3.86839 307.412 4.45205 309.066ZM1.67197 305.897C2.47451 306.832 3.34232 307.822 4.26005 308.85C3.66103 307.148 3.08121 305.466 2.54362 303.83C1.72573 302.6 0.957752 301.398 0.239694 300.297C0.69664 302.117 1.17663 304 1.67197 305.901V305.897ZM-1.07355 302.597C-0.305569 303.566 0.550725 304.584 1.50686 305.706C0.996152 303.761 0.512325 301.85 0.0630589 299.988C-0.785556 298.64 -1.52665 297.406 -2.21399 296.246C-1.86328 298.307 -1.48313 300.425 -1.07355 302.6V302.597ZM-3.78067 299.161C-3.06261 300.109 -2.20247 301.204 -1.22714 302.409C-1.63673 300.218 -2.02072 298.072 -2.37911 295.972C-3.2546 294.481 -3.9957 293.171 -4.61776 292.035C-4.37201 294.356 -4.09298 296.732 -3.78067 299.164V299.161ZM-6.44171 295.516C-5.96172 296.211 -5.12847 297.399 -3.9189 298.991C-4.22609 296.531 -4.50769 294.128 -4.76368 291.782C-6.03852 289.437 -6.74122 287.96 -6.95625 287.502C-6.8129 290.1 -6.64138 292.772 -6.44171 295.516ZM563.87 363.752C562.334 364.155 560.798 364.575 559.262 364.968C557.127 366.59 554.973 368.24 552.853 369.832C554.427 369.338 556.044 368.789 557.626 368.3C559.696 366.795 561.792 365.253 563.87 363.735V363.752ZM568.75 362.446C567.214 362.852 565.678 363.272 564.142 363.672C562.077 365.183 559.991 366.719 557.941 368.188C559.511 367.688 561.097 367.174 562.668 366.67C564.695 365.277 566.742 363.839 568.75 362.428V362.446ZM573.604 361.146L569.057 362.362C567.053 363.752 565.029 365.194 563.036 366.576C564.593 366.078 566.149 365.579 567.706 365.079C569.656 363.773 571.638 362.435 573.604 361.129V361.146ZM578.404 359.861C576.902 360.271 575.42 360.66 573.926 361.059C571.98 362.355 570.014 363.679 568.082 364.957C569.618 364.464 571.123 363.992 572.663 363.488C574.564 362.282 576.495 361.049 578.404 359.844V359.861ZM583.207 358.555C581.714 358.971 580.235 359.364 578.753 359.767C576.864 360.959 574.952 362.182 573.074 363.356C574.61 362.852 576.146 362.348 577.682 361.834C579.513 360.743 581.368 359.625 583.207 358.537V358.555ZM588.153 357.144C586.644 357.568 585.112 358.02 583.607 358.44C581.802 359.51 579.974 360.611 578.177 361.667C579.74 361.139 581.322 360.587 582.885 360.059C584.628 359.093 586.402 358.093 588.153 357.127V357.144ZM593.03 355.754C591.555 356.178 590.08 356.6 588.602 357.019C586.894 357.964 585.147 358.937 583.457 359.868L588.038 358.308C589.689 357.453 591.371 356.578 593.03 355.734V355.754ZM597.787 354.4L593.564 355.605C591.958 356.421 590.338 357.262 588.741 358.068C590.185 357.575 591.624 357.092 593.076 356.588C594.631 355.855 596.221 355.101 597.787 354.379V354.4ZM602.257 353.124C600.971 353.5 599.707 353.851 598.417 354.212C596.946 354.907 595.46 355.602 593.997 356.269C595.238 355.845 596.467 355.438 597.722 354.997C599.231 354.368 600.756 353.722 602.257 353.104V353.124ZM606.162 351.978L603.136 352.874C601.904 353.382 600.664 353.917 599.435 354.406C601.685 353.594 603.931 352.756 606.162 351.957V351.978ZM15.7183 321.402C16.5477 322.007 17.3848 322.615 18.2603 323.24C16.6014 321.695 15.0322 320.19 13.5526 318.724C14.2361 319.606 14.9503 320.502 15.7183 321.402ZM12.5657 319.057C13.4796 319.752 14.4012 320.447 15.3765 321.142C14.5356 320.099 13.6985 319.085 12.9075 318.084C12.0243 317.205 11.1834 316.347 10.3616 315.507C11.0451 316.677 11.7978 317.869 12.5465 319.057H12.5657ZM9.44006 316.66C10.3616 317.379 11.3178 318.112 12.32 318.873C11.552 317.629 10.784 316.393 10.0352 315.187C9.12135 314.249 8.25738 313.339 7.42796 312.449C8.0385 313.829 8.72968 315.239 9.42086 316.66H9.44006ZM6.34127 314.193C7.26029 314.937 8.22666 315.706 9.24039 316.5C8.53385 315.048 7.83883 313.606 7.18605 312.196C6.26447 311.207 5.39026 310.253 4.56341 309.333C5.10867 310.924 5.70385 312.54 6.32207 314.193H6.34127ZM3.26937 311.657C4.17174 312.418 5.14323 313.217 6.17232 314.054C5.54642 312.383 4.94356 310.733 4.37525 309.118C3.44216 308.075 2.56667 307.082 1.75645 306.137C2.20955 307.943 2.72026 309.788 3.24632 311.657H3.26937ZM0.220494 309.034C1.10367 309.809 2.06748 310.643 3.11193 311.525C2.58202 309.635 2.06748 307.773 1.57597 305.946C0.619842 304.827 -0.232612 303.799 -1.02363 302.819C-0.644759 304.857 -0.237732 306.929 0.197455 309.034H0.220494ZM-2.8207 306.286C-1.98744 307.061 -1.03515 307.926 0.0553789 308.892C-0.382368 306.766 -0.795795 304.681 -1.1849 302.638C-2.15639 301.44 -3.02805 300.335 -3.75379 299.387C-3.46452 301.649 -3.15349 303.949 -2.8207 306.286ZM-5.78509 303.427C-5.12079 304.091 -4.19153 305.004 -2.93589 306.179C-3.2738 303.809 -3.58611 301.483 -3.87282 299.199C-5.06319 297.636 -5.89645 296.461 -6.40715 295.725C-6.24844 298.243 -6.04108 300.81 -5.78509 303.427ZM570.513 358.892C569.023 359.201 567.525 359.517 566.047 359.812C563.847 361.497 561.681 363.13 559.5 364.791C561.036 364.395 562.572 363.967 564.108 363.564C566.231 362.008 568.347 360.483 570.494 358.892H570.513ZM575.244 357.898C573.758 358.207 572.256 358.53 570.77 358.839C568.635 360.41 566.546 361.938 564.411 363.488C565.947 363.081 567.483 362.661 569.019 362.251C571.073 360.802 573.135 359.368 575.224 357.898H575.244ZM579.955 356.908L575.512 357.842C573.439 359.305 571.388 360.729 569.326 362.171L573.892 360.948C575.892 359.604 577.901 358.27 579.936 356.908H579.955ZM584.632 355.921C583.161 356.237 581.702 356.54 580.239 356.849C578.219 358.204 576.223 359.527 574.214 360.861C575.72 360.458 577.209 360.069 578.722 359.656C580.673 358.416 582.635 357.182 584.613 355.921H584.632ZM589.301 354.928C587.838 355.247 586.391 355.549 584.935 355.859C582.969 357.109 581.023 358.332 579.072 359.562C580.569 359.152 582.067 358.749 583.576 358.329C585.461 357.2 587.366 356.074 589.282 354.924L589.301 354.928ZM594.082 353.854C592.607 354.181 591.114 354.528 589.639 354.851C587.742 355.987 585.865 357.099 583.979 358.214C585.515 357.787 587.051 357.332 588.587 356.904C590.407 355.895 592.232 354.878 594.063 353.854H594.082ZM598.824 352.788C597.369 353.114 595.906 353.448 594.454 353.771C592.638 354.782 590.833 355.775 589.029 356.772C590.526 356.352 592.031 355.918 593.533 355.49L598.824 352.788ZM603.494 351.745C602.073 352.072 600.656 352.385 599.239 352.704C597.507 353.594 595.783 354.469 594.063 355.348C595.51 354.938 596.954 354.528 598.413 354.108C600.082 353.32 601.769 352.529 603.474 351.735L603.494 351.745ZM608.036 350.727C606.673 351.04 605.348 351.332 603.981 351.638C602.338 352.407 600.698 353.167 599.062 353.92C600.414 353.538 601.75 353.166 603.113 352.767C604.736 352.086 606.371 351.402 608.017 350.717L608.036 350.727ZM612.536 349.685L608.635 350.602L603.989 352.492C605.337 352.093 606.708 351.669 608.051 351.269C609.536 350.744 611.025 350.209 612.517 349.664L612.536 349.685ZM616.66 348.671C615.597 348.921 614.522 349.181 613.458 349.438L609.971 350.696L616.66 348.671ZM21.8621 326.408C22.7453 326.853 23.6668 327.305 24.5923 327.76C22.7952 326.551 21.0672 325.366 19.4276 324.213C20.2225 324.935 21.048 325.672 21.8621 326.408ZM18.4062 324.671C19.4161 325.193 20.4221 325.714 21.4781 326.249C20.5604 325.422 19.658 324.605 18.7902 323.817C17.7957 323.122 16.8702 322.427 15.9256 321.732C16.755 322.684 17.5845 323.657 18.4254 324.658L18.4062 324.671ZM14.9925 322.886C16.0139 323.428 17.0584 323.977 18.1528 324.543C17.2773 323.501 16.421 322.49 15.5992 321.486C14.5855 320.749 13.6255 320.03 12.6848 319.325C13.4451 320.482 14.2207 321.67 15.0117 322.872L14.9925 322.886ZM11.5981 321.062C12.6195 321.618 13.6793 322.191 14.789 322.778C13.9801 321.548 13.1967 320.335 12.439 319.137C11.4176 318.369 10.4461 317.622 9.50534 316.889C10.1914 318.254 10.8954 319.64 11.6173 321.048L11.5981 321.062ZM8.21898 319.186C9.23655 319.759 10.3002 320.35 11.4214 320.964C10.6919 319.533 9.98532 318.126 9.30566 316.733C8.28169 315.932 7.3038 315.156 6.37199 314.405C6.97101 315.966 7.59308 317.555 8.23818 319.172L8.21898 319.186ZM4.86292 317.261C5.86385 317.845 6.93006 318.457 8.06154 319.099C7.41644 317.464 6.79566 315.852 6.1992 314.263C5.16243 313.426 4.19094 312.62 3.27704 311.855C3.79415 313.62 4.32917 315.417 4.88212 317.247L4.86292 317.261ZM1.52221 315.277C2.49755 315.868 3.57272 316.507 4.717 317.174C4.15638 315.321 3.62519 313.504 3.12345 311.723C2.07516 310.841 1.09983 309.986 0.216655 309.225C0.646722 311.202 1.08447 313.214 1.54142 315.263L1.52221 315.277ZM-1.7916 313.217C-0.850833 313.815 0.182095 314.461 1.38782 315.194C0.924473 313.13 0.485447 311.098 0.0707388 309.097C-1.02747 308.128 -1.97208 307.266 -2.81301 306.484C-2.47511 308.683 -2.14104 310.921 -1.77241 313.203L-1.7916 313.217ZM-5.08623 311.063C-4.28369 311.605 -3.2354 312.297 -1.926 313.148C-2.30999 310.855 -2.6287 308.604 -2.94741 306.38C-4.18386 305.227 -5.12847 304.296 -5.80813 303.629C-5.57005 306.047 -5.33198 308.524 -5.06703 311.049L-5.08623 311.063ZM577.19 353.997C575.743 354.208 574.291 354.42 572.851 354.625C570.597 356.362 568.428 357.974 566.193 359.684C567.679 359.385 569.184 359.065 570.678 358.756C572.886 357.134 575.005 355.619 577.21 353.983L577.19 353.997ZM581.771 353.302C580.324 353.514 578.865 353.736 577.421 353.944C575.228 355.574 573.112 357.071 570.935 358.687C572.425 358.377 573.93 358.054 575.424 357.742C577.57 356.244 579.644 354.827 581.79 353.305L581.771 353.302ZM586.337 352.624L582.009 353.263C579.874 354.782 577.812 356.192 575.693 357.686L580.147 356.748C582.244 355.358 584.267 354.042 586.356 352.628L586.337 352.624ZM590.883 351.929C589.447 352.148 588.019 352.357 586.587 352.569C584.509 353.958 582.497 355.285 580.443 356.672C581.917 356.362 583.38 356.06 584.859 355.744C586.89 354.476 588.867 353.257 590.903 351.95L590.883 351.929ZM595.422 351.235C593.99 351.457 592.573 351.662 591.148 351.877C589.125 353.177 587.159 354.386 585.15 355.664C586.617 355.351 588.076 355.046 589.555 354.723C591.54 353.58 593.464 352.464 595.441 351.269L595.422 351.235ZM600.03 350.502C598.594 350.724 597.135 350.967 595.702 351.196C593.74 352.381 591.832 353.486 589.881 354.671C591.367 354.344 592.876 353.976 594.362 353.663C596.286 352.617 598.148 351.61 600.057 350.536L600.03 350.502ZM604.638 349.769C603.213 349.994 601.781 350.227 600.356 350.463C598.471 351.53 596.628 352.524 594.75 353.569C596.221 353.243 597.699 352.906 599.17 352.576C601.009 351.655 602.806 350.755 604.645 349.803L604.638 349.769ZM609.192 349.042L604.968 349.716C603.152 350.658 601.382 351.54 599.592 352.468C601.032 352.145 602.468 351.825 603.916 351.495C605.686 350.703 607.445 349.914 609.2 349.077L609.192 349.042ZM613.685 348.327C612.302 348.553 610.947 348.761 609.576 348.983C607.833 349.803 606.12 350.575 604.4 351.384C605.79 351.071 607.168 350.773 608.57 350.446C610.286 349.769 611.972 349.088 613.692 348.362L613.685 348.327ZM618.196 347.628C616.841 347.854 615.478 348.087 614.126 348.323C612.46 349.018 610.824 349.685 609.165 350.38C610.567 350.05 611.984 349.706 613.389 349.379C615.005 348.764 616.595 348.202 618.196 347.628ZM622.674 346.864L618.784 347.528C617.279 348.08 615.804 348.601 614.307 349.143L618.323 348.184C619.786 347.722 621.226 347.298 622.685 346.847L622.674 346.864ZM626.66 346.169L623.499 346.708C622.347 347.055 621.195 347.403 620.043 347.75C622.259 347.229 624.459 346.708 626.671 346.169H626.66ZM28.5435 330.237C29.4843 330.536 30.4634 330.841 31.4464 331.147C29.5611 330.272 27.7333 329.41 25.99 328.562C26.8232 329.115 27.6718 329.674 28.5435 330.237ZM24.8457 329.045C25.917 329.393 27.0229 329.74 28.148 330.112C27.1611 329.466 26.2088 328.833 25.2681 328.208C24.2031 327.687 23.1664 327.174 22.1578 326.669C23.0333 327.454 23.9241 328.246 24.8457 329.045ZM21.1632 327.829C22.2806 328.201 23.4019 328.576 24.5846 328.962C23.6284 328.128 22.7107 327.308 21.8007 326.495C20.6948 325.939 19.6465 325.401 18.602 324.866C19.4391 325.846 20.2839 326.829 21.1632 327.826V327.829ZM17.4961 326.586C18.6135 326.971 19.7617 327.36 20.952 327.76C20.0535 326.739 19.1934 325.734 18.3448 324.737C17.2312 324.164 16.1675 323.605 15.1269 323.056C15.8988 324.223 16.6782 325.394 17.4961 326.586ZM13.8406 325.318C14.9541 325.711 16.1138 326.114 17.3195 326.527C16.4901 325.318 15.7029 324.129 14.9273 322.948C13.806 322.354 12.7347 321.777 11.7018 321.211C12.3968 322.57 13.0995 323.931 13.8406 325.318ZM10.1965 324.004C11.3075 324.405 12.4697 324.82 13.6831 325.248C12.9152 323.858 12.224 322.469 11.5251 321.103C10.3962 320.489 9.32487 319.891 8.29962 319.314C8.914 320.878 9.53606 322.431 10.1965 324.004ZM6.56399 322.667C7.6622 323.077 8.8244 323.504 10.0506 323.949C9.3863 322.351 8.7604 320.787 8.13066 319.227C6.97869 318.585 5.92273 317.97 4.91284 317.383C5.45426 319.141 5.99184 320.878 6.56399 322.681V322.667ZM2.94682 321.277C4.02198 321.692 5.18291 322.132 6.42959 322.597C5.84977 320.798 5.30834 319.036 4.77844 317.278C3.62647 316.608 2.55515 315.969 1.57597 315.375C2.01372 317.355 2.46299 319.311 2.94682 321.308V321.277ZM-0.654999 319.86C0.377931 320.273 1.5299 320.728 2.8009 321.225C2.31323 319.217 1.86397 317.251 1.42238 315.291C0.220494 314.562 -0.820114 313.902 -1.76473 313.311C-1.40378 315.503 -1.05051 317.675 -0.654999 319.891V319.86ZM-4.24913 318.414C-3.32372 318.804 -2.17943 319.28 -0.793236 319.839C-1.17722 317.612 -1.56121 315.43 -1.8876 313.259C-3.20084 312.425 -4.24529 311.737 -5.05935 311.174C-4.79824 313.582 -4.54096 315.969 -4.24913 318.414ZM583.902 349.018L579.679 349.366C577.444 351.103 575.251 352.777 573.036 354.49C574.476 354.285 575.935 354.07 577.386 353.858C579.563 352.239 581.718 350.668 583.902 349.018ZM588.33 348.671L584.106 349.018C581.929 350.647 579.786 352.221 577.624 353.826L581.982 353.177C584.102 351.662 586.191 350.199 588.33 348.671ZM592.753 348.323L588.529 348.671C586.406 350.189 584.306 351.655 582.213 353.152L586.548 352.51C588.629 351.103 590.668 349.73 592.753 348.323ZM597.162 347.976L592.965 348.323C590.895 349.737 588.864 351.103 586.821 352.492C588.257 352.28 589.689 352.072 591.133 351.853C593.141 350.519 595.13 349.265 597.162 347.948V347.976ZM601.57 347.628C600.164 347.747 598.782 347.854 597.384 347.976C595.368 349.282 593.387 350.533 591.383 351.822C592.819 351.603 594.243 351.394 595.683 351.172C597.653 349.939 599.588 348.796 601.57 347.59V347.628ZM606.013 347.236L601.789 347.608C599.826 348.799 597.903 349.942 595.956 351.12C597.4 350.894 598.863 350.654 600.306 350.425C602.226 349.317 604.1 348.285 606.013 347.198V347.236ZM610.448 346.843L606.262 347.215C604.373 348.289 602.514 349.3 600.633 350.377L604.945 349.682C606.784 348.695 608.597 347.778 610.448 346.805V346.843ZM614.863 346.454L610.716 346.822C608.892 347.778 607.099 348.692 605.287 349.633L609.545 348.938C611.323 348.077 613.074 347.281 614.863 346.416V346.454ZM619.252 346.069C617.882 346.194 616.522 346.308 615.159 346.416C613.4 347.257 611.672 348.056 609.925 348.883C611.319 348.657 612.702 348.445 614.103 348.216C615.823 347.465 617.521 346.77 619.252 346.03V346.069ZM623.661 345.662L619.583 346.041C617.893 346.76 616.23 347.43 614.549 348.16L618.772 347.465C620.401 346.809 622.013 346.239 623.661 345.624V345.662ZM628.061 345.245C626.729 345.37 625.373 345.502 624.052 345.624C622.474 346.211 620.919 346.77 619.348 347.361L623.48 346.666C625.012 346.135 626.521 345.686 628.061 345.197V345.245ZM632.358 344.839L628.549 345.186C627.128 345.627 625.723 346.055 624.325 346.489L628.219 345.829C629.589 345.464 630.96 345.144 632.358 344.8V344.839ZM636.255 344.467L633.034 344.773L629.751 345.579C631.916 345.172 634.07 344.814 636.244 344.429L636.255 344.467ZM35.6972 333.027L38.8344 333.555C36.8069 332.95 34.8486 332.355 32.9594 331.769C33.8733 332.148 34.7718 332.565 35.7087 332.988L35.6972 333.027ZM31.7728 332.36C32.9248 332.558 34.1113 332.759 35.2979 332.961C34.2342 332.478 33.2013 332.002 32.176 331.526C31.0625 331.178 29.9374 330.831 28.8737 330.484C29.8375 331.074 30.7898 331.693 31.7844 332.321L31.7728 332.36ZM27.8485 331.665C29.0388 331.877 30.2522 332.089 31.5079 332.304C30.4711 331.651 29.4689 331.005 28.4821 330.362C27.2994 329.987 26.1781 329.619 25.0262 329.254C25.9708 330.022 26.8962 330.821 27.86 331.647L27.8485 331.665ZM23.9279 330.97L27.6411 331.634C26.662 330.803 25.7212 329.987 24.7766 329.17C23.5747 328.781 22.4266 328.399 21.2938 328.02C22.1654 328.962 23.0333 329.942 23.9395 330.953L23.9279 330.97ZM20.0151 330.254L23.7513 330.949C22.8374 329.942 21.9543 328.948 21.0634 327.961C19.8577 327.558 18.698 327.166 17.5653 326.777C18.4062 327.885 19.1742 329.045 20.0266 330.22L20.0151 330.254ZM16.1099 329.528L19.8615 330.223C19.0167 329.038 18.2065 327.868 17.4078 326.704L13.9058 325.488C14.6316 326.784 15.3612 328.132 16.1215 329.494L16.1099 329.528ZM12.2086 328.781C13.4067 329.013 14.6597 329.253 15.9679 329.5C15.1999 328.132 14.4626 326.777 13.7446 325.436C12.5235 325.005 11.3562 324.588 10.2426 324.185C10.8851 325.686 11.5443 327.206 12.2201 328.747L12.2086 328.781ZM8.31497 328.017C9.5015 328.253 10.7495 328.5 12.0742 328.754C11.3907 327.197 10.7315 325.656 10.0967 324.129C8.86024 323.685 7.70059 323.254 6.59855 322.844C7.15661 324.528 7.73259 326.241 8.32649 327.982L8.31497 328.017ZM4.42901 327.232C5.58098 327.472 6.84046 327.725 8.18442 327.993C7.5854 326.242 7.01069 324.505 6.46031 322.781C5.20851 322.316 4.04502 321.871 2.96985 321.458C3.44344 323.341 3.93367 325.254 4.44053 327.197L4.42901 327.232ZM0.550725 326.426C1.66813 326.666 2.93913 326.926 4.30229 327.207C3.79031 325.26 3.30136 323.329 2.83546 321.416C1.5491 320.919 0.393289 320.464 -0.64348 320.047C-0.255651 322.114 0.143697 324.248 0.562244 326.391L0.550725 326.426ZM-3.31988 325.592C-2.28311 325.821 -1.05435 326.089 0.427849 326.402C0.00546169 324.248 -0.397727 322.107 -0.770196 319.995C-2.16023 319.436 -3.3122 318.953 -4.22609 318.571C-3.94578 320.85 -3.63475 323.195 -3.30836 325.557L-3.31988 325.592ZM590.492 344.05L586.406 344.081C584.229 345.787 581.979 347.597 579.817 349.293L584.041 348.945C586.172 347.326 588.372 345.62 590.503 344.015L590.492 344.05ZM594.762 344.015L590.676 344.05C588.549 345.648 586.356 347.351 584.244 348.931L588.468 348.584C590.549 347.073 592.696 345.478 594.773 343.981L594.762 344.015ZM599.028 343.977L594.946 344.012C592.876 345.506 590.722 347.093 588.687 348.57L592.911 348.223C594.931 346.815 597.016 345.336 599.039 343.942L599.028 343.977ZM603.29 343.942L599.22 343.977C597.2 345.367 595.126 346.84 593.122 348.209L597.346 347.861C599.304 346.562 601.332 345.197 603.302 343.908L603.29 343.942ZM607.552 343.904L603.49 343.939C601.524 345.221 599.504 346.583 597.553 347.847L601.754 347.5C603.67 346.305 605.644 345.051 607.564 343.869L607.552 343.904ZM611.818 343.863L607.76 343.904C605.84 345.075 603.885 346.336 602 347.483L606.224 347.111C608.071 346.027 609.975 344.891 611.83 343.828L611.818 343.863ZM616.081 343.821L612.033 343.859C610.19 344.901 608.297 346.044 606.466 347.086L610.689 346.718C612.464 345.745 614.303 344.734 616.092 343.786L616.081 343.821ZM620.339 343.776L616.311 343.817C614.533 344.759 612.705 345.766 610.935 346.694L615.109 346.326C616.845 345.468 618.619 344.578 620.351 343.741L620.339 343.776ZM624.586 343.734L620.585 343.776C618.868 344.603 617.129 345.485 615.409 346.298C616.787 346.176 618.154 346.062 619.54 345.951C621.215 345.197 622.927 344.418 624.598 343.699L624.586 343.734ZM628.81 343.689L624.839 343.73C623.184 344.425 621.495 345.204 619.848 345.905L623.991 345.52C625.615 344.894 627.247 344.252 628.841 343.654L628.81 343.689ZM633.034 343.637L629.109 343.682C627.543 344.272 625.941 344.901 624.379 345.485L628.484 345.092C630.023 344.589 631.563 344.078 633.072 343.602L633.034 343.637ZM637.227 343.588L633.387 343.633C631.924 344.095 630.427 344.592 628.967 345.047L632.972 344.669C634.42 344.286 635.86 343.908 637.265 343.553L637.227 343.588ZM641.32 343.539L637.668 343.581C636.336 343.928 634.981 344.276 633.652 344.603L637.438 344.255C638.763 343.984 640.084 343.734 641.359 343.505L641.32 343.539ZM645.026 343.498L641.954 343.532C640.863 343.727 639.757 343.935 638.667 344.13L645.026 343.498ZM43.4115 334.75L46.6601 334.896C44.5251 334.551 42.4516 334.214 40.4395 333.885L43.4115 334.75ZM39.2491 334.559L42.97 334.729C41.8449 334.399 40.7044 334.072 39.6139 333.749L36.0735 333.155C37.1064 333.621 38.1855 334.079 39.2491 334.559ZM35.0905 334.368L38.9611 334.545C37.8552 334.059 36.7417 333.569 35.6742 333.089L32.0109 332.467C32.9978 333.093 34.0576 333.732 35.0905 334.368ZM30.9319 334.173L34.8716 334.357C33.8195 333.708 32.7597 333.058 31.7421 332.419L28.0136 331.766C28.9582 332.561 29.9489 333.385 30.9319 334.173ZM26.7733 333.975L30.7553 334.163C29.7607 333.35 28.7585 332.533 27.8062 331.731L24.0508 331.06C24.934 332.023 25.8556 332.999 26.7733 333.975ZM22.6301 333.774L26.6312 333.968C25.702 332.982 24.7727 331.998 23.8896 331.029C22.5917 330.796 21.3399 330.567 20.1226 330.334C20.9213 331.474 21.7699 332.624 22.6301 333.774ZM18.4792 333.569L22.488 333.767C21.6355 332.61 20.7792 331.453 19.969 330.313L16.1983 329.619C16.9163 330.918 17.692 332.242 18.4676 333.569H18.4792ZM14.3244 333.36L18.3448 333.562C17.5768 332.228 16.8088 330.897 16.0408 329.584L12.2624 328.868C12.9228 330.348 13.6179 331.852 14.3129 333.36H14.3244ZM10.1735 333.148L14.1938 333.353C13.4988 331.839 12.8038 330.327 12.1472 328.837C10.8186 328.58 9.56678 328.333 8.37641 328.097C8.93703 329.764 9.54758 331.456 10.162 333.148H10.1735ZM6.02256 332.933L10.0468 333.145C9.43238 331.443 8.818 329.744 8.24586 328.069C6.9019 327.802 5.65009 327.551 4.47893 327.312C4.96659 329.167 5.48114 331.046 6.01104 332.933H6.02256ZM1.87164 332.714L5.89969 332.926C5.36978 331.036 4.84372 329.146 4.36373 327.284C2.99673 327.006 1.72573 326.742 0.600644 326.502C0.980793 328.552 1.41854 330.629 1.86013 332.714H1.87164ZM-2.27543 332.488L1.75261 332.707C1.30718 330.623 0.873276 328.538 0.470088 326.478C-1.01211 326.165 -2.24087 325.898 -3.28532 325.665C-2.98581 327.916 -2.64022 330.199 -2.28695 332.488H-2.27543ZM597.204 338.943L593.245 338.672C591.014 340.43 588.764 342.223 586.548 343.956L590.641 343.925C592.811 342.275 595.019 340.586 597.204 338.943ZM601.312 339.235L597.369 338.954C595.188 340.607 592.988 342.292 590.841 343.922L594.934 343.887C597.031 342.348 599.181 340.771 601.301 339.221L601.312 339.235ZM605.421 339.527L601.478 339.245C599.354 340.791 597.211 342.372 595.103 343.887L599.189 343.852C601.251 342.417 603.344 340.951 605.421 339.513V339.527ZM609.534 339.819L605.594 339.537C603.524 340.972 601.435 342.435 599.381 343.849L603.463 343.817C605.471 342.49 607.51 341.135 609.534 339.805V339.819ZM613.65 340.11C612.329 340.013 611.024 339.926 609.71 339.833C607.694 341.156 605.663 342.508 603.659 343.814L607.733 343.779C609.691 342.563 611.669 341.316 613.65 340.097V340.11ZM617.743 340.42C616.442 340.322 615.128 340.218 613.831 340.124C611.868 341.34 609.887 342.581 607.94 343.779L612.014 343.737C613.911 342.636 615.835 341.507 617.743 340.406V340.42ZM621.833 340.729L617.932 340.434C616.012 341.531 614.115 342.654 612.229 343.734L616.292 343.692C618.127 342.709 619.99 341.702 621.833 340.715V340.729ZM625.926 341.038L622.033 340.743C620.197 341.722 618.346 342.723 616.522 343.692L620.566 343.651C622.344 342.765 624.144 341.893 625.926 341.028V341.038ZM630.023 341.347L626.137 341.052C624.363 341.917 622.578 342.789 620.815 343.647L624.843 343.605C626.56 342.852 628.299 342.07 630.023 341.333V341.347ZM634.101 341.663L630.261 341.365C628.549 342.108 626.805 342.869 625.124 343.605L629.132 343.56C630.772 342.924 632.446 342.282 634.101 341.649V341.663ZM638.16 341.99L634.347 341.684C632.707 342.306 631.056 342.942 629.428 343.557L633.41 343.508C634.984 342.997 636.578 342.48 638.164 341.976L638.16 341.99ZM642.203 342.313L638.433 342.011C636.897 342.508 635.315 343.015 633.763 343.505L637.692 343.46C639.189 343.07 640.702 342.681 642.203 342.299V342.313ZM646.228 342.636L642.526 342.341C641.063 342.709 639.592 343.088 638.137 343.453L641.977 343.407C643.382 343.143 644.807 342.879 646.228 342.622V342.636ZM650.194 342.952L646.631 342.667L642.591 343.4L646.228 343.359L650.194 342.952ZM653.761 343.255C652.759 343.175 651.757 343.084 650.755 343.001L647.41 343.348L653.761 343.255ZM51.5137 335.573L54.8774 335.375L48.4802 335.094L51.5137 335.573ZM47.1439 335.837L51.026 335.601L47.5701 335.052L43.8378 334.885C44.9206 335.188 46.0188 335.504 47.1439 335.816V335.837ZM42.7664 336.108L46.829 335.855C45.654 335.507 44.5251 335.195 43.3731 334.865L39.4949 334.687C40.5815 335.146 41.6567 335.618 42.7664 336.094V336.108ZM38.3813 336.383L42.5322 336.122C41.4033 335.636 40.3089 335.156 39.2222 334.677L35.2748 334.493C36.2924 335.122 37.3215 335.733 38.3736 336.369L38.3813 336.383ZM34 336.668L38.197 336.393C37.1218 335.75 36.0889 335.118 35.0559 334.482L31.0663 334.295C32.0263 335.069 32.9978 335.858 34 336.654V336.668ZM29.6148 336.959L33.8387 336.678C32.825 335.875 31.8535 335.08 30.882 334.288L26.8731 334.097C27.7755 335.031 28.674 335.983 29.6148 336.946V336.959ZM25.222 337.258L29.4689 336.97C28.5281 336.001 27.6219 335.045 26.7196 334.09L22.6992 333.895C23.5248 334.997 24.358 336.112 25.222 337.244V337.258ZM20.8292 337.564L25.0914 337.265C24.2198 336.129 23.3827 335.007 22.5571 333.888L18.5291 333.69C19.2779 334.962 20.0382 336.247 20.8292 337.553V337.564ZM16.4325 337.877L20.7101 337.553C19.9153 336.247 19.1742 334.955 18.4062 333.666L14.3743 333.464C15.0348 334.924 15.7183 336.386 16.4325 337.863V337.877ZM12.0281 338.2L16.3096 337.887C15.5916 336.404 14.9081 334.937 14.2361 333.475L10.2004 333.27C10.7917 334.892 11.3946 336.529 12.0281 338.186V338.2ZM7.62379 338.547L11.9091 338.221C11.2717 336.556 10.6688 334.913 10.0736 333.273L6.03792 333.065C6.55247 334.858 7.07085 336.678 7.62379 338.523V338.547ZM3.21177 338.895L7.50476 338.547C6.95181 336.699 6.42959 334.871 5.91889 333.051L1.89468 332.818C2.30939 334.823 2.74714 336.834 3.21177 338.867V338.895ZM-1.20026 339.242L3.09657 338.895C2.6281 336.855 2.19036 334.84 1.76413 332.829L-2.27159 332.61C-1.9452 334.792 -1.56121 336.994 -1.20026 339.221V339.242ZM-5.61997 339.617C-4.66768 339.534 -3.24692 339.412 -1.3193 339.252C-1.70329 337.018 -2.05272 334.809 -2.39063 332.606L-6.42251 332.377C-6.16908 334.774 -5.9118 337.164 -5.61997 339.596V339.617ZM603.989 333.781C602.71 333.586 601.432 333.398 600.149 333.211C597.872 335.017 595.622 336.782 593.36 338.564L597.327 338.835C599.546 337.15 601.754 335.486 603.989 333.781ZM607.936 334.402C606.669 334.208 605.402 333.996 604.135 333.805C601.908 335.504 599.707 337.168 597.496 338.846L601.447 339.127C603.605 337.553 605.755 335.997 607.932 334.402H607.936ZM611.884 335.028L608.082 334.427C605.917 336.018 603.77 337.553 601.612 339.138L605.559 339.419C607.664 337.956 609.749 336.511 611.88 335.028H611.884ZM615.839 335.653L612.037 335.052C609.925 336.532 607.813 337.974 605.732 339.43L609.68 339.711C611.726 338.363 613.769 337.022 615.835 335.653H615.839ZM619.805 336.282C618.534 336.074 617.267 335.882 615.996 335.677C613.938 337.043 611.903 338.377 609.852 339.725C611.169 339.819 612.479 339.905 613.8 340.003C615.8 338.766 617.789 337.553 619.802 336.282H619.805ZM623.726 336.942C622.474 336.734 621.218 336.511 619.967 336.306C617.962 337.56 615.977 338.783 613.984 340.017L617.905 340.312C619.84 339.19 621.771 338.078 623.722 336.942H623.726ZM627.643 337.606L623.891 336.97C621.948 338.102 620.024 339.211 618.093 340.326L622.009 340.621C623.883 339.638 625.753 338.624 627.639 337.606H627.643ZM631.567 338.273C630.319 338.061 629.067 337.845 627.815 337.637C625.938 338.648 624.075 339.638 622.205 340.639L626.114 340.934C627.931 340.048 629.739 339.172 631.563 338.273H631.567ZM635.507 338.943C634.251 338.724 633.003 338.519 631.747 338.304C629.931 339.197 628.13 340.069 626.326 340.948L630.231 341.243C631.985 340.479 633.736 339.721 635.503 338.943H635.507ZM639.412 339.638L635.695 338.981C633.94 339.753 632.201 340.506 630.453 341.267L634.332 341.57C636.021 340.923 637.711 340.284 639.408 339.638H639.412ZM643.286 340.333C642.061 340.11 640.836 339.881 639.612 339.662C637.926 340.312 636.255 340.944 634.577 341.58L638.417 341.889C640.038 341.375 641.654 340.861 643.282 340.333H643.286ZM647.161 341.028L643.505 340.361C641.896 340.882 640.299 341.403 638.698 341.9L642.518 342.205C644.062 341.827 645.606 341.441 647.157 341.028H647.161ZM651.039 341.722C649.829 341.497 648.616 341.278 647.406 341.059C645.87 341.451 644.361 341.834 642.841 342.219L646.631 342.522L651.039 341.722ZM654.921 342.417C653.727 342.191 652.529 341.98 651.331 341.761C649.895 342.025 648.466 342.282 647.034 342.539L650.759 342.841L654.921 342.417ZM658.611 343.136C657.498 342.924 656.384 342.699 655.274 342.487L651.315 342.89L654.825 343.185L658.611 343.136ZM661.994 343.793L659.107 343.234L655.881 343.275L661.994 343.793ZM60.069 335.469L63.4557 334.962L56.9279 335.333L60.069 335.469ZM55.4611 336.164L59.516 335.552L55.8835 335.4L51.9822 335.625L55.4611 336.164ZM50.8878 336.859C52.2855 336.643 53.6756 336.424 55.1117 336.206L51.483 335.646L47.4204 335.889C48.5749 336.225 49.7358 336.554 50.9032 336.876L50.8878 336.859ZM46.2799 337.578L50.6228 336.883C49.4325 336.554 48.2588 336.225 47.1017 335.896L42.9469 336.153C44.0605 336.644 45.1817 337.125 46.3107 337.595L46.2799 337.578ZM41.6721 338.311L46.0803 337.616C44.9283 337.14 43.8147 336.661 42.7127 336.188L38.508 336.452C39.5793 337.081 40.6353 337.706 41.7066 338.328L41.6721 338.311ZM37.0642 339.068C38.5234 338.825 39.9748 338.585 41.5031 338.339C40.4203 337.711 39.3566 337.083 38.3122 336.456L34.0883 336.734C35.0867 337.512 36.0927 338.296 37.1064 339.086L37.0642 339.068ZM32.4563 339.836L36.926 339.089C35.902 338.304 34.9023 337.522 33.927 336.744L29.6763 337.025C30.6106 337.968 31.5488 338.911 32.4909 339.853L32.4563 339.836ZM27.8485 340.621C29.3 340.371 30.8052 340.114 32.3373 339.857C31.3901 338.912 30.4596 337.972 29.5457 337.036L25.2758 337.324C26.1282 338.429 26.9935 339.534 27.8715 340.639L27.8485 340.621ZM23.2176 341.424C24.6652 341.17 26.182 340.906 27.7256 340.642C26.8424 339.534 25.9861 338.429 25.1452 337.335L20.8676 337.63C21.6547 338.905 22.4342 340.169 23.2406 341.441L23.2176 341.424ZM18.579 342.244L23.0985 341.444C22.2922 340.168 21.5063 338.895 20.7408 337.623L16.4594 337.929C17.1698 339.391 17.8725 340.823 18.602 342.261L18.579 342.244ZM13.9558 343.112L18.4868 342.289C17.7573 340.847 17.0507 339.409 16.3557 337.981C14.8581 338.087 13.4297 338.193 12.0704 338.297C12.6822 339.886 13.3107 341.491 13.9558 343.112ZM9.30183 343.977L13.8406 343.112C13.1878 341.493 12.5619 339.885 11.9475 338.283L7.65451 338.61C8.18826 340.395 8.72968 342.178 9.30183 343.97V343.977ZM4.63636 344.849C6.04176 344.578 7.53548 344.29 9.18663 343.981C8.61449 342.181 8.06922 340.395 7.53548 338.617L3.23864 338.964C3.68791 340.923 4.1487 342.886 4.63636 344.849ZM-0.0252581 345.78L4.53269 344.884C4.04118 342.904 3.58039 340.937 3.13113 338.978L-1.16954 339.325C-0.816275 341.469 -0.443806 343.616 -0.0252581 345.78ZM-4.70992 346.736C-3.58867 346.499 -2.0796 346.19 -0.144295 345.805C-0.528283 343.633 -0.912273 341.479 -1.29626 339.336C-3.2162 339.496 -4.64848 339.617 -5.60461 339.683C-5.32814 342.035 -5.04399 344.373 -4.72144 346.736H-4.70992ZM610.847 328.58C609.61 328.278 608.378 327.993 607.141 327.704C604.837 329.56 602.58 331.293 600.276 333.12C601.556 333.308 602.836 333.499 604.116 333.694C606.358 331.967 608.558 330.331 610.835 328.58H610.847ZM614.625 329.539C613.412 329.236 612.198 328.91 610.981 328.611C608.708 330.348 606.516 331.995 604.258 333.718C605.525 333.909 606.796 334.121 608.059 334.316C610.252 332.69 612.398 331.175 614.614 329.539H614.625ZM618.415 330.501C617.198 330.192 615.981 329.876 614.764 329.573C612.552 331.206 610.409 332.731 608.209 334.343C609.476 334.538 610.747 334.743 612.014 334.941C614.149 333.444 616.242 332.023 618.404 330.501H618.415ZM622.213 331.463L618.554 330.536C616.396 332.054 614.31 333.471 612.168 334.965L615.977 335.57C618.054 334.184 620.116 332.87 622.201 331.463H622.213ZM626.022 332.429C624.797 332.11 623.576 331.811 622.355 331.498C620.255 332.888 618.22 334.211 616.134 335.594C617.405 335.796 618.673 335.99 619.947 336.199C621.971 334.927 623.956 333.732 626.011 332.429H626.022ZM629.77 333.444C628.568 333.124 627.366 332.783 626.164 332.467C624.121 333.756 622.14 334.955 620.109 336.223C621.364 336.428 622.62 336.65 623.876 336.859C625.838 335.705 627.769 334.614 629.758 333.444H629.77ZM633.51 334.486C632.312 334.159 631.114 333.822 629.916 333.499C627.934 334.663 626.007 335.75 624.041 336.9L627.8 337.54C629.716 336.511 631.575 335.518 633.498 334.472L633.51 334.486ZM637.261 335.528C636.061 335.195 634.86 334.865 633.66 334.538C631.74 335.58 629.877 336.553 627.973 337.581L631.74 338.221C633.575 337.286 635.388 336.424 637.25 335.504L637.261 335.528ZM641.028 336.57C639.823 336.223 638.621 335.91 637.415 335.577C635.564 336.497 633.76 337.352 631.916 338.259C633.172 338.471 634.432 338.679 635.687 338.898C637.465 338.082 639.22 337.335 641.017 336.539L641.028 336.57ZM644.757 337.63L641.19 336.612C639.4 337.408 637.657 338.148 635.875 338.929L639.608 339.589C641.32 338.898 643.014 338.273 644.745 337.599L644.757 337.63ZM648.436 338.721C647.284 338.373 646.093 338.026 644.926 337.679C643.202 338.346 641.52 338.964 639.807 339.624C641.04 339.843 642.273 340.076 643.505 340.298C645.141 339.735 646.769 339.232 648.424 338.69L648.436 338.721ZM652.126 339.815C650.974 339.468 649.787 339.12 648.616 338.773C646.969 339.311 645.36 339.815 643.724 340.34L647.41 341.01C648.977 340.576 650.532 340.194 652.114 339.784L652.126 339.815ZM655.835 340.913C654.683 340.566 653.493 340.218 652.322 339.871C650.755 340.277 649.219 340.656 647.656 341.055L651.339 341.726C652.832 341.42 654.314 341.16 655.827 340.882L655.835 340.913ZM659.552 342.021C658.4 341.674 657.221 341.326 656.058 340.979C654.572 341.257 653.109 341.511 651.63 341.785C652.851 342.007 654.069 342.226 655.29 342.459C656.703 342.278 658.131 342.139 659.541 341.99L659.552 342.021ZM663.092 343.15C661.994 342.803 660.9 342.456 659.802 342.108C658.408 342.254 657.029 342.386 655.639 342.528C656.791 342.751 657.966 342.987 659.126 343.223L663.092 343.15ZM666.548 344.255C665.496 343.908 664.444 343.56 663.392 343.248L659.61 343.3L662.95 343.949L666.548 344.255ZM669.743 345.273C668.825 344.978 667.911 344.686 666.994 344.397L663.899 344.133C665.849 344.477 667.796 344.849 669.747 345.242L669.743 345.273ZM68.989 334.566L72.5217 333.77C70.2178 334.093 68.006 334.416 65.8058 334.736L68.989 334.566ZM64.2391 335.657C65.6176 335.337 66.9731 335.021 68.3862 334.701L64.6384 334.906L60.6142 335.504L64.2391 335.657ZM59.4431 336.772C60.883 336.424 62.3844 336.077 63.8589 335.73L60.0766 335.566C58.652 335.778 57.2044 335.994 55.8182 336.206L59.4431 336.772ZM54.6701 337.901C56.1638 337.553 57.6383 337.185 59.1743 336.824L55.4765 336.265C53.9943 336.49 52.5773 336.713 51.1451 336.935L54.6701 337.901ZM49.8702 339.058C51.3755 338.692 52.905 338.322 54.4589 337.95L50.8955 336.973L46.4911 337.668C47.5893 338.137 48.7413 338.596 49.8702 339.068V339.058ZM45.055 340.242C46.5641 339.867 48.1269 339.485 49.6974 339.103C48.5455 338.63 47.3935 338.161 46.2953 337.713C44.7977 337.95 43.2887 338.186 41.8487 338.408C42.897 339.023 43.976 339.638 45.055 340.253V340.242ZM40.2436 341.451C41.7796 341.062 43.3155 340.677 44.9091 340.277C43.8186 339.659 42.7396 339.04 41.6836 338.429C40.1476 338.676 38.6885 338.919 37.2178 339.162C38.2047 339.93 39.2222 340.698 40.2436 341.462V341.451ZM35.4131 342.685L40.1092 341.486C39.084 340.715 38.0664 339.947 37.0757 339.186L32.5831 339.933C33.5008 340.857 34.4531 341.775 35.4131 342.695V342.685ZM30.5671 343.942L35.2863 342.716C34.3302 341.792 33.3664 340.871 32.4525 339.937L27.9445 340.701C28.7931 341.799 29.6801 342.876 30.5671 343.953V343.942ZM25.7097 345.228C27.2456 344.821 28.8315 344.401 30.4481 343.974C29.5611 342.893 28.674 341.813 27.8216 340.743L23.2982 341.524C24.0777 342.765 24.8956 344.001 25.702 345.238L25.7097 345.228ZM20.8407 346.548C22.3766 346.128 23.9433 345.7 25.5945 345.259C24.7766 344.019 23.9625 342.779 23.1792 341.545C21.6163 341.82 20.1073 342.087 18.6519 342.348C19.3585 343.751 20.0996 345.155 20.8407 346.558V346.548ZM15.9602 347.896C17.4961 347.469 19.0667 347.031 20.7293 346.579C19.9844 345.19 19.2395 343.765 18.5329 342.369L13.9942 343.192C14.6277 344.762 15.292 346.333 15.9602 347.906V347.896ZM11.0643 349.286C12.5696 348.855 14.1644 348.406 15.8488 347.938C15.1807 346.36 14.5126 344.787 13.879 343.227L9.33254 344.071C9.88549 345.798 10.4768 347.542 11.0643 349.286ZM6.15696 350.703C7.64299 350.269 9.22886 349.81 10.953 349.313C10.3616 347.576 9.77029 345.839 9.21735 344.102C7.56236 344.415 6.06864 344.703 4.6594 344.974C5.13555 346.868 5.64625 348.785 6.15696 350.703ZM1.23038 352.162C2.6665 351.731 4.25237 351.259 6.04176 350.734C5.53106 348.813 5.02035 346.892 4.54421 344.988C2.85082 345.315 1.31102 345.617 -0.0214186 345.884C0.35873 347.976 0.804155 350.06 1.23038 352.162ZM-3.70771 353.67C-2.44055 353.277 -0.843154 352.788 1.11903 352.197C0.688961 350.095 0.255053 347.99 -0.136616 345.905C-2.0796 346.294 -3.59251 346.6 -4.70992 346.84C-4.40273 349.101 -4.0533 351.387 -3.70771 353.67ZM2.45531 358.534C0.450887 359.317 -1.24122 359.984 -2.62102 360.535C-2.26007 362.689 -1.87608 364.847 -1.46906 367.011C0.0169811 366.316 1.79869 365.458 3.84919 364.502C3.36152 362.515 2.89305 360.521 2.45531 358.537V358.534ZM7.62379 356.547C5.73841 357.262 4.09878 357.895 2.56667 358.492C3.00441 360.472 3.47288 362.46 3.94902 364.454C5.55153 363.706 7.3166 362.895 9.24423 362.022C8.69128 360.194 8.14218 358.367 7.62379 356.55V356.547ZM12.7769 354.618C10.9914 355.282 9.29415 355.918 7.73515 356.505C8.25354 358.322 8.7988 360.142 9.35174 361.966C10.9952 361.22 12.7539 360.428 14.6277 359.59C13.998 357.936 13.3721 356.272 12.7769 354.622V354.618ZM17.9147 352.735C16.1509 353.375 14.4754 353.988 12.8883 354.577C13.4796 356.227 14.1094 357.884 14.7353 359.545C16.4018 358.801 18.1528 358.028 19.9882 357.224C19.2855 355.73 18.579 354.229 17.9147 352.739V352.735ZM23.0333 350.894C21.2899 351.516 19.6273 352.114 18.0414 352.694C18.7019 354.184 19.4122 355.681 20.1111 357.175C21.7853 356.442 23.5209 355.688 25.341 354.907C24.55 353.573 23.782 352.228 23.0333 350.898V350.894ZM28.1365 349.091C26.4047 349.699 24.7574 350.279 23.1446 350.856C23.878 352.187 24.6806 353.524 25.4485 354.862C27.1343 354.135 28.8545 353.402 30.6593 352.638C29.7991 351.45 28.9428 350.272 28.1365 349.095V349.091ZM33.2205 347.33L28.2286 349.067C29.035 350.241 29.8913 351.426 30.7322 352.607C32.4141 351.912 34.1305 351.176 35.9161 350.432C35.0252 349.393 34.096 348.358 33.2205 347.333V347.33ZM38.2968 345.593C36.6073 346.162 34.9369 346.729 33.3318 347.278C34.2073 348.299 35.1327 349.331 36.0198 350.359C37.6863 349.664 39.4334 348.952 41.1882 348.233C40.2321 347.371 39.2376 346.485 38.2968 345.61V345.593ZM43.3578 343.897C41.6682 344.458 40.0196 345.009 38.412 345.551C39.3489 346.426 40.3319 347.309 41.3188 348.188C42.993 347.493 44.7056 346.798 46.4566 346.103C45.4198 345.384 44.36 344.648 43.3655 343.915L43.3578 343.897ZM48.3957 342.237C46.7062 342.785 45.0973 343.321 43.4807 343.859C44.4829 344.589 45.5388 345.325 46.5756 346.058C48.2536 345.363 49.9317 344.707 51.6788 344.012C50.5806 343.439 49.4594 342.845 48.3957 342.254V342.237ZM53.426 340.611L48.5301 342.191C49.5938 342.779 50.7112 343.373 51.8055 343.963C53.4605 343.307 55.1693 342.64 56.8857 341.969C55.7261 341.535 54.551 341.08 53.426 340.628V340.611ZM58.4408 339.016C56.7923 339.537 55.1718 340.053 53.5796 340.562C54.7046 341.01 55.8835 341.462 57.0355 341.914C58.6866 341.272 60.3659 340.622 62.0734 339.965C60.8523 339.666 59.6235 339.35 58.4408 339.033V339.016ZM63.4327 337.453C61.7892 337.96 60.2226 338.457 58.6328 338.96C59.8078 339.273 61.0328 339.586 62.2385 339.902C63.8858 339.27 65.5101 338.641 67.2035 337.998L63.4327 337.453ZM68.4246 335.921C66.8272 336.407 65.2029 336.9 63.6516 337.38C64.8727 337.56 66.1437 337.727 67.3955 337.922C69.0005 337.314 70.6786 336.695 72.3297 336.08L68.4246 335.921ZM73.378 334.413C71.796 334.889 70.2639 335.358 68.7202 335.827L72.5832 335.987C74.1729 335.393 75.7511 334.802 77.3792 334.204L73.378 334.413ZM78.343 332.936L73.8042 334.288L77.7132 334.083C79.2492 333.52 80.8236 332.95 82.3941 332.384L78.343 332.936ZM83.2926 331.488C81.8488 331.905 80.4216 332.321 79.0111 332.738L82.851 332.217C84.2948 331.696 85.7386 331.175 87.2131 330.647C85.8845 330.941 84.5802 331.227 83.3003 331.505L83.2926 331.488ZM91.5714 329.111C89.2675 329.761 87.0288 330.407 84.7978 331.053C85.8308 330.831 86.9098 330.605 87.9581 330.386L91.5714 329.111ZM617.69 323.31C616.499 322.903 615.305 322.521 614.111 322.132C611.807 323.994 609.53 325.79 607.234 327.624C608.47 327.909 609.706 328.198 610.943 328.5C613.205 326.784 615.42 325.067 617.69 323.31ZM621.295 324.609C620.143 324.199 618.991 323.758 617.809 323.355C615.547 325.092 613.32 326.805 611.077 328.531C612.291 328.83 613.508 329.156 614.725 329.459C616.918 327.843 619.091 326.249 621.295 324.609ZM624.916 325.912C623.764 325.495 622.585 325.064 621.418 324.654C619.218 326.287 617.044 327.882 614.86 329.494C616.081 329.796 617.298 330.112 618.515 330.421C620.646 328.92 622.77 327.433 624.916 325.912ZM628.545 327.218C627.393 326.791 626.206 326.374 625.039 325.953C622.9 327.472 620.781 328.958 618.653 330.47L622.317 331.401C624.39 330.001 626.46 328.621 628.564 327.218H628.545ZM632.189 328.528C631.037 328.09 629.843 327.687 628.672 327.26C626.59 328.649 624.525 330.039 622.459 331.429C623.684 331.741 624.909 332.04 626.134 332.36C628.146 331.088 630.164 329.809 632.189 328.521V328.528ZM635.764 329.896C634.612 329.459 633.46 329.004 632.308 328.573C630.288 329.854 628.275 331.128 626.268 332.394C627.47 332.714 628.675 333.054 629.877 333.374C631.836 332.223 633.798 331.068 635.764 329.91V329.896ZM639.323 331.286C638.172 330.841 637.02 330.379 635.891 329.942C633.93 331.1 631.977 332.258 630.031 333.416C631.229 333.739 632.431 334.076 633.633 334.406L639.323 331.286ZM642.895 332.676C641.748 332.213 640.596 331.763 639.439 331.328C637.547 332.37 635.656 333.404 633.767 334.43L637.38 335.424C639.22 334.527 641.055 333.607 642.895 332.69V332.676ZM646.481 334.065C645.329 333.603 644.177 333.166 643.025 332.714C641.197 333.631 639.366 334.548 637.546 335.452C638.751 335.799 639.961 336.105 641.17 336.445C642.933 335.688 644.711 334.889 646.481 334.079V334.065ZM650.033 335.507C648.896 335.044 647.758 334.581 646.619 334.118C644.853 334.91 643.087 335.705 641.332 336.487C642.522 336.825 643.714 337.173 644.907 337.529C646.612 336.88 648.32 336.202 650.033 335.532V335.507ZM653.516 336.987C652.398 336.518 651.289 336.028 650.167 335.566C648.47 336.233 646.765 336.907 645.072 337.564C646.251 337.911 647.426 338.259 648.604 338.606L653.516 336.987ZM657.018 338.471C655.9 337.995 654.783 337.515 653.662 337.046C652.034 337.585 650.402 338.13 648.781 338.662C649.961 339.004 651.139 339.352 652.314 339.704C653.877 339.325 655.443 338.908 657.018 338.495V338.471ZM660.543 339.968C659.421 339.482 658.296 339.016 657.175 338.537C655.639 338.947 654.057 339.363 652.51 339.766C653.688 340.114 654.871 340.461 656.05 340.809C657.544 340.562 659.045 340.274 660.543 339.985V339.968ZM664.087 341.483C662.966 340.989 661.837 340.524 660.716 340.041C659.237 340.319 657.747 340.607 656.273 340.882C657.448 341.229 658.627 341.577 659.802 341.924L664.087 341.483ZM667.455 343.029C666.391 342.553 665.335 342.042 664.267 341.57L660.044 342.018C661.165 342.365 662.282 342.737 663.403 343.088L667.455 343.029ZM670.811 344.571C669.766 344.092 668.718 343.605 667.673 343.129L663.722 343.189C664.824 343.536 665.922 343.883 667.021 344.231L670.811 344.571ZM674.147 346.1C673.13 345.627 672.112 345.165 671.076 344.71L667.447 344.391C668.503 344.738 669.559 345.058 670.615 345.398C671.801 345.645 672.972 345.891 674.147 346.124V346.1ZM677.35 347.573C676.424 347.135 675.495 346.722 674.566 346.294C673.545 346.086 672.516 345.867 671.494 345.662C673.445 346.315 675.411 346.934 677.35 347.597V347.573ZM679.201 348.316C680.944 349.147 682.676 350.033 684.411 350.898C683.578 350.352 682.753 349.786 681.916 349.244C681.013 348.959 680.107 348.643 679.201 348.341V348.316ZM675.027 346.392C676.133 346.899 677.239 347.389 678.337 347.91C679.4 348.257 680.456 348.632 681.52 348.997C680.51 348.348 679.485 347.74 678.448 347.104C677.331 346.892 676.179 346.649 675.027 346.416V346.392ZM671.41 344.728C672.473 345.217 673.541 345.7 674.604 346.197C675.806 346.44 677.008 346.697 678.21 346.944C677.204 346.312 676.19 345.69 675.18 345.068L671.41 344.728ZM667.915 343.126C668.987 343.609 670.054 344.109 671.125 344.599L674.984 344.946C673.975 344.325 672.965 343.685 671.951 343.07L667.915 343.126ZM664.459 341.545C665.535 342.028 666.606 342.542 667.685 343.025L671.774 342.963C670.757 342.348 669.755 341.691 668.737 341.08C667.347 341.26 665.892 341.42 664.475 341.57L664.459 341.545ZM660.884 340.006C662.013 340.493 663.146 340.962 664.275 341.462L668.595 340.993C667.524 340.357 666.445 339.763 665.373 339.141C663.891 339.45 662.386 339.749 660.9 340.031L660.884 340.006ZM657.325 338.495C658.454 338.974 659.587 339.443 660.712 339.933C662.209 339.652 663.73 339.35 665.235 339.061C664.168 338.439 663.092 337.842 662.021 337.234C660.477 337.675 658.899 338.109 657.34 338.519L657.325 338.495ZM653.796 336.998C654.92 337.461 656.044 337.938 657.167 338.429C658.73 338.016 660.32 337.578 661.894 337.161C660.831 336.553 659.771 335.941 658.703 335.344C657.087 335.914 655.443 336.483 653.811 337.022L653.796 336.998ZM650.29 335.511C651.415 335.973 652.529 336.466 653.65 336.935C655.282 336.397 656.945 335.82 658.581 335.274C657.521 334.677 656.469 334.052 655.405 333.464C653.723 334.163 651.987 334.871 650.306 335.535L650.29 335.511ZM646.734 334.058C647.876 334.522 649.017 334.985 650.156 335.448C651.849 334.781 653.585 334.059 655.29 333.395C654.207 332.801 653.12 332.217 652.037 331.634C650.29 332.46 648.501 333.298 646.75 334.079L646.734 334.058ZM643.156 332.69C644.308 333.145 645.46 333.583 646.612 334.048C648.366 333.259 650.163 332.415 651.93 331.616C650.832 331.026 649.73 330.47 648.631 329.879C646.815 330.796 644.961 331.766 643.156 332.69ZM639.573 331.3C640.72 331.747 641.872 332.198 643.029 332.651C644.845 331.741 646.704 330.769 648.532 329.844C647.441 329.268 646.348 328.697 645.252 328.132C643.359 329.146 641.439 330.258 639.569 331.272L639.573 331.3ZM636.006 329.91C637.158 330.348 638.31 330.81 639.462 331.255C641.336 330.213 643.263 329.122 645.152 328.076C644.062 327.513 642.975 326.926 641.885 326.37C639.919 327.503 637.933 328.733 636.002 329.879L636.006 329.91ZM632.431 328.521C633.583 328.955 634.735 329.41 635.887 329.848C637.807 328.701 639.811 327.468 641.758 326.301C640.66 325.745 639.565 325.175 638.463 324.63C636.459 325.887 634.409 327.242 632.427 328.5L632.431 328.521ZM628.779 327.207C629.954 327.635 631.133 328.038 632.304 328.476C634.293 327.214 636.344 325.86 638.348 324.574C637.227 324.022 636.102 323.508 634.977 322.966C632.922 324.352 630.814 325.814 628.775 327.187L628.779 327.207ZM625.147 325.901C626.299 326.322 627.485 326.738 628.656 327.166C630.699 325.776 632.807 324.31 634.865 322.913C633.747 322.374 632.628 321.84 631.509 321.312C629.401 322.799 627.232 324.397 625.143 325.88L625.147 325.901ZM621.522 324.598C622.674 325.012 623.856 325.439 625.024 325.856C627.116 324.369 629.29 322.771 631.402 321.26C630.284 320.732 629.175 320.186 628.057 319.665C625.876 321.263 623.664 322.983 621.518 324.578L621.522 324.598ZM617.908 323.299C619.06 323.702 620.235 324.143 621.399 324.553C623.549 322.955 625.78 321.235 627.95 319.613C626.832 319.095 625.727 318.54 624.609 318.029C622.39 319.738 620.116 321.572 617.905 323.278L617.908 323.299ZM614.215 322.076C615.405 322.465 616.599 322.847 617.789 323.254C619.99 321.548 622.274 319.714 624.494 317.98C623.342 317.466 622.19 316.98 621.061 316.486C618.792 318.3 616.453 320.249 614.211 322.055L614.215 322.076ZM78.3084 332.853L81.7643 331.839C79.4834 332.332 77.2179 332.825 75.0138 333.315L78.3084 332.853ZM73.3473 334.329C74.7565 333.906 76.2003 333.478 77.6441 333.051L73.7658 333.593C72.3643 333.906 70.9704 334.218 69.6034 334.531L73.3473 334.329ZM68.4092 335.816C69.9068 335.361 71.3928 334.903 72.9326 334.427L69.0082 334.639C67.5222 334.986 66.0784 335.313 64.6308 335.646L68.4092 335.816ZM63.4173 337.349C64.9533 336.873 66.543 336.39 68.1135 335.91L64.2544 335.747L59.7272 336.789C60.9406 336.994 62.1579 337.178 63.4135 337.362L63.4173 337.349ZM58.4255 338.912C59.9999 338.415 61.555 337.922 63.1754 337.418C61.9083 337.234 60.6718 337.046 59.4392 336.862C57.8764 337.23 56.3673 337.592 54.8698 337.953C56.0563 338.287 57.2274 338.596 58.437 338.943L58.4255 338.912ZM53.4336 340.503C55.0118 339.999 56.6246 339.485 58.2565 338.971C57.0393 338.648 55.8566 338.325 54.6739 338.005C53.1047 338.38 51.5598 338.753 50.0392 339.124C51.1566 339.596 52.2702 340.055 53.4298 340.517L53.4336 340.503ZM48.4111 342.125C49.9931 341.608 51.6366 341.083 53.2801 340.555C52.1281 340.09 50.9953 339.628 49.8664 339.165L45.1932 340.312C46.253 340.93 47.3052 341.531 48.4072 342.139L48.4111 342.125ZM43.3655 343.807C44.9782 343.272 46.5794 342.737 48.2575 342.191C47.1554 341.58 46.0956 340.975 45.032 340.367L40.3396 341.549C41.3495 342.292 42.3364 343.043 43.3655 343.807ZM38.316 345.495C39.9211 344.953 41.5633 344.403 43.2426 343.845C42.202 343.088 41.2074 342.337 40.2052 341.583C38.5925 341.99 37.0258 342.393 35.4899 342.789C36.4537 343.682 37.3522 344.582 38.3275 345.488L38.316 345.495ZM33.2474 347.232C34.8447 346.684 36.5151 346.117 38.197 345.547C37.2255 344.637 36.3001 343.737 35.3631 342.834C33.7504 343.251 32.1568 343.661 30.6286 344.064C31.504 345.096 32.3565 346.149 33.2589 347.212L33.2474 347.232ZM28.171 348.99C29.7723 348.428 31.4349 347.854 33.136 347.271C32.2298 346.204 31.3812 345.151 30.5095 344.095C28.8891 344.519 27.284 344.943 25.7596 345.353C26.566 346.541 27.3493 347.75 28.1825 348.969L28.171 348.99ZM23.0909 350.755C24.6998 350.182 26.3432 349.602 28.0827 348.997C27.2456 347.774 26.4661 346.565 25.6674 345.353C24.0124 345.794 22.4419 346.221 20.9021 346.642C21.6163 348.021 22.3267 349.386 23.0909 350.755ZM17.98 352.593C19.5812 352.013 21.24 351.415 22.9718 350.793C22.2038 349.404 21.4973 348.045 20.7716 346.673C19.1051 347.128 17.5192 347.566 15.9947 347.99C16.6514 349.532 17.2926 351.061 17.98 352.603V352.593ZM12.8537 354.472C14.4383 353.884 16.1112 353.272 17.8725 352.635C17.1813 351.089 16.54 349.557 15.8872 348.025C14.2054 348.493 12.6041 348.945 11.0989 349.372C11.671 351.082 12.2393 352.774 12.8537 354.483V354.472ZM7.70827 356.397C9.24423 355.81 10.9568 355.174 12.7424 354.514C12.1318 352.801 11.5597 351.106 10.9837 349.404C9.25958 349.897 7.67371 350.359 6.18384 350.793C6.67918 352.669 7.17069 354.532 7.70827 356.408V356.397ZM2.54362 358.398C4.07958 357.804 5.71153 357.172 7.59308 356.456C7.05933 354.577 6.56399 352.711 6.05712 350.846C4.2639 351.367 2.67802 351.843 1.2419 352.273C1.66813 354.302 2.08668 356.338 2.54362 358.398ZM-2.64022 360.441C-1.25786 359.885 0.431688 359.219 2.42843 358.443C1.97532 356.387 1.55677 354.347 1.13823 352.308C-0.827794 352.899 -2.42519 353.389 -3.68851 353.785C-3.35828 355.991 -3.01653 358.204 -2.64022 360.434V360.441ZM486.872 417.306C485.87 418.032 484.853 418.779 483.854 419.498C485.336 418.48 486.865 417.393 488.378 416.333C487.875 416.666 487.383 416.972 486.872 417.306ZM493.93 412.178C492.121 413.502 490.332 414.794 488.535 416.1C489.986 415.148 491.496 414.106 492.97 413.123C494.606 411.973 496.211 410.865 497.851 409.708C496.533 410.552 495.232 411.368 493.934 412.178H493.93ZM501.057 407.001C499.014 408.506 497.048 409.902 495.021 411.386C496.664 410.344 498.361 409.256 500.039 408.179C501.959 406.835 503.799 405.567 505.715 404.208C504.161 405.153 502.616 406.084 501.08 407.001H501.057ZM507.8 402.023C505.822 403.496 503.868 404.934 501.906 406.386C503.61 405.372 505.361 404.302 507.109 403.235C509.028 401.846 510.948 400.56 512.868 399.157C511.176 400.13 509.488 401.085 507.804 402.023H507.8ZM514.139 397.218C512.219 398.646 510.265 400.178 508.38 401.585C510.13 400.609 511.908 399.595 513.686 398.577C515.453 397.305 517.288 395.933 519.062 394.644C517.407 395.526 515.783 396.364 514.135 397.218H514.139ZM520.713 392.233C518.686 393.768 516.635 395.339 514.627 396.85C516.309 395.971 517.991 395.092 519.696 394.182C521.616 392.792 523.601 391.33 525.548 389.909C523.92 390.708 522.334 391.455 520.717 392.233H520.713ZM527.46 387.119C525.336 388.741 523.236 390.322 521.128 391.92C522.775 391.125 524.403 390.35 526.066 389.53C528.117 388.029 530.163 386.549 532.229 385.014C530.624 385.75 529.061 386.414 527.464 387.119H527.46ZM534.333 381.908C532.129 383.603 530.006 385.173 527.806 386.844C529.422 386.129 531.016 385.455 532.648 384.708C534.79 383.134 536.871 381.647 539.029 380.049C537.455 380.695 535.915 381.279 534.337 381.911L534.333 381.908ZM541.095 376.697C538.933 378.375 536.791 380.018 534.644 381.672C536.238 381.032 537.801 380.435 539.406 379.782C541.533 378.201 543.63 376.655 545.776 375.067C544.202 375.637 542.674 376.141 541.099 376.7L541.095 376.697ZM547.727 371.485C545.619 373.132 543.442 374.89 541.349 376.512C542.931 375.95 544.474 375.435 546.064 374.862C548.119 373.323 550.253 371.666 552.319 370.103C550.78 370.558 549.271 371.002 547.731 371.475L547.727 371.485ZM554.493 366.153C552.312 367.869 550.111 369.627 547.965 371.308C549.501 370.836 551.037 370.405 552.573 369.919C554.704 368.31 556.87 366.649 559.012 365.02C557.488 365.406 555.99 365.76 554.497 366.142L554.493 366.153ZM561.366 360.726C559.124 362.501 556.912 364.235 554.685 365.986C556.221 365.6 557.688 365.246 559.204 364.857C561.393 363.196 563.57 361.549 565.774 359.861C564.304 360.156 562.848 360.431 561.366 360.726ZM568.332 355.233C566.028 357.068 563.824 358.777 561.543 360.584C563.021 360.288 564.48 360.017 565.962 359.718C568.205 358.002 570.386 356.383 572.644 354.639L568.332 355.233ZM575.27 349.675C572.997 351.509 570.751 353.291 568.493 355.094C569.937 354.893 571.365 354.705 572.809 354.5C575.036 352.784 577.236 351.106 579.483 349.362L575.27 349.675ZM582.144 344.064C579.917 345.867 577.62 347.785 575.412 349.56L579.636 349.247C581.806 347.562 584.06 345.746 586.245 344.036L582.144 344.064ZM589.109 338.373C586.832 340.232 584.532 342.129 582.27 343.96L586.364 343.932C588.583 342.195 590.841 340.399 593.076 338.637L589.109 338.373ZM596.159 332.617C593.832 334.524 591.532 336.397 589.228 338.28L593.195 338.544C595.46 336.758 597.714 334.986 599.995 333.18L596.159 332.617ZM603.282 326.798C600.913 328.757 598.621 330.595 596.271 332.526L600.111 333.089C602.415 331.258 604.665 329.518 606.988 327.663C605.759 327.388 604.526 327.096 603.29 326.808L603.282 326.798ZM610.421 320.892C608.051 322.861 605.736 324.755 603.386 326.697C604.62 326.989 605.855 327.277 607.091 327.562C609.395 325.724 611.665 323.928 614.003 322.066L610.421 320.892ZM617.513 314.902C615.209 316.841 612.805 318.901 610.513 320.808C611.699 321.201 612.89 321.597 614.08 321.982C616.326 320.176 618.688 318.223 620.934 316.386C619.802 315.927 618.661 315.427 617.521 314.93L617.513 314.902ZM610.39 320.773C612.694 318.859 615.086 316.796 617.402 314.867C432.611 234.615 217.938 285.146 94.5358 328.173C213.565 294.877 418.906 257.576 610.398 320.801L610.39 320.773ZM603.252 326.679C605.605 324.73 607.925 322.858 610.298 320.864C418.058 257.409 211.833 295.287 93.0651 328.691L88.726 330.223C202.46 306.217 402.18 279.473 603.259 326.693L603.252 326.679ZM596.121 332.502C598.479 330.567 600.775 328.726 603.148 326.763C401.673 279.476 201.569 306.446 87.9926 330.501C86.4259 331.06 84.8785 331.613 83.3425 332.169C191.815 317.48 385.626 301.478 596.129 332.516L596.121 332.502ZM589.067 338.266C591.371 336.379 593.675 334.503 596.013 332.589C385.25 301.527 191.236 317.619 82.8741 332.321C81.2575 332.905 79.6447 333.489 78.0627 334.058C181.321 328.743 369.157 323.521 589.075 338.28L589.067 338.266ZM582.102 343.97C584.367 342.136 586.671 340.236 588.952 338.373C368.846 323.612 180.891 328.858 77.7363 334.204C76.0775 334.812 74.4647 335.413 72.8481 336.014C170.888 340.034 352.745 345.589 582.102 343.97ZM575.228 349.588C577.44 347.806 579.744 345.881 581.971 344.074C352.476 345.693 170.562 340.124 72.6024 336.108C70.932 336.73 69.2386 337.355 67.6105 337.97C160.436 351.356 336.349 367.681 575.232 349.588H575.228ZM568.286 355.146C570.551 353.333 572.801 351.551 575.086 349.713C336.111 367.799 160.175 351.45 67.407 338.057C65.6982 338.703 64.0624 339.336 62.4151 339.975C150.014 362.72 319.918 389.78 568.278 355.136L568.286 355.146ZM561.312 360.639C563.616 358.826 565.82 357.113 568.124 355.272C319.707 389.898 149.799 362.8 62.2347 340.038C60.5221 340.694 58.8287 341.351 57.1699 341.997C139.551 374.119 303.449 411.9 561.316 360.629L561.312 360.639ZM554.454 366.041C556.685 364.283 558.909 362.543 561.155 360.761C303.264 411.99 139.363 374.181 57.0316 342.042C55.3037 342.716 53.5757 343.387 51.9284 344.047C129.083 385.559 287.006 434.002 554.454 366.041ZM547.688 371.374C549.858 369.679 552.07 367.9 554.255 366.198C286.837 434.1 128.93 385.615 51.8132 344.095C50.0584 344.79 48.3573 345.485 46.6908 346.145C118.627 397.048 270.606 456.14 547.669 371.385L547.688 371.374ZM541.057 376.585C543.157 374.956 545.35 373.188 547.466 371.537C270.464 456.206 118.501 397.079 46.5794 346.176C44.8259 346.871 43.1069 347.566 41.4225 348.261C108.133 408.586 254.225 478.305 541.038 376.61L541.057 376.585ZM534.291 381.797C536.461 380.129 538.615 378.482 540.819 376.783C254.106 478.36 108.045 408.613 41.3303 348.296C39.5717 349.015 37.8168 349.73 36.1465 350.425C97.6154 420.158 237.783 500.449 534.272 381.821L534.291 381.797ZM527.418 387.008C529.622 385.326 531.761 383.742 533.98 382.033C237.641 500.501 97.5155 420.182 36.0236 350.481C34.2342 351.224 32.5139 351.947 30.8282 352.662C87.0787 431.765 221.313 522.561 527.398 387.032L527.418 387.008ZM520.663 392.146C522.791 390.537 524.887 388.939 527.053 387.303C221.152 522.617 86.9635 431.81 30.6938 352.729C28.8891 353.493 27.165 354.229 25.4754 354.959C76.5344 443.428 204.879 544.695 520.663 392.146ZM514.086 397.131C516.121 395.606 518.198 394.005 520.249 392.462C204.714 544.733 76.4269 443.466 25.3909 355.004C23.567 355.786 21.8314 356.54 20.1495 357.276C65.9709 455.149 188.479 566.846 514.074 397.131H514.086ZM507.75 401.936C509.67 400.508 511.67 398.948 513.598 397.5C188.306 566.881 65.8672 455.17 20.042 357.321C18.1988 358.131 16.4517 358.902 14.7852 359.645C55.3958 466.951 172.124 589.081 507.738 401.936H507.75ZM500.999 406.915C503.061 405.393 505.093 403.92 507.17 402.374C171.929 589.081 55.2691 466.975 14.6661 359.694C12.7923 360.528 11.0259 361.323 9.38246 362.07C44.7862 478.756 155.682 611.187 500.988 406.915H500.999ZM493.876 412.094C495.981 410.555 498.031 409.093 500.154 407.529C155.452 611.114 44.671 478.749 9.28646 362.122C7.36652 363.001 5.58866 363.814 3.98358 364.554C34.1497 490.565 139.186 633.154 493.865 412.094H493.876ZM486.826 417.212C488.808 415.781 490.793 414.339 492.782 412.887C138.906 632.99 34.0192 490.53 3.86071 364.613C1.81021 365.569 0.0208197 366.413 -1.46138 367.122C23.5017 502.443 122.736 655.089 486.815 417.212H486.826ZM479.961 422.204C481.731 420.933 483.555 419.585 485.336 418.296C122.413 654.811 23.398 502.37 -1.56121 367.177C-4.92495 368.786 -6.72202 369.693 -6.90633 369.786C12.8576 514.422 106.366 677.056 479.961 422.204ZM-6.93705 212.297C-7.26344 214.316 -115.606 847.695 477.718 423.823C-92.9889 811.724 -7.32104 221.67 -7.05225 219.78H-6.93705C-7.02537 220.437 -17.466 292.477 -6.93705 369.661C-6.66442 369.526 -4.88655 368.619 -1.59961 367.056C-1.99384 364.888 -2.37783 362.727 -2.75158 360.573C-5.4395 361.654 -6.91785 362.272 -6.97545 362.31L-7.02153 362.216C-6.95241 362.189 -5.48558 361.567 -2.75926 360.479C-3.14325 358.245 -3.47348 356.029 -3.81139 353.812C-5.83117 354.441 -6.92169 354.799 -6.97929 354.816L-7.01769 354.719C-6.96009 354.702 -5.86573 354.34 -3.82675 353.708C-4.17234 351.419 -4.52177 349.133 -4.82896 346.864C-6.18444 347.146 -6.94089 347.312 -6.98697 347.319L-7.01001 347.219C-6.96393 347.219 -6.20747 347.045 -4.84431 346.76C-5.16302 344.394 -5.44718 342.049 -5.72749 339.711L-6.99465 339.822V339.721L-5.73517 339.607C-6.027 337.175 -6.28811 334.743 -6.53771 332.353L-6.99465 332.325V332.221L-6.5569 332.245C-12.5241 274.779 -7.10985 227.795 -7.05609 227.281H-6.94089C-6.99465 227.795 -12.4089 274.776 -6.43787 332.242L-2.40983 332.471C-2.76694 330.174 -3.10869 327.888 -3.41972 325.63C-5.74285 325.116 -6.96009 324.824 -7.01385 324.814L-6.98313 324.713C-6.93321 324.713 -5.73133 325.012 -3.43508 325.519C-3.76147 323.15 -4.0725 320.791 -4.35665 318.47C-6.07692 317.744 -6.98313 317.331 -7.02537 317.31L-6.97545 317.216C-6.93321 317.237 -6.0462 317.64 -4.37201 318.348C-4.67152 315.892 -4.92879 313.485 -5.18223 311.094C-6.38027 310.285 -6.99849 309.83 -7.03305 309.806L-6.96393 309.726C-6.93321 309.747 -6.34187 310.181 -5.19758 310.956C-5.46254 308.412 -5.70061 305.922 -5.91948 303.458C-6.6337 302.739 -7.01769 302.326 -7.04073 302.301L-6.95625 302.232C-6.93321 302.256 -6.57226 302.638 -5.93484 303.274C-6.16524 300.65 -6.37131 298.064 -6.55306 295.516C-6.85642 295.072 -7.02537 294.822 -7.04073 294.79L-6.94089 294.738C-6.94089 294.738 -6.79114 294.968 -6.5569 295.294C-9.09123 260.105 -7.05993 235.129 -7.03689 234.768H-6.92169C-6.94473 235.115 -8.67268 256.363 -6.95625 287.248H-6.92553C-6.89865 287.307 -6.20363 288.829 -4.77904 291.469C-5.05039 288.921 -5.29486 286.442 -5.51246 284.031C-6.54155 281.356 -7.01385 279.862 -7.04841 279.786L-6.94089 279.754C-6.91785 279.817 -6.48011 281.196 -5.56237 283.618C-5.80045 280.929 -6.00652 278.344 -6.1806 275.863C-6.76426 273.629 -7.03689 272.344 -7.05225 272.281L-6.93705 272.261C-6.93705 272.316 -6.70666 273.358 -6.22667 275.238C-6.42635 272.358 -6.61066 269.606 -6.71434 267.043C-6.93705 265.653 -7.04457 264.829 -7.05225 264.777H-6.93705C-6.93705 264.816 -6.87562 265.253 -6.76042 266.038C-7.43624 251.485 -7.05993 242.494 -7.05225 242.289H-6.93705C-6.93705 242.401 -7.04841 245.089 -7.04841 249.79H-6.93705C-6.93705 249.953 -6.9025 256.082 -6.05004 266.257C-5.57773 270.079 -4.87119 275.026 -3.8421 280.814C-3.02037 284.33 -2.00664 288.315 -0.770196 292.723C0.347211 295.801 1.62205 299.13 3.10425 302.715C4.47893 305.345 5.99569 308.138 7.71211 311.081C9.32487 313.301 11.0682 315.621 12.9804 318.029C14.8159 319.854 16.7896 321.746 18.9015 323.706C20.9098 325.127 23.0717 326.603 25.3295 328.111C27.5106 329.174 29.8183 330.268 32.2413 331.383C34.6144 332.123 37.0642 332.874 39.6523 333.642C42.1943 334.063 44.84 334.492 47.5893 334.927L55.9142 335.295C58.7301 335.129 61.6369 334.963 64.6346 334.798C67.5951 334.364 70.6479 333.927 73.7697 333.485C76.8646 332.79 80.0338 332.096 83.2772 331.401C86.4643 330.474 89.7218 329.548 93.0498 328.621C216.233 285.476 431.931 234.195 617.509 314.819C651.135 286.678 686.397 255.964 723.64 222.146C1258.51 -263.537 1582.62 -156.089 1752.69 -2.65439C1849.13 84.3414 1896.05 186.126 1903.81 202.955C1904.53 204.518 1904.85 205.366 1904.88 205.349L1904.95 205.425C1904.86 205.502 1904.47 204.647 1903.7 202.993C1895.95 186.168 1849.03 84.3969 1752.61 -2.58492C1582.55 -155.996 1258.51 -263.409 723.709 222.212C686.462 256.016 651.227 286.706 617.613 314.857L621.034 316.347C653.577 290.003 687.675 261.272 723.628 229.637C1271.86 -252.781 1607.44 -111.885 1774.57 43.7009C1854.85 118.43 1896.26 196.545 1903.73 210.616C1904.49 212.064 1904.85 212.849 1904.88 212.832L1904.95 212.912C1904.87 212.982 1904.44 212.189 1903.63 210.661C1896.18 196.594 1854.76 118.489 1774.5 43.7704C1607.39 -111.784 1271.87 -252.646 723.709 229.706C687.767 261.321 653.688 290.045 621.149 316.393C622.301 316.886 623.453 317.369 624.605 317.886C656.092 293.335 688.989 266.587 723.647 237.13C1291.21 -245.27 1642.15 -60.9503 1802.23 93.3533C1863.54 152.445 1896.87 207.131 1903.67 218.28C1904.49 219.621 1904.87 220.364 1904.88 220.333L1904.96 220.409C1904.88 220.479 1904.43 219.746 1903.57 218.325C1896.77 207.176 1863.45 152.497 1802.15 93.4193C1642.06 -60.8461 1291.2 -245.131 723.705 237.207C689.062 266.653 656.158 293.394 624.697 317.935C625.819 318.442 626.924 319.002 628.038 319.519C658.465 296.746 690.244 271.941 723.628 244.627C1319.29 -242.515 1691.14 1.19496 1835.88 146.167C1875.39 185.744 1897.98 217.96 1903.58 225.94C1904.44 227.177 1904.85 227.847 1904.87 227.83L1904.94 227.91C1904.86 227.972 1904.39 227.298 1903.48 225.996C1897.88 218.005 1875.3 185.803 1835.79 146.237C1691.06 1.28877 1319.29 -242.38 723.705 244.704C690.321 272.01 658.561 296.816 628.149 319.571C629.267 320.092 630.38 320.638 631.494 321.169C660.865 300.172 691.488 277.305 723.628 252.128C1361.33 -247.424 1762.76 83.8341 1873.61 199.745C1889.92 216.807 1899.95 229.206 1903.49 233.597C1904.41 234.73 1904.85 235.334 1904.87 235.334L1904.94 235.41C1904.87 235.47 1904.37 234.855 1903.41 233.673C1899.86 229.286 1889.84 216.89 1873.52 199.828C1762.69 83.921 1361.32 -247.282 723.705 252.204C691.577 277.371 660.965 300.234 631.605 321.222C632.727 321.75 633.845 322.284 634.961 322.823C663.277 303.601 692.752 282.669 723.632 259.625C1428.49 -266.397 1874.16 209.973 1903.41 241.244C1904.38 242.286 1904.84 242.842 1904.86 242.828L1904.93 242.908C1904.87 242.963 1904.34 242.4 1903.32 241.313C1874.07 210.046 1428.46 -266.258 723.705 259.705C692.84 282.739 663.377 303.663 635.077 322.875C636.198 323.417 637.327 323.918 638.448 324.487C665.711 307.037 694.023 288.037 723.632 267.122C1401.72 -211.797 1872.43 220.51 1903.33 248.887C1904.35 249.828 1904.87 250.339 1904.87 250.328L1904.94 250.405C1904.88 250.457 1904.32 249.946 1903.25 248.96C1872.35 220.586 1401.71 -211.658 723.701 267.206C694.107 288.106 665.8 307.099 638.559 324.529C639.665 325.078 640.76 325.651 641.858 326.207C668.069 310.511 695.263 293.418 723.647 274.609C1374.92 -157.177 1870.62 230.981 1903.26 256.516C1904.35 257.367 1904.88 257.829 1904.89 257.815L1904.97 257.895C1904.91 257.944 1904.32 257.485 1903.19 256.596C1870.58 231.064 1374.93 -157.045 723.728 274.696C695.374 293.495 668.196 310.577 641.996 326.263C643.09 326.818 644.173 327.409 645.264 327.972C670.446 314.02 696.522 298.827 723.663 282.113C1348.06 -102.511 1868.72 241.414 1903.16 264.152C1904.31 264.916 1904.88 265.33 1904.89 265.319L1904.97 265.396C1904.92 265.441 1904.29 265.048 1903.09 264.235C1868.67 241.497 1348.06 -102.383 723.728 282.197C696.603 298.904 670.546 314.089 645.394 328.034C646.487 328.602 647.582 329.174 648.677 329.751C672.827 317.539 697.774 304.24 723.682 289.61C1321.08 -47.8111 1866.6 251.795 1903.02 271.785C1904.26 272.479 1904.88 272.827 1904.88 272.827L1904.96 272.907C1904.91 272.949 1904.25 272.584 1902.96 271.865C1866.56 251.871 1321.1 -47.6965 723.736 289.694C697.851 304.313 672.919 317.602 648.789 329.806C649.891 330.383 650.997 330.942 652.095 331.543C675.196 321.069 699.015 309.656 723.678 297.115C1294.07 6.91336 1864.26 262.12 1902.91 279.397C1904.24 279.994 1904.92 280.317 1904.92 280.31L1905 280.387C1904.95 280.425 1904.23 280.105 1902.86 279.487C1864.23 262.2 1294.09 7.01758 723.755 297.205C699.11 309.743 675.315 321.138 652.233 331.599C653.319 332.187 654.404 332.776 655.489 333.367C677.561 324.619 700.262 315.093 723.701 304.608C1266.89 61.6588 1861.46 272.403 1902.71 287.022C1904.18 287.543 1904.92 287.825 1904.92 287.818L1905 287.898C1904.96 287.932 1904.18 287.655 1902.67 287.12C1861.42 272.5 1266.89 61.7734 723.751 304.702C700.328 315.173 677.672 324.692 655.608 333.437C656.672 334.024 657.724 334.653 658.792 335.247C679.857 328.212 701.464 320.544 723.686 312.105C1239.44 116.432 1857.85 282.662 1902.4 294.638C1904.06 295.082 1904.9 295.332 1904.9 295.332L1904.98 295.409C1904.1 295.234 1903.23 295.015 1902.37 294.752C1857.83 282.777 1239.44 116.557 723.728 312.217C701.514 320.645 679.953 328.302 658.892 335.333C659.963 335.931 661.026 336.546 662.094 337.154C682.146 331.827 702.678 325.981 723.69 319.617C1211.59 171.233 1852.84 292.942 1901.95 302.263C1903.91 302.635 1904.9 302.836 1904.9 302.83L1904.98 302.909C1904.94 302.937 1903.92 302.743 1901.93 302.367C1852.82 293.043 1211.59 171.341 723.724 319.717C702.733 326.103 682.232 331.939 662.221 337.227C663.296 337.842 664.375 338.439 665.446 339.065C684.477 335.438 703.892 331.455 723.693 327.117C1182.86 226.02 1844.65 303.292 1901.08 309.879C1903.61 310.174 1904.9 310.334 1904.9 310.33L1904.98 310.407C1904.95 310.434 1903.63 310.282 1901.07 309.983C1844.62 303.382 1182.86 226.121 723.72 327.214C703.937 331.571 684.56 335.548 665.588 339.145C666.664 339.77 667.746 340.371 668.818 341.007C686.814 339.075 705.107 336.944 723.697 334.614C1151.36 280.744 1826.51 313.971 1898.65 317.518L1904.9 317.827L1904.98 317.907C1904.95 317.932 1902.79 317.827 1898.65 317.622C1826.52 314.075 1151.37 280.849 723.713 334.715C705.158 337.054 686.909 339.182 668.964 341.097C669.989 341.712 671.003 342.376 672.036 342.994C689.059 342.744 706.286 342.45 723.716 342.112C1062.58 335.511 1613.03 328.875 1821.44 326.363C1874.07 325.728 1904.88 325.356 1904.92 325.321L1904.99 325.397C1904.92 325.453 1874.1 325.825 1821.44 326.461C1613.05 328.972 1062.59 335.611 723.716 342.209C706.335 342.545 689.163 342.839 672.201 343.091C673.226 343.717 674.247 344.359 675.273 344.995C691.305 346.415 707.456 347.952 723.724 349.605C856.223 363.102 1031.92 365.732 1207.2 363.241C1556.83 358.266 1904.78 332.926 1904.9 332.818L1904.98 332.898C1904.85 333.006 1556.84 358.37 1207.19 363.342C1031.91 365.836 856.219 363.206 723.697 349.706C707.501 348.057 691.421 346.527 675.457 345.117C676.49 345.752 677.523 346.385 678.552 347.034C693.578 350.126 708.635 353.485 723.72 357.109C846.846 386.831 1019.23 394.87 1194.32 392.382C1544.17 387.407 1904.8 340.402 1904.9 340.322L1904.98 340.399C1904.88 340.482 1544.19 387.511 1194.33 392.483C1019.23 394.974 846.816 386.924 723.693 357.207C708.705 353.591 693.744 350.255 678.809 347.198C679.877 347.865 680.952 348.5 682.012 349.181C695.973 353.913 709.879 359.056 723.728 364.61C837.584 410.555 1006.82 424.018 1181.85 421.513C1531.77 416.538 1904.84 347.861 1904.9 347.82L1904.98 347.899C1904.91 347.952 1531.8 416.642 1181.86 421.617C1006.81 424.108 837.554 410.656 723.682 364.704C709.989 359.18 696.219 354.118 682.407 349.418C683.332 350.026 684.25 350.672 685.179 351.28C698.17 357.665 711.045 364.558 723.74 372.104C828.35 434.266 994.475 453.124 1169.48 450.619C1519.42 445.661 1904.83 355.341 1904.87 355.313L1904.94 355.39C1904.91 355.417 1519.42 445.766 1169.44 450.741C994.421 453.232 828.269 434.371 723.632 372.194C711.175 364.791 698.546 358.016 685.798 351.728C698.984 360.391 711.637 369.7 723.701 379.611C1009.85 614.775 1902.31 363.516 1904.88 362.8L1904.92 362.901C1902.34 363.616 1009.84 614.893 723.624 379.684C711.361 369.609 698.49 360.155 685.072 351.367C682.81 350.248 680.56 349.105 678.291 348.028C675.731 347.173 673.171 346.335 670.611 345.513C668.054 345.002 665.5 344.512 662.931 344.019L654.81 343.324L646.228 343.46C643.309 343.751 640.395 344.041 637.484 344.328C634.374 344.873 631.298 345.395 628.219 345.919C624.912 346.725 621.633 347.503 618.362 348.278C614.906 349.32 611.484 350.363 608.071 351.405C604.638 352.635 601.182 353.899 597.776 355.098C594.635 356.376 591.512 357.634 588.407 358.871C584.655 360.573 580.988 362.168 577.302 363.78C573.347 365.732 569.441 367.601 565.54 369.491C561.47 371.649 557.403 373.803 553.368 375.915C549.589 378.045 545.784 380.212 542.048 382.283C538.72 384.27 535.417 386.215 532.141 388.116C528.09 390.652 524.154 393.025 520.206 395.412C515.683 398.361 511.259 401.165 506.824 403.982C502.217 407.109 497.609 410.18 493.051 413.22C488.662 416.312 484.261 419.411 479.995 422.329C-115.99 849.474 -7.37864 214.305 -7.05225 212.283L-6.93705 212.297Z" fill="white"/>
</svg>
