<svg width="840" height="614" viewBox="0 0 840 614" fill="none" xmlns="http://www.w3.org/2000/svg">
<path d="M-3.87738 618.541C-4.6226 619.14 -5.3899 619.761 -6.14953 620.377C-6.95173 621.086 -7.73345 621.76 -8.53079 622.475C-6.98297 621.17 -5.44202 619.877 -3.87659 618.548M4.93116 611.119C3.50833 612.221 2.08369 613.318 0.657052 614.41C-0.930809 615.829 -2.45902 617.129 -4.04053 618.533C-2.61376 617.381 -1.18665 616.232 0.243261 615.072C1.82638 613.719 3.35131 612.464 4.93036 611.112L4.93116 611.119ZM9.42099 607.687L7.02014 609.534C6.17149 610.263 5.35294 610.933 4.50269 611.647C6.11383 610.328 7.74253 609.021 9.39898 607.671L9.42099 607.687ZM12.0609 605.101L6.993 608.81C5.32133 610.316 3.66568 611.747 2.02124 613.242C3.65159 611.987 5.28235 610.735 6.92312 609.464C8.62849 607.969 10.2982 606.592 12.0388 605.085L12.0609 605.101ZM17.7897 600.912C16.2135 602.07 14.6513 603.208 13.0875 604.368C11.7141 605.562 10.3603 606.713 9.01296 607.886C10.4381 606.793 11.8596 605.703 13.2867 604.592C14.768 603.309 16.2324 602.167 17.7677 600.896L17.7897 600.912ZM22.3698 597.562C21.2742 598.369 20.1962 599.153 19.115 599.944C18.4828 600.465 17.8378 601.017 17.2097 601.538C18.8977 600.217 20.5971 598.925 22.3558 597.545L22.3698 597.562ZM17.7771 600.062C16.107 601.215 14.4226 602.385 12.7557 603.531C11.0964 605.039 9.39675 606.621 7.7487 608.121C9.50156 606.848 11.2536 605.569 13.005 604.281C14.5552 602.888 16.1795 601.431 17.763 600.045L17.7771 600.062ZM23.3267 596.234C21.7388 597.334 20.1566 598.426 18.5804 599.511C17.0707 600.83 15.5237 602.216 14.0208 603.523C15.6916 602.304 17.3516 601.096 19.0325 599.857C20.4504 598.662 21.8904 597.409 23.3127 596.217L23.3267 596.234ZM28.5181 592.651C27.0978 593.641 25.7023 594.599 24.2956 595.565C22.988 596.657 21.6547 597.81 20.3578 598.889C21.8591 597.787 23.3624 596.703 24.8965 595.569C26.0891 594.611 27.303 593.589 28.504 592.634L28.5181 592.651ZM32.7328 589.741C31.735 590.442 30.7617 591.108 29.7812 591.781C28.8151 592.549 27.8257 593.362 26.8676 594.129C28.8009 592.677 30.7512 591.209 32.7187 589.724L32.7328 589.741ZM-552.855 521.199C-552.845 521.29 -552.484 523.387 -551.665 527.092C-552.955 520.109 -553.577 515.468 -553.769 513.948C-553.538 516.04 -553.251 518.424 -552.876 521.191L-552.855 521.199ZM23.8464 594.694C22.1876 595.765 20.5076 596.864 18.8516 597.924C17.0075 599.596 15.1671 601.301 13.3499 602.959C15.0544 601.787 16.7729 600.595 18.4846 599.415C20.2605 597.861 22.0605 596.267 23.8464 594.694ZM29.2942 591.156L24.4999 594.254C22.7617 595.782 21.0134 597.33 19.2855 598.842C20.9219 597.714 22.5546 596.591 24.1854 595.449C25.8896 594.053 27.6005 592.609 29.2958 591.17L29.2942 591.156ZM34.5088 587.783C33.0139 588.759 31.5363 589.708 30.0518 590.668C28.4219 592.038 26.7863 593.429 25.1668 594.783C26.6753 593.746 28.1854 592.724 29.6914 591.666C31.3046 590.402 32.908 589.087 34.5116 587.809L34.5088 587.783ZM39.2309 584.729C37.949 585.576 36.6939 586.371 35.4452 587.188C33.9543 588.384 32.4658 589.602 30.9741 590.791C32.1655 589.969 33.351 589.166 34.5708 588.309C36.0985 587.153 37.6756 585.929 39.2325 584.744L39.2309 584.729ZM42.6383 582.518C41.8815 583.013 41.17 583.476 40.4464 583.942C39.1929 584.899 37.9253 585.875 36.675 586.825C38.636 585.441 40.6472 583.96 42.6091 582.547L42.6383 582.518ZM-549.169 538.72C-548.74 540.068 -548.259 541.52 -547.715 543.104C-548.761 539.439 -549.61 536.192 -550.318 533.345C-549.968 535.042 -549.587 536.839 -549.169 538.72ZM-551.377 531.355C-550.989 532.78 -550.413 534.798 -549.582 537.437C-550.127 534.928 -550.59 532.644 -551.011 530.488C-551.772 527.269 -552.272 524.864 -552.584 523.287C-552.236 525.778 -551.844 528.451 -551.377 531.355ZM30.1407 589.157C28.4923 590.139 26.824 591.16 25.1952 592.137C23.2397 593.938 21.3111 595.689 19.3652 597.468C21.0476 596.39 22.7445 595.259 24.4357 594.188C26.3279 592.511 28.2225 590.856 30.1407 589.157ZM35.5054 585.933L30.6887 588.829C28.8045 590.505 26.946 592.12 25.0711 593.769L29.9953 590.598C31.8161 589.046 33.6506 587.507 35.5054 585.933ZM40.7128 582.789C39.1923 583.717 37.6698 584.626 36.1164 585.55C34.3097 587.082 32.5233 588.579 30.727 590.095C32.2683 589.099 33.7993 588.118 35.351 587.107C37.1414 585.683 38.9192 584.257 40.7144 582.804L40.7128 582.789ZM45.6599 579.824C44.2424 580.693 42.8521 581.514 41.4479 582.356C39.7201 583.758 38.0088 585.125 36.291 586.507C37.65 585.623 39.0009 584.777 40.3799 583.854L45.6599 579.824ZM50.3728 576.944C49.0866 577.739 47.8047 578.525 46.5273 579.303C44.8757 580.586 43.2317 581.828 41.5813 583.086C42.9282 582.203 44.2932 581.263 45.6421 580.362C47.2063 579.242 48.777 578.108 50.3543 576.96L50.3728 576.944ZM54.8457 574.13C53.8583 574.742 52.865 575.373 51.8713 576C50.8198 576.766 49.7706 577.517 48.7224 578.275L54.8457 574.13ZM-544.854 552.156C-544.293 553.372 -543.691 554.643 -543.05 555.969C-544.282 552.893 -545.378 550.022 -546.335 547.379C-545.874 548.91 -545.376 550.518 -544.854 552.156ZM-547.34 546.579C-546.727 548.02 -546.024 549.606 -545.244 551.311C-545.875 549.262 -546.475 547.321 -547.033 545.429C-547.723 543.479 -548.336 541.675 -548.874 540.031C-548.402 542.123 -547.891 544.306 -547.34 546.579ZM-549.809 540.494C-549.246 541.922 -548.548 543.717 -547.632 545.881C-548.237 543.378 -548.782 541.016 -549.288 538.744C-550.116 536.164 -550.749 534.035 -551.202 532.433C-550.787 534.975 -550.318 537.68 -549.809 540.494ZM36.5641 583.504C34.9306 584.4 33.277 585.335 31.6503 586.219C29.6041 588.119 27.6282 589.882 25.5917 591.759C27.2557 590.771 28.9357 589.745 30.6025 588.747C32.6061 586.976 34.5513 585.301 36.5641 583.504ZM41.8415 580.591L37.0307 583.247C35.0439 585.022 33.124 586.67 31.1505 588.418C32.7796 587.445 34.4094 586.467 36.0399 585.482C37.9833 583.828 39.8839 582.264 41.8415 580.591ZM47.011 577.73C45.4557 578.599 43.9063 579.449 42.3497 580.307C40.4299 581.954 38.5626 583.489 36.6524 585.113C38.2202 584.173 39.7771 583.245 41.3514 582.289C43.2467 580.751 45.0908 579.3 47.011 577.73ZM52.0138 574.975C50.5277 575.811 49.0654 576.603 47.5894 577.42C45.729 578.943 43.9181 580.365 42.0637 581.869C43.5188 580.974 44.9607 580.143 46.4355 579.243C48.3008 577.8 50.1368 576.423 52.013 574.968L52.0138 574.975ZM57.0325 572.145C55.5769 572.974 54.1283 573.793 52.6868 574.603C50.8744 576.011 49.1053 577.333 47.303 578.721C48.7902 577.823 50.2871 576.865 51.7759 575.945C53.5329 574.66 55.2634 573.431 57.0317 572.138L57.0325 572.145ZM62.2646 569.116C60.8528 569.925 59.4201 570.766 58.0011 571.583C56.4095 572.75 54.8553 573.85 53.2743 575.001C54.7134 574.108 56.1566 573.178 57.5913 572.282C59.1526 571.21 60.6944 570.181 62.2638 569.109L62.2646 569.116ZM66.6765 566.559L63.6488 568.313C62.566 569.053 61.5114 569.753 60.4378 570.503C62.5107 569.177 64.5828 567.88 66.6757 566.551L66.6765 566.559ZM-539.925 563.186C-539.267 564.214 -538.555 565.299 -537.83 566.394C-539.235 563.811 -540.519 561.355 -541.682 559.026C-541.121 560.379 -540.536 561.765 -539.925 563.186ZM-542.722 558.646C-541.977 559.881 -541.186 561.167 -540.326 562.529C-541.064 560.804 -541.772 559.124 -542.43 557.508C-543.208 555.935 -543.915 554.449 -544.58 553.022C-544.001 554.852 -543.375 556.732 -542.722 558.646ZM-545.467 553.956C-544.736 555.252 -543.91 556.67 -543.008 558.182C-543.704 556.117 -544.359 554.12 -544.972 552.191C-545.781 550.445 -546.525 548.776 -547.168 547.294C-546.639 549.436 -546.072 551.657 -545.467 553.956ZM-548.171 548.94C-547.506 550.224 -546.687 551.764 -545.682 553.554C-546.317 551.158 -546.905 548.843 -547.446 546.609C-548.371 544.443 -549.103 542.626 -549.673 541.136C-549.221 543.641 -548.72 546.242 -548.171 548.94ZM42.9029 577.856C41.2794 578.659 39.6327 579.509 38.0124 580.305C35.9867 582.206 33.9971 584.029 31.9843 585.9C33.6222 585.007 35.2873 584.067 36.9309 583.151C38.9465 581.38 40.9077 579.666 42.9029 577.856ZM48.1004 575.249C46.4934 576.054 44.8795 576.871 43.2757 577.668C41.2977 579.45 39.3638 581.154 37.3991 582.909L42.2596 580.225C44.2327 578.546 46.1461 576.951 48.1165 575.247L48.1004 575.249ZM53.2366 572.674C51.6532 573.473 50.0807 574.26 48.4985 575.033C46.5702 576.714 44.6861 578.28 42.7699 579.923C44.3453 579.052 45.9138 578.192 47.4964 577.313C49.4382 575.755 51.3152 574.27 53.2527 572.673L53.2366 572.674ZM58.2794 570.136C56.7433 570.922 55.2032 571.672 53.6655 572.443C51.7766 574.003 49.9422 575.468 48.0825 576.998C49.5889 576.164 51.0785 575.361 52.6026 574.503C54.5413 573.026 56.3772 571.649 58.2794 570.136ZM63.3984 567.515L58.7677 569.891C56.8996 571.345 55.1097 572.699 53.2637 574.132C54.7905 573.263 56.3591 572.366 57.9088 571.483C59.7733 570.143 61.5588 568.896 63.4156 567.524L63.3984 567.515ZM68.7138 564.726C67.1525 565.541 65.5739 566.383 64.0125 567.198C62.2848 568.489 60.6011 569.666 58.8781 570.928C60.4335 570.023 62.0009 569.116 63.5562 568.21C65.3044 567.029 66.9852 565.937 68.7302 564.728L68.7138 564.726ZM73.8139 562.045L69.473 564.326C67.9429 565.387 66.4533 566.374 64.9456 567.418C66.3644 566.598 67.7854 565.774 69.2088 564.947C70.7673 563.96 72.2734 563.048 73.8304 562.047L73.8139 562.045ZM78.1545 559.76C77.0662 560.339 75.9878 560.899 74.9103 561.465C73.8729 562.138 72.855 562.768 71.8168 563.433C73.939 562.222 76.0383 561.025 78.1709 559.762L78.1545 559.76ZM-534.441 572.216C-533.664 573.111 -532.876 574.007 -532.035 574.939C-533.626 572.758 -535.083 570.665 -536.453 568.65C-535.796 569.826 -535.143 571.002 -534.441 572.216ZM-537.476 568.646C-536.63 569.653 -535.744 570.704 -534.8 571.79C-535.634 570.336 -536.45 568.899 -537.212 567.511C-538.066 566.24 -538.867 565.015 -539.647 563.827C-538.963 565.396 -538.241 567.008 -537.476 568.646ZM-540.502 564.942C-539.644 566.022 -538.737 567.148 -537.75 568.334C-538.539 566.586 -539.302 564.897 -540.016 563.244C-540.923 561.82 -541.747 560.498 -542.527 559.197C-541.909 561.048 -541.226 562.97 -540.519 564.929L-540.502 564.942ZM-543.505 561.034C-542.672 562.153 -541.757 563.348 -540.738 564.641C-541.467 562.615 -542.16 560.639 -542.816 558.715C-543.745 557.169 -544.581 555.734 -545.32 554.406C-544.767 556.55 -544.168 558.755 -543.523 561.021L-543.505 561.034ZM-546.479 556.913C-545.708 558.017 -544.796 559.297 -543.71 560.755C-544.369 558.437 -544.987 556.18 -545.565 553.985C-546.574 552.195 -547.402 550.653 -548.106 549.347C-547.599 551.802 -547.07 554.32 -546.479 556.913ZM49.0119 572.26C47.4261 572.963 45.8171 573.713 44.2366 574.391C42.2746 576.244 40.2549 578.2 38.3026 580.03C39.9301 579.227 41.5849 578.376 43.2156 577.565C45.117 575.861 47.0961 574.016 49.0119 572.26ZM54.0808 569.993C52.5034 570.7 50.9189 571.414 49.3407 572.113C47.4381 573.843 45.4817 575.674 43.5887 577.38L48.4403 574.947C50.2976 573.358 52.217 571.634 54.0824 570.008L54.0808 569.993ZM59.1075 567.75C57.5618 568.449 56.0049 569.145 54.4367 569.837C52.5863 571.45 50.6849 573.154 48.8481 574.744L53.6231 572.353C55.4238 570.876 57.2916 569.272 59.1052 567.765L59.1075 567.75ZM64.0641 565.533C62.5184 566.232 61.0136 566.897 59.4863 567.58C57.6876 569.074 55.8459 570.657 54.0572 572.132C55.5941 571.353 57.1338 570.6 58.7152 569.783C60.4722 568.425 62.2926 566.943 64.0617 565.548L64.0641 565.533ZM69.0323 563.274C67.5074 563.978 65.9925 564.663 64.4737 565.348C62.7311 566.726 60.9416 568.194 59.205 569.553C60.7832 568.743 62.3758 567.918 63.9648 567.096C65.6316 565.877 67.3542 564.538 69.0299 563.289L69.0323 563.274ZM74.1753 560.871C72.6316 561.588 71.0911 562.335 69.5469 563.048C67.9086 564.268 66.2305 565.569 64.599 566.777C66.2104 565.938 67.8352 565.073 69.4422 564.231C70.9827 563.154 72.6014 561.977 74.1721 560.879L74.1753 560.871ZM79.2169 558.505C77.7281 559.205 76.2357 559.909 74.7501 560.602C73.244 561.66 71.6835 562.776 70.1773 563.834C71.7375 563.021 73.3009 562.2 74.8675 561.371C76.2781 560.441 77.7914 559.448 79.2137 558.513L79.2169 558.505ZM84.0272 556.249C82.6546 556.899 81.2885 557.535 79.9224 558.17C78.5835 559.052 77.2085 559.975 75.8696 560.82C77.3307 560.053 78.7846 559.294 80.255 558.5C81.4968 557.805 82.7957 557.001 84.024 556.256L84.0272 556.249ZM88.1078 554.33C87.056 554.835 86.0154 555.295 84.9756 555.799C83.9522 556.415 82.9003 557.067 81.8806 557.679C83.9479 556.584 86.0228 555.472 88.1051 554.341L88.1078 554.33ZM-528.394 579.621C-527.523 580.34 -526.661 581.059 -525.719 581.8C-527.475 580.004 -529.115 578.269 -530.664 576.582C-529.933 577.588 -529.185 578.592 -528.394 579.621ZM-531.704 576.833C-530.763 577.639 -529.792 578.457 -528.769 579.31C-529.693 578.101 -530.601 576.902 -531.456 575.734C-532.381 574.705 -533.278 573.71 -534.141 572.726C-533.364 574.072 -532.547 575.443 -531.704 576.833ZM-535.001 573.944C-534.046 574.796 -533.042 575.679 -531.986 576.592C-532.866 575.129 -533.731 573.683 -534.544 572.272C-535.524 571.154 -536.442 570.073 -537.336 569.03C-536.583 570.636 -535.8 572.285 -535.001 573.944ZM-538.268 570.957C-537.322 571.84 -536.302 572.774 -535.226 573.742C-536.047 572.034 -536.846 570.345 -537.596 568.699C-538.591 567.51 -539.531 566.343 -540.408 565.276C-539.721 567.124 -539.003 569.034 -538.267 570.961L-538.268 570.957ZM-541.514 567.828C-540.6 568.752 -539.589 569.716 -538.462 570.777C-539.219 568.805 -539.944 566.866 -540.628 564.974C-541.669 563.665 -542.585 562.463 -543.436 561.331C-542.832 563.442 -542.191 565.609 -541.513 567.832L-541.514 567.828ZM-544.735 564.554C-543.877 565.461 -542.853 566.504 -541.696 567.65C-542.376 565.41 -543.024 563.215 -543.64 561.063C-544.725 559.608 -545.65 558.326 -546.43 557.212C-545.906 559.606 -545.341 562.055 -544.735 564.557L-544.735 564.554ZM-547.933 561.056C-547.352 561.726 -546.345 562.87 -544.899 564.392C-545.503 561.86 -546.074 559.384 -546.612 556.964C-548.213 554.663 -549.116 553.203 -549.394 552.749C-548.945 555.445 -548.458 558.214 -547.933 561.056ZM55.2582 566.582C53.7012 567.179 52.1463 567.795 50.5882 568.382C48.5465 570.321 46.488 572.292 44.4587 574.197C46.0452 573.501 47.6696 572.742 49.2645 572.048C51.2518 570.239 53.2625 568.388 55.2562 566.564L55.2582 566.582ZM60.2022 564.656C58.6458 565.257 57.0909 565.873 55.5336 566.467C53.5512 568.282 51.5515 570.126 49.5804 571.896C51.1621 571.193 52.7584 570.473 54.3398 569.766C56.2957 568.079 58.2664 566.341 60.2002 564.638L60.2022 564.656ZM65.1191 562.74L60.5133 564.534C58.5811 566.215 56.6348 567.953 54.7137 569.626C56.2811 568.927 57.8483 568.227 59.4154 567.525C61.3011 565.937 63.2153 564.312 65.1171 562.722L65.1191 562.74ZM69.9814 560.846C68.4614 561.447 66.959 562.023 65.4458 562.613C63.5628 564.19 61.6631 565.798 59.7942 567.355C61.3407 566.663 62.8575 565.996 64.4068 565.293C66.2521 563.816 68.1262 562.306 69.9794 560.828L69.9814 560.846ZM74.8453 558.929C73.3342 559.536 71.8362 560.116 70.3354 560.707C68.5006 562.169 66.6453 563.666 64.8205 565.108C66.3658 564.405 67.9111 563.702 69.4552 562.989C71.2415 561.639 73.0486 560.257 74.8433 558.911L74.8453 558.929ZM79.8456 556.886C78.3191 557.503 76.7719 558.151 75.2491 558.763C73.4884 560.088 71.7074 561.448 69.9531 562.758C71.5237 562.026 73.1114 561.267 74.682 560.536C76.3905 559.327 78.1271 558.078 79.8436 556.868L79.8456 556.886ZM84.7761 554.874C83.2857 555.486 81.7938 556.096 80.3002 556.704C78.6254 557.887 76.9136 559.104 75.2572 560.271L79.8595 558.115C81.4846 557.032 83.1394 555.925 84.7737 554.852L84.7761 554.874ZM89.5864 552.912L85.316 554.657C83.7346 555.694 82.14 556.758 80.5654 557.783C82.0157 557.102 83.4631 556.432 84.9203 555.739C86.4592 554.795 88.0318 553.825 89.584 552.89L89.5864 552.912ZM94.1052 551.066C92.8056 551.606 91.5273 552.117 90.2221 552.643C88.767 553.538 87.2957 554.434 85.8454 555.299C87.0913 554.714 88.3272 554.148 89.5871 553.543C91.0899 552.713 92.6068 551.862 94.1028 551.044L94.1052 551.066ZM98.0496 549.419L94.9943 550.703C93.766 551.375 92.533 552.076 91.3067 552.729C93.5619 551.621 95.8104 550.488 98.0472 549.397L98.0496 549.419ZM-521.819 585.524C-520.883 586.06 -519.94 586.598 -518.954 587.15C-520.863 585.728 -522.675 584.338 -524.388 582.978C-523.573 583.82 -522.724 584.674 -521.819 585.524ZM-525.38 583.44C-524.346 584.06 -523.304 584.679 -522.206 585.292C-523.203 584.301 -524.194 583.338 -525.135 582.385C-526.158 581.569 -527.135 580.77 -528.09 579.987C-527.241 581.131 -526.318 582.288 -525.4 583.442L-525.38 583.44ZM-528.919 581.297C-527.874 581.942 -526.791 582.597 -525.658 583.276C-526.603 582.066 -527.547 580.863 -528.467 579.691C-529.529 578.817 -530.536 577.967 -531.504 577.134C-530.708 578.503 -529.824 579.896 -528.939 581.3L-528.919 581.297ZM-532.438 579.08C-531.393 579.75 -530.295 580.441 -529.146 581.154C-530.05 579.719 -530.942 578.294 -531.786 576.897C-532.862 575.971 -533.884 575.075 -534.853 574.211C-534.101 575.809 -533.294 577.427 -532.458 579.082L-532.438 579.08ZM-535.937 576.786C-534.907 577.476 -533.801 578.199 -532.63 578.954C-533.476 577.282 -534.295 575.629 -535.075 574.008C-536.169 573.027 -537.197 572.091 -538.152 571.198C-537.471 573.031 -536.725 574.898 -535.961 576.789L-535.937 576.786ZM-539.421 574.399C-538.41 575.106 -537.308 575.866 -536.116 576.666C-536.887 574.755 -537.639 572.87 -538.362 571.019C-539.489 569.962 -540.497 568.986 -541.436 568.055C-540.806 570.139 -540.142 572.254 -539.445 574.402L-539.421 574.399ZM-542.913 571.881C-541.953 572.594 -540.86 573.387 -539.61 574.27C-540.312 572.101 -540.984 569.972 -541.625 567.885C-542.777 566.746 -543.815 565.693 -544.681 564.786C-544.119 567.115 -543.529 569.48 -542.913 571.881ZM-546.336 569.238C-545.566 569.854 -544.491 570.701 -543.045 571.782C-543.671 569.348 -544.265 566.955 -544.827 564.604C-546.25 563.109 -547.255 561.98 -547.873 561.27C-547.417 563.879 -546.905 566.535 -546.336 569.238ZM61.6326 560.743C60.1131 561.237 58.5862 561.74 57.077 562.218C54.9743 564.231 52.9018 566.185 50.8164 568.169C52.374 567.579 53.9282 566.956 55.4851 566.358C57.5224 564.489 59.5553 562.653 61.6126 560.745L61.6326 560.743ZM66.4565 559.161C64.9409 559.655 63.4108 560.165 61.8952 560.659C59.8475 562.544 57.8431 564.38 55.7929 566.244C57.3495 565.642 58.9043 565.027 60.4604 564.422C62.438 562.673 64.4252 560.938 66.4364 559.163L66.4565 559.161ZM71.2606 557.584L66.7306 559.072C64.7346 560.837 62.7582 562.56 60.7719 564.303L65.3969 562.5C67.3304 560.867 69.273 559.243 71.2406 557.587L71.2606 557.584ZM76.0291 556.016C74.5303 556.515 73.042 556.999 71.5504 557.49C69.5982 559.137 67.6663 560.749 65.7236 562.373C67.2484 561.779 68.7588 561.201 70.2905 560.595C72.1839 559.075 74.09 557.562 76.0091 556.018L76.0291 556.016ZM80.7888 554.44C79.2984 554.943 77.8221 555.425 76.3385 555.915C74.4303 557.447 72.539 558.948 70.6445 560.457C72.1604 559.856 73.6773 559.263 75.2041 558.65C77.0422 557.255 78.9006 555.86 80.7683 554.439L80.7888 554.44ZM85.6554 552.769C84.1539 553.28 82.6346 553.815 81.1327 554.322C79.2834 555.726 77.4514 557.103 75.6118 558.484C77.1659 557.861 78.7169 557.209 80.271 556.586C82.0546 555.322 83.8427 554.051 85.6355 552.771L85.6554 552.769ZM90.4829 551.109C89.0014 551.618 87.5126 552.135 86.0347 552.639C84.2552 553.904 82.4858 555.149 80.7167 556.398C82.2315 555.786 83.7528 555.159 85.2708 554.54L90.4829 551.109ZM95.237 549.484C93.7915 549.988 92.3484 550.478 90.9062 550.975C89.2009 552.102 87.502 553.215 85.8076 554.331C87.2715 553.736 88.7313 553.142 90.2061 552.535C91.8576 551.521 93.5275 550.501 95.2158 549.475L95.237 549.484ZM99.8615 547.898C98.4746 548.381 97.1253 548.838 95.7336 549.315C94.1066 550.307 92.4827 551.29 90.8619 552.264C92.2288 551.71 93.5809 551.168 94.9578 550.594C96.5735 549.696 98.201 548.794 99.8403 547.889L99.8615 547.898ZM104.439 546.291L100.472 547.698L95.8401 550.206C97.201 549.634 98.5831 549.033 99.94 548.462C101.429 547.742 102.922 547.012 104.417 546.272L104.439 546.291ZM108.627 544.757C107.546 545.141 106.454 545.537 105.373 545.928L101.878 547.642L108.627 544.757ZM-514.829 590.042C-513.856 590.405 -512.842 590.77 -511.823 591.139C-513.838 590.084 -515.779 589.046 -517.623 588.031C-516.71 588.694 -515.763 589.367 -514.829 590.042ZM-518.636 588.627C-517.522 589.055 -516.412 589.483 -515.248 589.92C-516.301 589.162 -517.337 588.414 -518.334 587.691C-519.452 587.08 -520.498 586.461 -521.564 585.845C-520.589 586.743 -519.611 587.663 -518.618 588.611L-518.636 588.627ZM-522.405 587.157C-521.277 587.605 -520.123 588.057 -518.916 588.522C-519.95 587.535 -520.96 586.579 -521.933 585.625C-523.077 584.973 -524.161 584.333 -525.225 583.705C-524.298 584.825 -523.351 585.976 -522.387 587.14L-522.405 587.157ZM-526.159 585.644C-525.029 586.106 -523.856 586.582 -522.63 587.068C-523.616 585.877 -524.574 584.7 -525.503 583.538C-526.658 582.854 -527.758 582.186 -528.824 581.529C-527.951 582.874 -527.056 584.24 -526.141 585.627L-526.159 585.644ZM-529.902 584.075C-528.774 584.556 -527.596 585.05 -526.355 585.562C-527.281 584.152 -528.181 582.765 -529.051 581.389C-530.212 580.67 -531.322 579.973 -532.381 579.297C-531.576 580.858 -530.744 582.445 -529.884 584.058L-529.902 584.075ZM-533.627 582.452C-532.515 582.946 -531.332 583.463 -530.077 584.002C-530.939 582.37 -531.772 580.758 -532.578 579.168C-533.757 578.414 -534.864 577.685 -535.906 576.992C-535.163 578.775 -534.397 580.589 -533.609 582.435L-533.627 582.452ZM-537.343 580.766C-536.257 581.27 -535.061 581.814 -533.79 582.378C-534.588 580.509 -535.352 578.673 -536.081 576.872C-537.277 576.071 -538.394 575.292 -539.403 574.599C-538.727 576.613 -538.038 578.662 -537.325 580.749L-537.343 580.766ZM-541.04 578.997C-539.989 579.513 -538.836 580.068 -537.493 580.695C-538.215 578.594 -538.907 576.523 -539.57 574.482C-540.828 573.597 -541.914 572.806 -542.882 572.087C-542.276 574.344 -541.669 576.641 -541.021 578.981L-541.04 578.997ZM-544.727 577.129C-543.827 577.602 -542.653 578.203 -541.188 578.94C-541.853 576.591 -542.445 574.278 -543.034 571.994C-544.458 570.932 -545.551 570.069 -546.337 569.451C-545.81 571.948 -545.276 574.506 -544.709 577.112L-544.727 577.129ZM68.0392 554.864C66.5525 555.252 65.0617 555.64 63.5823 556.02C61.4295 558.093 59.3504 560.026 57.2145 562.067C58.7313 561.584 60.2658 561.077 61.7894 560.582C63.9073 558.635 65.9454 556.809 68.0577 554.847L68.0392 554.864ZM72.7411 553.611C71.2544 553.999 69.7569 554.399 68.2737 554.783C66.1727 556.736 64.1366 558.543 62.05 560.48C63.5696 559.986 65.1036 559.475 66.6269 558.977C68.695 557.166 70.6962 555.448 72.7616 553.612L72.7411 553.611ZM77.429 552.378L72.9852 553.543C70.9315 555.374 68.9415 557.084 66.901 558.888L71.4427 557.395C73.4711 555.703 75.4317 554.096 77.4494 552.379L77.429 552.378ZM82.0948 551.128C80.6209 551.522 79.1538 551.905 77.6831 552.291C75.6747 553.981 73.7272 555.598 71.7425 557.282C73.246 556.789 74.7384 556.305 76.2452 555.805C78.2195 554.247 80.1434 552.746 82.1173 551.148L82.0948 551.128ZM86.7525 549.88C85.283 550.277 83.8276 550.655 82.3654 551.044C80.4027 552.633 78.4897 554.122 76.5406 555.687C78.0357 555.192 79.5237 554.705 81.0297 554.197C82.9703 552.775 84.85 551.39 86.7766 549.914L86.7525 549.88ZM91.4781 548.584C90.0047 548.982 88.5095 549.404 87.0409 549.808C85.129 551.271 83.2642 552.644 81.3644 554.105C82.878 553.593 84.4109 553.035 85.9261 552.537C87.8138 551.224 89.6418 549.958 91.5102 548.617L91.4781 548.584ZM96.2036 547.288C94.7426 547.688 93.2743 548.096 91.8145 548.507C89.9693 549.837 88.1597 551.087 86.3201 552.395C87.8176 551.884 89.322 551.362 90.8192 550.848C92.6331 549.675 94.4053 548.529 96.2157 547.324L96.2036 547.288ZM100.874 546.006L96.5425 547.196C94.755 548.388 93.0088 549.513 91.2477 550.687C92.7136 550.184 94.176 549.685 95.6491 549.174C97.4057 548.143 99.1506 547.117 100.886 546.041L100.874 546.006ZM105.481 544.741C104.064 545.136 102.673 545.51 101.268 545.9C99.5427 546.956 97.8438 547.959 96.1413 549.002C97.5563 548.515 98.9609 548.045 100.386 547.542C102.1 546.637 103.781 545.732 105.493 544.776L105.481 544.741ZM110.111 543.492C108.722 543.884 107.326 544.284 105.942 544.686C104.282 545.604 102.652 546.489 101 547.405C102.425 546.899 103.864 546.377 105.294 545.874C106.911 545.046 108.505 544.275 110.111 543.492ZM114.696 542.179L110.712 543.319C109.205 544.069 107.725 544.783 106.225 545.522L110.307 544.058C111.781 543.407 113.235 542.799 114.706 542.159L114.696 542.179ZM118.777 540.994L115.54 541.92C114.378 542.416 113.215 542.911 112.053 543.406C114.305 542.607 116.542 541.81 118.789 540.993L118.777 540.994ZM-507.413 593.269C-506.397 593.473 -505.339 593.679 -504.278 593.885C-506.347 593.188 -508.354 592.499 -510.272 591.815C-509.338 592.296 -508.388 592.782 -507.413 593.269ZM-511.41 592.451C-510.252 592.69 -509.058 592.926 -507.84 593.184C-508.945 592.623 -510.012 592.073 -511.066 591.529C-512.238 591.107 -513.379 590.691 -514.49 590.28C-513.486 590.999 -512.465 591.723 -511.41 592.451ZM-515.395 591.606C-514.185 591.866 -512.972 592.128 -511.693 592.394C-512.787 591.634 -513.839 590.884 -514.883 590.14C-516.101 589.687 -517.258 589.246 -518.41 588.808C-517.423 589.734 -516.428 590.663 -515.395 591.603L-515.395 591.606ZM-519.366 590.73C-518.155 591.004 -516.912 591.278 -515.623 591.558C-516.679 590.595 -517.692 589.646 -518.693 588.703C-519.921 588.233 -521.096 587.772 -522.246 587.319C-521.305 588.448 -520.357 589.581 -519.366 590.73ZM-523.328 589.828C-522.12 590.111 -520.863 590.398 -519.557 590.689C-520.562 589.523 -521.521 588.373 -522.466 587.229C-523.705 586.738 -524.89 586.26 -526.034 585.788C-525.152 587.126 -524.261 588.466 -523.328 589.828ZM-527.283 588.877C-526.077 589.167 -524.816 589.466 -523.5 589.773C-524.462 588.411 -525.344 587.04 -526.23 585.696C-527.48 585.184 -528.667 584.683 -529.803 584.2C-528.982 585.761 -528.154 587.31 -527.283 588.877ZM-531.229 587.899C-530.035 588.2 -528.773 588.513 -527.442 588.836C-528.319 587.244 -529.153 585.684 -529.99 584.128C-531.266 583.59 -532.44 583.07 -533.561 582.573C-532.794 584.346 -532.032 586.097 -531.227 587.914L-531.229 587.899ZM-535.165 586.865C-533.995 587.174 -532.732 587.5 -531.377 587.842C-532.19 586.03 -532.958 584.254 -533.714 582.48C-534.993 581.913 -536.185 581.369 -537.276 580.862C-536.591 582.878 -535.897 584.868 -535.161 586.898L-535.165 586.865ZM-539.088 585.8C-537.962 586.113 -536.707 586.455 -535.323 586.828C-536.064 584.788 -536.759 582.787 -537.446 580.792C-538.785 580.169 -539.947 579.6 -541.001 579.092C-540.372 581.339 -539.753 583.565 -539.084 585.833L-539.088 585.8ZM-543.006 584.706C-541.996 585.005 -540.746 585.37 -539.235 585.795C-539.892 583.514 -540.544 581.281 -541.135 579.052C-542.602 578.333 -543.772 577.735 -544.686 577.242C-544.136 579.725 -543.593 582.186 -543.006 584.706ZM74.4722 548.894L70.1031 549.743C67.9704 551.814 65.8745 553.814 63.759 555.857C65.2385 555.478 66.7369 555.085 68.2276 554.696C70.3138 552.755 72.3816 550.868 74.4722 548.894ZM79.0538 548.021L74.6846 548.87C72.5997 550.822 70.5443 552.712 68.4725 554.636L72.9471 553.456C74.9852 551.63 76.9973 549.863 79.0538 548.021ZM83.6314 547.149L79.2623 547.998C77.2205 549.827 75.1969 551.6 73.1849 553.404L77.6362 552.234C79.6466 550.525 81.6169 548.858 83.6314 547.149ZM88.1929 546.278L83.8519 547.124C81.8543 548.839 79.8911 550.498 77.9188 552.184C79.3935 551.797 80.8646 551.415 82.3465 551.02C84.2892 549.396 86.221 547.858 88.1897 546.249L88.1929 546.278ZM92.7545 545.408C91.3011 545.693 89.8704 545.965 88.4254 546.253C86.4716 547.848 84.5473 549.382 82.6035 550.959C84.0774 550.565 85.5405 550.183 87.018 549.785C88.9321 548.271 90.8207 546.855 92.7501 545.368L92.7545 545.408ZM97.3469 544.486L92.9806 545.361C91.0696 546.831 89.1931 548.245 87.2966 549.699C88.7777 549.297 90.2772 548.878 91.758 548.473C93.6344 547.095 95.4716 545.802 97.3425 544.446L97.3469 544.486ZM101.931 543.565L97.6051 544.436C95.7567 545.774 93.9331 547.043 92.0931 548.384L96.5144 547.162C98.3207 545.92 100.107 544.754 101.927 543.525L101.931 543.565ZM106.496 542.65L102.209 543.513C100.416 544.72 98.649 545.88 96.8655 547.072L101.231 545.856C102.987 544.752 104.723 543.72 106.492 542.611L106.496 542.65ZM111.033 541.742C109.617 542.031 108.211 542.307 106.8 542.576C105.061 543.657 103.35 544.69 101.621 545.754C103.05 545.358 104.469 544.977 105.905 544.577C107.615 543.595 109.306 542.674 111.029 541.702L111.033 541.742ZM115.588 540.81L111.375 541.675C109.694 542.621 108.035 543.512 106.364 544.467L110.693 543.255C112.317 542.382 113.935 541.602 115.583 540.77L115.588 540.81ZM120.133 539.868C118.757 540.152 117.357 540.446 115.992 540.725C114.413 541.52 112.854 542.283 111.282 543.08L115.515 541.879C117.053 541.148 118.577 540.506 120.128 539.817L120.133 539.868ZM124.572 538.949L120.636 539.75C119.203 540.374 117.786 540.982 116.377 541.597L120.365 540.459C121.754 539.92 123.148 539.429 124.568 538.909L124.572 538.949ZM128.598 538.112L125.27 538.802L121.936 540.021C124.149 539.348 126.357 538.726 128.581 538.073L128.598 538.112ZM-499.624 595.357L-496.289 595.547C-498.475 595.149 -500.587 594.754 -502.627 594.36C-501.629 594.65 -500.643 594.981 -499.617 595.316L-499.624 595.357ZM-503.798 595.113C-502.572 595.187 -501.31 595.261 -500.049 595.334C-501.215 594.953 -502.348 594.575 -503.473 594.196C-504.675 593.962 -505.89 593.729 -507.04 593.489C-505.966 593.994 -504.901 594.53 -503.79 595.072L-503.798 595.113ZM-507.974 594.84C-506.707 594.924 -505.416 595.005 -504.081 595.085C-505.238 594.523 -506.359 593.964 -507.463 593.407C-508.741 593.151 -509.954 592.896 -511.198 592.648C-510.124 593.341 -509.065 594.068 -507.964 594.82L-507.974 594.84ZM-512.147 594.566L-508.194 594.831C-509.312 594.077 -510.388 593.333 -511.468 592.59C-512.768 592.322 -514.01 592.055 -515.236 591.791C-514.218 592.673 -513.199 593.596 -512.137 594.547L-512.147 594.566ZM-516.314 594.27L-512.334 594.565C-513.404 593.618 -514.44 592.683 -515.484 591.755C-516.789 591.474 -518.044 591.197 -519.272 590.922C-518.266 591.982 -517.331 593.105 -516.306 594.232L-516.314 594.27ZM-520.474 593.962L-516.478 594.255C-517.496 593.115 -518.477 591.987 -519.444 590.864L-523.24 589.998C-522.333 591.267 -521.416 592.59 -520.466 593.924L-520.474 593.962ZM-524.632 593.631C-523.355 593.735 -522.019 593.841 -520.625 593.949C-521.585 592.609 -522.51 591.279 -523.414 589.962C-524.739 589.653 -526.005 589.352 -527.214 589.06C-526.37 590.553 -525.507 592.064 -524.624 593.594L-524.632 593.631ZM-528.785 593.282C-527.519 593.392 -526.188 593.506 -524.776 593.618C-525.669 592.072 -526.534 590.539 -527.373 589.019C-528.715 588.697 -529.975 588.381 -531.173 588.08C-530.396 589.773 -529.597 591.495 -528.777 593.245L-528.785 593.282ZM-532.932 592.91C-531.702 593.028 -530.358 593.147 -528.924 593.272C-529.751 591.513 -530.551 589.766 -531.324 588.031C-532.684 587.689 -533.95 587.359 -535.12 587.051C-534.409 588.962 -533.677 590.903 -532.924 592.873L-532.932 592.91ZM-537.073 592.516C-535.879 592.637 -534.522 592.763 -533.067 592.899C-533.826 590.925 -534.558 588.966 -535.265 587.023C-536.665 586.653 -537.924 586.311 -539.054 585.995C-538.411 588.108 -537.749 590.289 -537.065 592.478L-537.073 592.516ZM-541.209 592.091C-540.101 592.211 -538.787 592.349 -537.204 592.504C-537.893 590.305 -538.561 588.117 -539.193 585.955C-540.708 585.531 -541.966 585.16 -542.964 584.866C-542.409 587.213 -541.814 589.625 -541.201 592.054L-541.209 592.091ZM80.7782 542.949L76.5169 543.452C74.4407 545.483 72.3004 547.632 70.239 549.651L74.6081 548.802C76.6462 546.866 78.7465 544.832 80.7862 542.911L80.7782 542.949ZM85.2314 542.42L80.9706 542.927C78.9341 544.841 76.8414 546.87 74.819 548.764L79.1881 547.914C81.1865 546.097 83.2435 544.185 85.2395 542.383L85.2314 542.42ZM89.6803 541.889L85.4235 542.396C83.435 544.193 81.3693 546.099 79.415 547.875L83.7842 547.025C85.7304 545.324 87.7364 543.539 89.6883 541.852L89.6803 541.889ZM94.1256 541.362L89.8807 541.867C87.9325 543.55 85.9376 545.327 84.003 546.987L88.3722 546.137C90.2667 544.555 92.2258 542.897 94.1336 541.324L94.1256 541.362ZM98.5704 540.831L94.3336 541.335C92.429 542.9 90.4775 544.554 88.587 546.099L92.9321 545.252C94.7946 543.784 96.7104 542.248 98.5785 540.793L98.5704 540.831ZM103.019 540.296L98.7869 540.807C96.9176 542.25 95.0226 543.792 93.1866 545.206L97.5529 544.331C99.3561 542.987 101.213 541.582 103.027 540.258L103.019 540.296ZM107.463 539.761L103.243 540.267C101.439 541.568 99.5946 542.979 97.8027 544.278L102.169 543.407C103.909 542.187 105.713 540.92 107.471 539.724L107.463 539.761ZM111.903 539.224L107.703 539.731C105.956 540.919 104.164 542.181 102.423 543.353L106.738 542.488C108.451 541.392 110.2 540.259 111.911 539.186L111.903 539.224ZM116.332 538.691L112.16 539.195C110.463 540.256 108.749 541.378 107.047 542.424C108.472 542.139 109.886 541.862 111.32 541.586C112.981 540.606 114.679 539.596 116.34 538.653L116.332 538.691ZM120.736 538.157L116.596 538.658C114.948 539.574 113.274 540.581 111.636 541.503L115.916 540.623C117.54 539.783 119.169 538.925 120.764 538.117L120.736 538.157ZM125.139 537.616L121.048 538.115C119.48 538.912 117.881 539.753 116.317 540.542L120.557 539.66C122.106 538.956 123.655 538.246 125.175 537.575L125.139 537.616ZM129.51 537.082L125.507 537.572C124.033 538.223 122.527 538.914 121.057 539.557L125.194 538.7C126.661 538.134 128.12 537.573 129.547 537.041L129.51 537.082ZM133.778 536.56L129.971 537.024C128.62 537.54 127.245 538.059 125.896 538.553L129.808 537.754C131.159 537.319 132.509 536.905 133.814 536.519L133.778 536.56ZM137.641 536.089L134.438 536.48C133.322 536.808 132.192 537.153 131.076 537.482L137.641 536.089ZM-491.373 596.267L-487.965 596.045C-490.233 595.931 -492.437 595.818 -494.575 595.707L-491.373 596.267ZM-495.74 596.547L-491.836 596.296C-493.049 596.081 -494.277 595.872 -495.452 595.66L-499.217 595.448C-498.085 595.815 -496.906 596.169 -495.74 596.547ZM-500.103 596.827L-496.042 596.566C-497.253 596.186 -498.472 595.803 -499.641 595.425L-503.537 595.198C-502.434 595.737 -501.255 596.282 -500.103 596.827ZM-504.467 597.103L-500.333 596.841C-501.506 596.284 -502.687 595.728 -503.823 595.178L-507.79 594.926C-506.712 595.647 -505.583 596.393 -504.467 597.103ZM-508.83 597.375L-504.652 597.112C-505.784 596.378 -506.924 595.641 -508.011 594.913L-512.008 594.646C-510.975 595.549 -509.901 596.462 -508.83 597.375ZM-513.179 597.642L-508.979 597.384C-510.063 596.461 -511.146 595.542 -512.18 594.632C-513.562 594.539 -514.895 594.444 -516.192 594.341C-515.227 595.438 -514.209 596.541 -513.179 597.642ZM-517.535 597.906L-513.328 597.651C-514.351 596.542 -515.378 595.433 -516.355 594.337L-520.371 594.046C-519.472 595.319 -518.51 596.612 -517.547 597.908L-517.535 597.906ZM-521.896 598.167L-517.676 597.915C-518.632 596.611 -519.587 595.31 -520.54 594.028L-524.566 593.716C-523.706 595.185 -522.807 596.675 -521.908 598.169L-521.896 598.167ZM-526.254 598.424L-522.033 598.175C-522.933 596.674 -523.833 595.177 -524.69 593.697C-526.107 593.581 -527.442 593.468 -528.711 593.359C-527.934 595.035 -527.102 596.73 -526.266 598.426L-526.254 598.424ZM-530.611 598.678L-526.386 598.436C-527.224 596.729 -528.061 595.027 -528.851 593.345C-530.285 593.22 -531.62 593.103 -532.87 592.988C-532.148 594.868 -531.394 596.771 -530.623 598.679L-530.611 598.678ZM-534.97 598.928L-530.741 598.685C-531.511 596.773 -532.278 594.861 -532.994 592.972C-534.453 592.84 -535.81 592.71 -537.012 592.59C-536.379 594.686 -535.683 596.804 -534.982 598.929L-534.97 598.928ZM-539.325 599.17L-535.095 598.934C-535.8 596.809 -536.493 594.683 -537.151 592.579C-538.734 592.424 -540.048 592.286 -541.165 592.163C-540.593 594.479 -539.969 596.822 -539.337 599.171L-539.325 599.17ZM87.1964 536.844L83.0326 537.018C80.9063 539.11 78.7639 541.24 76.6508 543.305L80.9201 542.801C82.9947 540.828 85.105 538.811 87.1964 536.844ZM91.519 536.676L87.37 536.836C85.2837 538.814 83.1811 540.826 81.1282 542.774L85.397 542.266C87.4083 540.418 89.4713 538.524 91.5053 536.662L91.519 536.676ZM95.8415 536.507L91.6925 536.667C89.654 538.526 87.5995 540.423 85.5734 542.247L89.8343 541.74C91.8214 540.005 93.8371 538.233 95.8399 536.492L95.8415 536.507ZM100.168 536.338L96.0231 536.498C94.0279 538.234 92.0159 540.002 90.0343 541.714L94.2915 541.211C96.235 539.595 98.2073 537.945 100.166 536.323L100.168 536.338ZM104.499 536.168C103.109 536.219 101.736 536.279 100.354 536.332C98.4022 537.946 96.4375 539.591 94.4956 541.185L98.7444 540.68C100.649 539.185 102.569 537.655 104.497 536.154L104.499 536.168ZM108.807 536.019C107.437 536.068 106.054 536.11 104.689 536.162C102.78 537.657 100.855 539.18 98.9608 540.656L103.209 540.143C105.062 538.775 106.94 537.374 108.805 536.005L108.807 536.019ZM113.112 535.871L109.005 536.012C107.127 537.379 105.277 538.769 103.433 540.114L107.669 539.603C109.472 538.365 111.3 537.099 113.11 535.856L113.112 535.871ZM117.42 535.722L113.322 535.863C111.519 537.097 109.702 538.354 107.91 539.576L112.125 539.067C113.879 537.937 115.659 536.82 117.419 535.711L117.42 535.722ZM121.733 535.573L117.642 535.712C115.89 536.82 114.127 537.936 112.386 539.035L116.586 538.527C118.29 537.542 120.016 536.526 121.731 535.558L121.733 535.573ZM126.026 535.433L121.983 535.564C120.281 536.537 118.549 537.532 116.878 538.495L121.058 537.986C122.696 537.133 124.37 536.269 126.024 535.419L126.026 535.433ZM130.3 535.306L126.285 535.427C124.645 536.265 122.995 537.119 121.366 537.948L125.517 537.438C127.101 536.724 128.705 536 130.303 535.292L130.3 535.306ZM134.558 535.178L130.587 535.297C129.041 535.992 127.448 536.704 125.885 537.394L129.981 536.894C131.499 536.316 133.034 535.735 134.557 535.163L134.558 535.178ZM138.796 535.052L134.898 535.17C133.414 535.723 131.922 536.287 130.445 536.836L134.448 536.346C135.885 535.909 137.341 535.469 138.795 535.037L138.796 535.052ZM142.973 534.925L139.221 535.038L135.088 536.268L138.88 535.806L142.973 534.925ZM146.732 534.829C145.677 534.861 144.62 534.882 143.564 534.911L140.113 535.659L146.732 534.829ZM-482.821 596.193L-479.332 595.599L-486.042 596.042L-482.821 596.193ZM-487.352 596.972L-483.326 596.278L-486.997 596.104L-490.912 596.359C-489.747 596.55 -488.564 596.754 -487.354 596.95L-487.352 596.972ZM-491.89 597.759L-487.678 597.027C-488.945 596.799 -490.159 596.603 -491.4 596.391L-495.469 596.653C-494.281 597.007 -493.105 597.376 -491.891 597.745L-491.89 597.759ZM-496.436 598.551L-492.133 597.801C-493.367 597.423 -494.565 597.049 -495.754 596.674L-499.896 596.936C-498.762 597.475 -497.617 597.995 -496.445 598.537L-496.436 598.551ZM-500.976 599.353L-496.627 598.583C-497.823 598.036 -498.974 597.495 -500.126 596.951L-504.312 597.214C-503.221 597.912 -502.116 598.624 -500.978 599.339L-500.976 599.353ZM-505.52 600.163L-501.144 599.383C-502.294 598.662 -503.4 597.943 -504.505 597.228L-508.712 597.491C-507.662 598.362 -506.615 599.252 -505.522 600.149L-505.52 600.163ZM-510.071 600.981L-505.671 600.191C-506.765 599.287 -507.821 598.394 -508.873 597.501L-513.092 597.761C-512.104 598.816 -511.105 599.884 -510.073 600.966L-510.071 600.981ZM-514.622 601.806L-510.207 601.003C-511.248 599.918 -512.251 598.843 -513.242 597.77L-517.469 598.028C-516.541 599.269 -515.599 600.523 -514.623 601.795L-514.622 601.806ZM-519.175 602.639L-514.747 601.809C-515.727 600.537 -516.65 599.273 -517.6 598.016L-521.832 598.271C-520.975 599.718 -520.093 601.166 -519.177 602.625L-519.175 602.639ZM-523.736 603.484L-519.302 602.664C-520.223 601.198 -521.105 599.747 -521.975 598.297L-526.212 598.548C-525.407 600.174 -524.59 601.812 -523.737 603.469L-523.736 603.484ZM-528.293 604.354L-523.858 603.519C-524.715 601.856 -525.533 600.21 -526.343 598.567L-530.58 598.814C-529.837 600.626 -529.086 602.466 -528.296 604.328L-528.293 604.354ZM-532.859 605.225L-528.417 604.368C-529.208 602.502 -529.963 600.655 -530.706 598.813L-534.934 599.034C-534.27 601.078 -533.581 603.128 -532.862 605.196L-532.859 605.225ZM-537.424 606.096L-532.979 605.238C-533.703 603.163 -534.392 601.11 -535.069 599.06L-539.307 599.296C-538.715 601.536 -538.06 603.791 -537.427 606.074L-537.424 606.096ZM-541.995 606.997C-541.01 606.8 -539.541 606.509 -537.547 606.12C-538.206 603.833 -538.825 601.566 -539.431 599.306L-543.667 599.531C-543.126 602.004 -542.582 604.47 -541.997 606.975L-541.995 606.997ZM93.6844 530.674C92.3272 530.618 90.9709 530.569 89.6104 530.521C87.4416 532.669 85.296 534.771 83.1404 536.892L87.3123 536.718C89.435 534.703 91.548 532.712 93.6844 530.674ZM97.8766 530.868C96.5314 530.811 95.1843 530.736 93.8395 530.682C91.7104 532.712 89.6053 534.703 87.4898 536.709L91.6469 536.548C93.7182 534.656 95.7835 532.784 97.8726 530.869L97.8766 530.868ZM102.069 531.066L98.0317 530.877C95.9543 532.787 93.8906 534.637 91.8204 536.54L95.9734 536.379C98.0014 534.609 100.011 532.861 102.065 531.066L102.069 531.066ZM106.27 531.263L102.232 531.074C100.198 532.862 98.1598 534.61 96.155 536.37L100.308 536.209C102.289 534.566 104.267 532.931 106.266 531.264L106.27 531.263ZM110.483 531.463C109.132 531.391 107.787 531.338 106.437 531.27C104.446 532.933 102.475 534.56 100.49 536.203C101.876 536.149 103.252 536.089 104.643 536.039C106.588 534.517 108.525 533.022 110.479 531.463L110.483 531.463ZM114.651 531.7C113.321 531.627 111.984 531.539 110.654 531.469C108.706 533.01 106.775 534.515 104.837 536.032L108.963 535.888C110.854 534.494 112.742 533.111 114.647 531.7L114.651 531.7ZM118.816 531.941L114.827 531.71C112.929 533.116 111.049 534.495 109.161 535.881L113.284 535.738C115.126 534.496 116.962 533.222 118.812 531.942L118.816 531.941ZM122.99 532.186C121.663 532.108 120.331 532.028 119 531.954C117.157 533.226 115.327 534.474 113.49 535.734L117.605 535.592C119.398 534.458 121.186 533.335 122.986 532.186L122.99 532.186ZM127.18 532.432C125.844 532.348 124.517 532.278 123.182 532.197C121.389 533.339 119.609 534.456 117.827 535.582L121.937 535.44C123.681 534.44 125.421 533.448 127.176 532.432L127.18 532.432ZM131.336 532.707L127.38 532.45C125.637 533.457 123.909 534.444 122.172 535.44L126.256 535.309C127.945 534.439 129.635 533.578 131.332 532.707L131.336 532.707ZM135.461 532.986C134.156 532.895 132.851 532.797 131.547 532.709C129.863 533.582 128.192 534.434 126.513 535.291L130.557 535.172C132.19 534.448 133.818 533.725 135.456 532.986L135.461 532.986ZM139.585 533.265L135.692 532.99C134.073 533.719 132.465 534.447 130.851 535.15L134.875 535.029C136.442 534.456 138.009 533.876 139.581 533.265L139.585 533.265ZM143.713 533.543C142.425 533.447 141.133 533.358 139.845 533.269C138.287 533.856 136.756 534.429 135.213 535.007L139.204 534.885L143.713 533.543ZM147.846 533.822C146.573 533.723 145.298 533.64 144.023 533.55C142.554 533.991 141.092 534.424 139.627 534.857L143.55 534.744L147.846 533.822ZM151.781 534.147C150.594 534.054 149.406 533.947 148.223 533.853L144.137 534.73L147.834 534.634L151.781 534.147ZM155.388 534.443L152.309 534.192L148.947 534.607L155.388 534.443ZM-473.902 595.099L-470.425 594.179L-477.196 595.319L-473.902 595.099ZM-478.632 596.355L-474.47 595.25L-478.279 595.508L-482.325 596.194L-478.632 596.355ZM-483.326 597.607C-481.892 597.221 -480.466 596.833 -478.992 596.439L-482.844 596.273L-487.057 596.995C-485.813 597.212 -484.563 597.422 -483.308 597.624L-483.326 597.607ZM-488.053 598.889L-483.6 597.663C-484.88 597.457 -486.143 597.249 -487.389 597.039L-491.696 597.786C-490.477 598.17 -489.251 598.543 -488.019 598.903L-488.053 598.889ZM-492.778 600.185L-488.257 598.952C-489.514 598.587 -490.732 598.215 -491.937 597.849L-496.295 598.609C-495.105 599.142 -493.93 599.673 -492.74 600.199L-492.778 600.185ZM-497.501 601.506C-496.006 601.084 -494.519 600.667 -492.952 600.233C-494.154 599.703 -495.337 599.17 -496.5 598.635L-500.877 599.412C-499.745 600.109 -498.604 600.812 -497.455 601.519L-497.501 601.506ZM-502.223 602.838L-497.643 601.544C-498.802 600.842 -499.936 600.141 -501.044 599.441L-505.449 600.225C-504.365 601.101 -503.277 601.977 -502.185 602.853L-502.223 602.838ZM-506.942 604.189C-505.456 603.761 -503.914 603.319 -502.345 602.874C-503.442 601.997 -504.522 601.122 -505.584 600.251L-510.008 601.044C-508.991 602.099 -507.96 603.152 -506.916 604.204L-506.942 604.189ZM-511.684 605.56C-510.202 605.129 -508.649 604.678 -507.068 604.225C-508.118 603.17 -509.139 602.115 -510.143 601.07L-514.574 601.871C-513.606 603.111 -512.646 604.341 -511.658 605.576L-511.684 605.56ZM-516.432 606.95L-511.806 605.596C-512.795 604.356 -513.762 603.117 -514.707 601.878L-519.141 602.69C-518.231 604.135 -517.333 605.549 -516.406 606.966L-516.432 606.95ZM-521.158 608.39L-516.523 607.008C-517.45 605.587 -518.353 604.167 -519.243 602.757C-520.794 603.04 -522.273 603.315 -523.68 603.581C-522.859 605.169 -522.018 606.772 -521.158 608.39ZM-525.916 609.829L-521.278 608.403C-522.146 606.788 -522.984 605.181 -523.81 603.58L-528.254 604.416C-527.491 606.218 -526.721 608.016 -525.917 609.822L-525.916 609.829ZM-530.686 611.277C-529.25 610.832 -527.724 610.359 -526.036 609.846C-526.84 608.033 -527.615 606.232 -528.377 604.437L-532.823 605.294C-532.128 607.288 -531.421 609.284 -530.686 611.277ZM-535.445 612.786L-530.79 611.325C-531.531 609.314 -532.239 607.315 -532.933 605.321L-537.383 606.179C-536.767 608.376 -536.131 610.574 -535.445 612.786ZM-540.225 614.323C-539.081 613.947 -537.542 613.45 -535.566 612.825C-536.217 610.602 -536.866 608.398 -537.514 606.205C-539.499 606.593 -540.981 606.885 -541.971 607.064C-541.411 609.487 -540.846 611.895 -540.237 614.324L-540.225 614.323ZM100.244 524.455C98.9186 524.282 97.5992 524.126 96.2752 523.968C94.084 526.17 91.9267 528.239 89.7322 530.412C91.09 530.461 92.4481 530.513 93.8066 530.568C95.9486 528.508 98.0568 526.546 100.232 524.456L100.244 524.455ZM104.299 525.02C102.997 524.845 101.693 524.643 100.388 524.472C98.2152 526.547 96.1162 528.519 93.9578 530.577C95.3025 530.631 96.6537 530.706 97.9948 530.763C100.096 528.813 102.162 526.985 104.287 525.022L104.299 525.02ZM108.366 525.588C107.06 525.406 105.753 525.216 104.447 525.041C102.326 527 100.265 528.839 98.1544 530.775C99.4996 530.832 100.85 530.9 102.196 530.96C104.252 529.151 106.273 527.427 108.354 525.589L108.366 525.588ZM112.441 526.155L108.514 525.609C106.436 527.442 104.423 529.162 102.359 530.968L106.405 531.16C108.413 529.474 110.415 527.865 112.429 526.157L112.441 526.155ZM116.529 526.725C115.213 526.532 113.904 526.361 112.593 526.175C110.561 527.868 108.589 529.484 106.572 531.167C107.922 531.231 109.267 531.288 110.622 531.359C112.588 529.799 114.522 528.323 116.517 526.726L116.529 526.725ZM120.558 527.352C119.266 527.157 117.972 526.94 116.681 526.748C114.697 528.329 112.767 529.808 110.793 531.366C112.127 531.435 113.463 531.523 114.798 531.596C116.714 530.166 118.604 528.804 120.546 527.353L120.558 527.352ZM124.582 528.009C123.294 527.806 122.004 527.592 120.716 527.393C118.782 528.836 116.895 530.193 114.975 531.62L118.973 531.854C120.855 530.56 122.68 529.309 124.568 527.996L124.582 528.009ZM128.618 528.665C127.326 528.455 126.035 528.249 124.744 528.046C122.86 529.355 121.028 530.585 119.158 531.878L123.164 532.111C124.972 530.924 126.765 529.816 128.603 528.641L128.618 528.665ZM132.67 529.319C131.372 529.095 130.081 528.907 128.784 528.698C126.958 529.872 125.172 530.972 123.353 532.131C124.688 532.207 126.027 532.28 127.363 532.364C129.125 531.307 130.87 530.325 132.655 529.287L132.67 529.319ZM136.684 529.995L132.843 529.344C131.067 530.38 129.333 531.353 127.563 532.375L131.535 532.634C133.243 531.715 134.939 530.867 136.669 529.964L136.684 529.995ZM140.65 530.71C139.407 530.48 138.125 530.255 136.866 530.026C135.143 530.921 133.459 531.761 131.747 532.647C133.059 532.733 134.373 532.834 135.685 532.925C137.328 532.149 138.969 531.435 140.634 530.679L140.65 530.71ZM144.628 531.427C143.386 531.197 142.107 530.971 140.844 530.744C139.187 531.496 137.565 532.207 135.918 532.943L139.844 533.218C141.429 532.584 143.008 532.006 144.612 531.396L144.628 531.427ZM148.627 532.146C147.384 531.916 146.102 531.691 144.839 531.463C143.25 532.068 141.691 532.64 140.105 533.237L144.027 533.513C145.551 533.021 147.068 532.579 148.615 532.114L148.627 532.146ZM152.634 532.875C151.392 532.645 150.121 532.418 148.867 532.189C147.347 532.65 145.85 533.084 144.338 533.541C145.638 533.632 146.934 533.72 148.236 533.823C149.69 533.471 151.165 533.162 152.619 532.843L152.634 532.875ZM156.46 533.645C155.274 533.409 154.091 533.173 152.905 532.937C151.467 533.249 150.043 533.546 148.608 533.855C149.836 533.954 151.09 534.065 152.328 534.178L156.46 533.645ZM160.195 534.4C159.057 534.159 157.918 533.918 156.784 533.712L152.842 534.203L156.404 534.496L160.195 534.4ZM163.647 535.095C162.655 534.892 161.667 534.693 160.676 534.498L157.415 534.579C159.491 534.713 161.566 534.877 163.648 535.062L163.647 535.095ZM-464.695 593.128L-461.099 591.891C-463.466 592.493 -465.738 593.086 -467.998 593.673L-464.695 593.128ZM-469.527 594.814C-468.125 594.322 -466.747 593.836 -465.308 593.339L-469.197 593.985L-473.329 595.072L-469.527 594.814ZM-474.405 596.531C-472.942 596.002 -471.415 595.467 -469.916 594.934L-473.883 595.199C-475.345 595.585 -476.832 595.976 -478.254 596.357L-474.405 596.531ZM-479.258 598.259C-477.738 597.725 -476.242 597.17 -474.68 596.616L-478.604 596.458C-480.125 596.865 -481.579 597.26 -483.048 597.657L-479.258 598.259ZM-484.135 600.02C-482.606 599.464 -481.051 598.903 -479.472 598.334L-483.305 597.726L-487.822 598.959C-486.622 599.322 -485.366 599.668 -484.133 600.031L-484.135 600.02ZM-489.025 601.811C-487.493 601.246 -485.905 600.667 -484.31 600.087C-485.567 599.726 -486.823 599.37 -488.021 599.028C-489.557 599.447 -491.105 599.868 -492.583 600.266C-491.418 600.787 -490.221 601.305 -489.023 601.822L-489.025 601.811ZM-493.908 603.628C-492.349 603.045 -490.79 602.465 -489.173 601.864C-490.383 601.345 -491.58 600.823 -492.753 600.307C-494.328 600.741 -495.823 601.163 -497.33 601.586C-496.212 602.274 -495.061 602.958 -493.907 603.639L-493.908 603.628ZM-498.808 605.472L-494.044 603.679C-495.203 602.992 -496.354 602.308 -497.476 601.628L-502.079 602.925C-501.015 603.784 -499.915 604.632 -498.807 605.483L-498.808 605.472ZM-503.722 607.343L-498.937 605.519C-500.041 604.664 -501.154 603.814 -502.215 602.944L-506.833 604.261C-505.821 605.31 -504.771 606.332 -503.721 607.354L-503.722 607.343ZM-508.644 609.244C-507.088 608.643 -505.481 608.021 -503.842 607.389C-504.893 606.363 -505.943 605.338 -506.956 604.319L-511.588 605.656C-510.632 606.861 -509.635 608.058 -508.651 609.256L-508.644 609.244ZM-513.575 611.183C-512.02 610.567 -510.434 609.941 -508.761 609.29C-509.758 608.09 -510.75 606.889 -511.71 605.692C-513.31 606.158 -514.854 606.611 -516.343 607.051C-515.444 608.435 -514.509 609.814 -513.574 611.194L-513.575 611.183ZM-518.514 613.153C-516.96 612.53 -515.371 611.892 -513.687 611.229C-514.625 609.864 -515.567 608.463 -516.465 607.086L-521.108 608.469C-520.266 610.035 -519.392 611.597 -518.513 613.163L-518.514 613.153ZM-523.465 615.167C-521.943 614.544 -520.33 613.891 -518.625 613.209C-519.505 611.639 -520.383 610.073 -521.225 608.518L-525.873 609.923C-525.097 611.662 -524.279 613.414 -523.465 615.167ZM-528.424 617.212C-526.923 616.588 -525.32 615.926 -523.578 615.209C-524.395 613.464 -525.212 611.719 -525.99 609.969C-527.681 610.486 -529.207 610.959 -530.647 611.404C-529.932 613.326 -529.178 615.269 -528.424 617.212ZM-533.399 619.303C-531.949 618.688 -530.348 618.012 -528.541 617.258C-529.295 615.311 -530.049 613.365 -530.766 611.432C-532.496 611.968 -534.068 612.461 -535.428 612.894C-534.791 615.033 -534.086 617.158 -533.399 619.303ZM-538.38 621.446C-537.102 620.89 -535.491 620.194 -533.511 619.352C-534.202 617.207 -534.897 615.06 -535.546 612.929C-537.53 613.559 -539.074 614.052 -540.213 614.431C-539.631 616.757 -539.003 619.103 -538.38 621.446ZM-531.386 625.813C-533.388 626.861 -535.077 627.752 -536.454 628.486C-535.829 630.693 -535.18 632.902 -534.506 635.114C-533.035 634.217 -531.274 633.116 -529.243 631.883C-529.981 629.864 -530.7 627.837 -531.385 625.816L-531.386 625.813ZM-526.22 623.143C-528.105 624.107 -529.744 624.956 -531.274 625.756C-530.589 627.773 -529.871 629.794 -529.145 631.82C-527.558 630.855 -525.809 629.805 -523.897 628.672C-524.685 626.828 -525.469 624.984 -526.219 623.147L-526.22 623.143ZM-521.063 620.537C-522.85 621.435 -524.548 622.294 -526.108 623.087C-525.358 624.924 -524.579 626.761 -523.791 628.601C-522.162 627.633 -520.417 626.604 -518.558 625.513C-519.406 623.859 -520.251 622.194 -521.062 620.54L-521.063 620.537ZM-515.916 617.979C-517.684 618.85 -519.362 619.683 -520.951 620.48C-520.144 622.135 -519.295 623.792 -518.451 625.453C-516.797 624.485 -515.058 623.476 -513.235 622.426C-514.14 620.947 -515.051 619.462 -515.916 617.983L-515.916 617.979ZM-510.785 615.467C-512.533 616.317 -514.2 617.133 -515.789 617.921C-514.928 619.401 -514.014 620.882 -513.112 622.361C-511.449 621.403 -509.724 620.416 -507.914 619.39C-508.893 618.089 -509.85 616.774 -510.785 615.471L-510.785 615.467ZM-505.666 612.997C-507.404 613.831 -509.056 614.627 -510.673 615.415C-509.755 616.719 -508.763 618.023 -507.807 619.331C-506.131 618.378 -504.42 617.415 -502.624 616.409C-503.659 615.268 -504.688 614.137 -505.666 613.001L-505.666 612.997ZM-500.562 610.573L-505.573 612.961C-504.596 614.094 -503.565 615.232 -502.551 616.368C-500.876 615.449 -499.169 614.483 -497.391 613.501C-498.44 612.519 -499.529 611.545 -500.561 610.576L-500.562 610.573ZM-495.463 608.175C-497.161 608.964 -498.839 609.748 -500.452 610.506C-499.42 611.471 -498.335 612.441 -497.291 613.413C-495.631 612.495 -493.889 611.551 -492.14 610.598C-493.238 609.809 -494.378 608.998 -495.461 608.193L-495.463 608.175ZM-490.375 605.822C-492.074 606.602 -493.732 607.367 -495.347 608.118C-494.269 608.924 -493.141 609.732 -492.009 610.536C-490.342 609.617 -488.634 608.695 -486.886 607.768C-488.051 607.137 -489.243 606.49 -490.365 605.839L-490.375 605.822ZM-485.308 603.508C-487.008 604.276 -488.626 605.02 -490.251 605.768C-489.121 606.414 -487.934 607.061 -486.767 607.707C-485.096 606.788 -483.42 605.91 -481.676 604.983C-482.888 604.511 -484.127 604.02 -485.306 603.526L-485.308 603.508ZM-480.244 601.231L-485.173 603.445C-483.995 603.936 -482.76 604.427 -481.549 604.918C-479.897 604.042 -478.19 603.148 -476.476 602.251C-477.737 601.931 -479.016 601.591 -480.242 601.249L-480.244 601.231ZM-475.193 598.989C-476.854 599.723 -478.486 600.448 -480.089 601.163C-478.863 601.501 -477.581 601.837 -476.326 602.175C-474.676 601.316 -472.998 600.444 -471.292 599.561C-472.601 599.389 -473.92 599.201 -475.191 599.007L-475.193 598.989ZM-470.162 596.782C-471.819 597.501 -473.397 598.2 -474.999 598.909C-473.736 599.1 -472.422 599.285 -471.127 599.476C-469.48 598.626 -467.857 597.783 -466.163 596.917L-470.162 596.782ZM-465.128 594.608C-466.739 595.299 -468.378 596.001 -469.942 596.681C-468.647 596.729 -467.301 596.756 -465.971 596.815C-464.366 595.996 -462.686 595.157 -461.033 594.325L-465.128 594.608ZM-460.131 592.463C-461.727 593.142 -463.273 593.808 -464.83 594.476L-460.779 594.197C-459.188 593.394 -457.609 592.596 -455.978 591.784L-460.131 592.463ZM-455.118 590.35L-459.7 592.283L-455.643 591.619C-454.105 590.855 -452.527 590.079 -450.953 589.306L-455.118 590.35ZM-450.118 588.267C-451.577 588.869 -453.019 589.468 -454.443 590.066L-450.495 589.08C-449.048 588.369 -447.601 587.659 -446.123 586.938C-447.476 587.398 -448.804 587.847 -450.108 588.284L-450.118 588.267ZM-441.75 584.833C-444.08 585.777 -446.343 586.709 -448.597 587.641C-447.544 587.289 -446.444 586.929 -445.375 586.58L-441.75 584.833ZM106.78 518.165C105.49 517.878 104.2 517.616 102.908 517.348C100.718 519.557 98.5479 521.694 96.3622 523.874C97.6857 524.029 99.0096 524.187 100.335 524.36C102.498 522.308 104.613 520.261 106.78 518.165ZM110.693 519.106C109.444 518.811 108.19 518.483 106.909 518.198C104.749 520.272 102.621 522.317 100.479 524.377C101.78 524.549 103.088 524.75 104.394 524.925C106.496 522.986 108.581 521.071 110.693 519.106ZM114.623 520.049C113.373 519.746 112.093 519.432 110.827 519.139C108.718 521.097 106.633 523.012 104.538 524.946C105.848 525.121 107.155 525.311 108.461 525.493C110.513 523.681 112.558 521.884 114.623 520.049ZM118.562 520.994C117.31 520.681 116.023 520.382 114.756 520.078C112.699 521.909 110.657 523.706 108.611 525.528L112.542 526.078C114.545 524.378 116.547 522.699 118.582 520.992L118.562 520.994ZM122.516 521.942C121.264 521.617 119.97 521.334 118.699 521.023C116.686 522.713 114.69 524.402 112.694 526.091C114.008 526.276 115.321 526.447 116.637 526.639C118.591 525.08 120.55 523.512 122.516 521.934L122.516 521.942ZM126.406 522.959C125.153 522.634 123.898 522.292 122.646 521.975C120.685 523.545 118.73 525.106 116.781 526.66C118.072 526.855 119.37 527.072 120.662 527.267C122.573 525.84 124.489 524.408 126.407 522.973L126.406 522.959ZM130.282 523.999C129.028 523.668 127.772 523.318 126.543 522.991C124.63 524.426 122.724 525.86 120.827 527.293C122.115 527.492 123.408 527.705 124.701 527.911L130.282 523.999ZM134.17 525.038C132.919 524.687 131.665 524.351 130.407 524.029C128.552 525.335 126.698 526.633 124.844 527.921L128.73 528.542C130.547 527.395 132.357 526.222 134.171 525.053L134.17 525.038ZM138.074 526.076C136.818 525.726 135.565 525.402 134.31 525.063C132.508 526.231 130.702 527.399 128.906 528.552C130.204 528.776 131.502 528.956 132.804 529.172C134.557 528.178 136.321 527.139 138.075 526.09L138.074 526.076ZM141.947 527.171C140.707 526.819 139.466 526.466 138.224 526.114C136.471 527.144 134.719 528.178 132.977 529.197C134.259 529.412 135.543 529.638 136.829 529.873C138.534 528.998 140.24 528.094 141.95 527.197L141.947 527.171ZM145.753 528.315C144.533 527.954 143.318 527.571 142.094 527.218C140.4 528.109 138.698 529.009 137.005 529.89C138.276 530.117 139.543 530.344 140.813 530.571L145.753 528.315ZM149.58 529.46C148.359 529.092 147.137 528.72 145.912 528.36C144.275 529.11 142.634 529.867 141.004 530.609C142.275 530.83 143.545 531.057 144.812 531.29C146.4 530.714 147.987 530.099 149.583 529.486L149.58 529.46ZM153.432 530.617C152.206 530.239 150.977 529.882 149.752 529.511C148.196 530.116 146.592 530.733 145.023 531.332C146.294 531.559 147.568 531.786 148.839 532.012C150.37 531.583 151.904 531.109 153.434 530.635L153.432 530.617ZM157.306 531.79C156.079 531.404 154.847 531.048 153.621 530.673C152.11 531.134 150.588 531.607 149.08 532.063C150.347 532.29 151.617 532.517 152.884 532.744L157.306 531.79ZM161 533.016C159.834 532.642 158.673 532.23 157.505 531.86L153.147 532.814C154.358 533.048 155.567 533.307 156.778 533.544L161 533.016ZM164.681 534.239C163.535 533.859 162.385 533.472 161.24 533.096L157.122 533.613C158.312 533.848 159.499 534.084 160.685 534.321L164.681 534.239ZM168.34 535.451C167.223 535.075 166.108 534.71 164.973 534.354L161.149 534.438C162.291 534.679 163.43 534.891 164.571 535.125C165.838 535.246 167.089 535.368 168.343 535.476L168.34 535.451ZM171.853 536.619C170.836 536.269 169.819 535.945 168.799 535.606C167.709 535.506 166.61 535.396 165.52 535.299C167.631 535.756 169.755 536.176 171.855 536.645L171.853 536.619ZM173.87 537.182C175.786 537.848 177.696 538.573 179.607 539.276C178.674 538.803 177.747 538.307 176.811 537.838C175.836 537.644 174.854 537.419 173.873 537.208L173.87 537.182ZM169.291 535.654C170.504 536.056 171.715 536.44 172.922 536.857C174.072 537.098 175.217 537.368 176.37 537.626C175.241 537.064 174.101 536.548 172.945 536.003C171.754 535.911 170.524 535.79 169.294 535.679L169.291 535.654ZM165.324 534.334C166.491 534.722 167.661 535.104 168.828 535.5C170.111 535.615 171.395 535.745 172.678 535.864C171.555 535.32 170.425 534.787 169.299 534.255L165.324 534.334ZM161.492 533.064C162.666 533.445 163.838 533.844 165.012 534.232L169.081 534.15C167.955 533.617 166.827 533.066 165.698 532.541L161.492 533.064ZM157.702 531.812C158.88 532.193 160.058 532.606 161.24 532.986L165.501 532.449C164.368 531.925 163.246 531.355 162.114 530.834C160.684 531.182 159.183 531.517 157.721 531.836L157.702 531.812ZM153.793 530.618C155.028 530.995 156.264 531.354 157.5 531.747L161.956 530.759C160.764 530.219 159.569 529.723 158.379 529.198C156.868 529.691 155.331 530.176 153.812 530.641L153.793 530.618ZM149.903 529.45C151.137 529.821 152.374 530.18 153.604 530.561C155.135 530.095 156.688 529.604 158.226 529.13C157.04 528.604 155.849 528.104 154.66 527.593C153.1 528.231 151.502 528.866 149.922 529.474L149.903 529.45ZM146.047 528.294C147.274 528.648 148.502 529.016 149.731 529.399C151.315 528.788 152.924 528.148 154.52 527.531C153.339 527.019 152.162 526.503 150.979 526.002C149.357 526.783 147.707 527.567 146.066 528.317L146.047 528.294ZM142.216 527.145C143.444 527.498 144.663 527.885 145.888 528.245C147.529 527.495 149.198 526.702 150.843 525.944C149.668 525.442 148.498 524.911 147.32 524.42C145.644 525.343 143.914 526.283 142.235 527.169L142.216 527.145ZM138.337 526.039C139.582 526.391 140.826 526.743 142.069 527.096C143.76 526.204 145.488 525.25 147.191 524.361C145.993 523.866 144.791 523.381 143.593 522.897C141.865 523.961 140.093 525.042 138.356 526.059L138.337 526.039ZM134.444 525.023C135.699 525.365 136.952 525.689 138.208 526.043C139.949 525.017 141.727 523.929 143.479 522.891C142.265 522.401 141.05 521.948 139.836 521.458C138.046 522.625 136.221 523.85 134.444 525.023ZM130.544 523.985C131.793 524.319 133.047 524.657 134.307 524.997C136.098 523.838 137.926 522.608 139.728 521.433C138.523 520.957 137.316 520.487 136.107 520.023C134.248 521.3 132.372 522.682 130.537 523.956L130.544 523.985ZM126.66 522.945C127.913 523.269 129.169 523.619 130.422 523.95C132.258 522.647 134.145 521.286 135.997 519.977C134.793 519.515 133.591 519.027 132.389 518.572C130.467 519.981 128.537 521.494 126.652 522.913L126.66 522.945ZM122.768 521.906C124.021 522.227 125.276 522.569 126.529 522.894C128.401 521.476 130.351 519.957 132.249 518.514C131.038 518.061 129.83 517.592 128.617 517.15C126.67 518.693 124.685 520.344 122.762 521.885L122.768 521.906ZM118.805 520.956C120.081 521.267 121.358 521.552 122.631 521.874C124.562 520.328 126.546 518.678 128.49 517.105C127.256 516.657 126.023 516.25 124.786 515.814C122.801 517.498 120.769 519.268 118.799 520.935L118.805 520.956ZM114.863 520.011C116.113 520.317 117.4 520.616 118.672 520.927C120.644 519.241 122.676 517.468 124.663 515.773C123.434 515.338 122.204 514.91 120.976 514.487C118.946 516.283 116.866 518.201 114.856 519.99L114.863 520.011ZM110.929 519.069C112.179 519.368 113.463 519.677 114.729 519.978C116.742 518.185 118.827 516.266 120.857 514.445C119.63 514.023 118.409 513.581 117.182 513.166C115.09 515.086 112.979 517.136 110.922 519.048L110.929 519.069ZM107.007 518.129C108.256 518.417 109.533 518.742 110.795 519.036C112.856 517.12 114.986 515.068 117.064 513.124C115.838 512.713 114.62 512.26 113.394 511.855C111.275 513.895 109.113 516.072 107.001 518.107L107.007 518.129ZM103.01 517.278C104.298 517.547 105.588 517.808 106.878 518.095C108.978 516.061 111.152 513.883 113.269 511.818C112.007 511.414 110.748 511.039 109.513 510.654C107.353 512.808 105.137 515.112 103.004 517.256L103.01 517.278ZM-455.164 590.267L-451.673 588.81C-453.997 589.587 -456.305 590.363 -458.55 591.129L-455.164 590.267ZM-460.172 592.38C-458.75 591.775 -457.292 591.162 -455.834 590.55L-459.82 591.562C-461.247 592.05 -462.666 592.537 -464.057 593.021L-460.172 592.38ZM-465.156 594.501C-463.645 593.853 -462.147 593.203 -460.594 592.529L-464.666 593.202C-466.177 593.736 -467.647 594.243 -469.12 594.758L-465.156 594.501ZM-470.19 596.675C-468.642 596.001 -467.038 595.314 -465.454 594.633L-469.501 594.907L-474.107 596.516C-472.816 596.59 -471.525 596.642 -470.193 596.69L-470.19 596.675ZM-475.221 598.882C-473.635 598.182 -472.068 597.488 -470.435 596.775C-471.779 596.729 -473.091 596.676 -474.399 596.626C-475.988 597.19 -477.521 597.741 -479.043 598.291C-477.766 598.502 -476.508 598.69 -475.205 598.913L-475.221 598.882ZM-480.248 601.118C-478.659 600.41 -477.035 599.688 -475.39 598.963C-476.698 598.766 -477.97 598.565 -479.241 598.368C-480.836 598.94 -482.406 599.507 -483.951 600.069C-482.73 600.434 -481.515 600.784 -480.251 601.133L-480.248 601.118ZM-485.304 603.39C-483.713 602.668 -482.057 601.931 -480.403 601.19C-481.659 600.837 -482.895 600.485 -484.126 600.133L-488.872 601.868C-487.695 602.391 -486.527 602.898 -485.307 603.405L-485.304 603.39ZM-490.378 605.727C-488.756 604.983 -487.146 604.24 -485.457 603.477C-486.678 602.966 -487.854 602.457 -489.034 601.945L-493.796 603.718C-492.657 604.378 -491.54 605.048 -490.378 605.727ZM-495.454 608.071C-493.841 607.32 -492.19 606.557 -490.502 605.781C-491.675 605.11 -492.8 604.441 -493.933 603.77C-495.569 604.38 -497.158 604.981 -498.716 605.572C-497.607 606.393 -496.565 607.228 -495.443 608.062L-495.454 608.071ZM-500.545 610.468C-498.941 609.711 -497.262 608.928 -495.572 608.139C-496.691 607.301 -497.761 606.468 -498.843 605.633C-500.479 606.254 -502.095 606.866 -503.644 607.463C-502.611 608.439 -501.6 609.439 -500.535 610.445L-500.545 610.468ZM-505.641 612.888C-504.035 612.116 -502.365 611.326 -500.657 610.521C-501.726 609.512 -502.733 608.511 -503.764 607.509C-505.407 608.138 -507.034 608.765 -508.578 609.369C-507.599 610.516 -506.642 611.688 -505.632 612.865L-505.641 612.888ZM-510.741 615.316C-509.128 614.532 -507.479 613.737 -505.733 612.905C-506.748 611.725 -507.701 610.553 -508.674 609.38C-510.351 610.031 -511.941 610.658 -513.5 611.274C-512.595 612.631 -511.697 613.975 -510.741 615.316ZM-515.865 617.823C-514.26 617.033 -512.597 616.218 -510.861 615.369C-511.823 614.007 -512.717 612.67 -513.632 611.322C-515.32 611.989 -516.925 612.628 -518.467 613.246C-517.604 614.781 -516.759 616.303 -515.863 617.834L-515.865 617.823ZM-520.999 620.375C-519.413 619.579 -517.737 618.747 -515.972 617.879C-516.872 616.345 -517.717 614.819 -518.575 613.295C-520.277 613.978 -521.896 614.634 -523.419 615.254C-522.624 616.972 -521.836 618.673 -520.998 620.386L-520.999 620.375ZM-526.149 622.977C-524.613 622.187 -522.898 621.326 -521.111 620.432C-521.945 618.714 -522.738 617.01 -523.535 615.3C-525.278 616.013 -526.88 616.678 -528.385 617.303C-527.652 619.205 -526.925 621.092 -526.147 622.988L-526.149 622.977ZM-531.309 625.661C-529.774 624.864 -528.144 624.016 -526.262 623.052C-527.036 621.152 -527.768 619.261 -528.512 617.372C-530.324 618.123 -531.924 618.802 -533.374 619.418C-532.695 621.486 -532.024 623.563 -531.309 625.661ZM-536.485 628.391C-535.106 627.651 -533.419 626.762 -531.424 625.722C-532.134 623.627 -532.806 621.546 -533.478 619.466C-535.462 620.309 -537.073 621.004 -538.346 621.563C-537.747 623.828 -537.136 626.099 -536.486 628.383L-536.485 628.391ZM-18.9473 631.355C-19.9098 632.229 -20.886 633.126 -21.8453 633.991C-20.4154 632.758 -18.9453 631.447 -17.4881 630.166C-17.9747 630.573 -18.4526 630.948 -18.9473 631.355ZM-12.1707 625.19C-13.9062 626.78 -15.6252 628.335 -17.3506 629.905C-15.9451 628.744 -14.4899 627.483 -13.0639 626.286C-11.4889 624.898 -9.94114 623.556 -8.36282 622.159C-9.64046 623.192 -10.9052 624.195 -12.1667 625.189L-12.1707 625.19ZM-5.32762 618.965C-7.28676 620.771 -9.17816 622.455 -11.1236 624.237C-9.52816 622.96 -7.88171 621.629 -6.25416 620.312C-4.40486 618.687 -2.63103 617.151 -0.787339 615.513C-2.30052 616.678 -3.8059 617.828 -5.30354 618.962L-5.32762 618.965ZM1.13746 612.991C-0.757151 614.757 -2.63162 616.483 -4.51261 618.225C-2.84976 616.97 -1.14532 615.651 0.555632 614.337C2.39967 612.665 4.25576 611.102 6.09825 609.415C4.44395 610.626 2.7917 611.818 1.14146 612.991L1.13746 612.991ZM7.2017 607.245C5.36201 608.957 3.49829 610.782 1.6923 612.467C3.4076 611.247 5.14659 609.983 6.88518 608.716C8.58254 607.185 10.3404 605.541 12.0438 603.991C10.4178 605.103 8.81878 606.164 7.1977 607.246L7.2017 607.245ZM13.4896 601.284C11.5501 603.12 9.59064 604.996 7.6684 606.805C9.32278 605.694 10.9771 604.582 12.652 603.436C14.496 601.764 16.3998 600.008 18.2683 598.301C16.6608 599.322 15.0915 600.285 13.4936 601.284L13.4896 601.284ZM19.9432 595.168C17.9134 597.107 15.903 598.999 13.8865 600.91C15.5145 599.89 17.1247 598.893 18.7659 597.846C20.7334 596.043 22.6994 594.262 24.6789 592.421C23.0883 593.375 21.5333 594.248 19.9472 595.168L19.9432 595.168ZM26.5177 588.937C24.4122 590.96 22.3765 592.844 20.2723 594.842C21.8773 593.909 23.4631 593.022 25.0806 592.054C27.1359 590.164 29.1372 588.372 31.2057 586.455C29.6368 587.311 28.0967 588.098 26.5221 588.94L26.5177 588.937ZM32.976 582.718C30.9126 584.719 28.8653 586.681 26.8152 588.654C28.4049 587.803 29.9675 587 31.5677 586.133C33.6063 584.238 35.6167 582.382 37.6744 580.478C36.0967 581.254 34.5594 581.956 32.9804 582.721L32.976 582.718ZM39.2981 576.514C37.2872 578.476 35.217 580.562 33.2194 582.497C34.806 581.727 36.3581 581.012 37.9515 580.231C39.9186 578.387 41.9563 576.412 43.9326 574.542C42.3778 575.194 40.8538 575.832 39.3009 576.503L39.2981 576.514ZM45.7463 570.168C43.6673 572.211 41.5731 574.299 39.5261 576.302C41.075 575.632 42.6287 575.005 44.1761 574.32C46.2153 572.396 48.2848 570.413 50.3337 568.465C48.7868 569.043 47.2644 569.586 45.7491 570.157L45.7463 570.168ZM52.2961 563.711C50.1597 565.823 48.0507 567.887 45.9276 569.972C47.4865 569.392 48.9768 568.853 50.5154 568.272C52.6088 566.287 54.6917 564.317 56.798 562.301C55.2968 562.778 53.8093 563.232 52.2961 563.711ZM58.9345 557.175C56.7408 559.356 54.6369 561.394 52.4641 563.542C53.9732 563.064 55.4652 562.613 56.978 562.13C59.1212 560.08 61.2114 558.139 63.3673 556.059L58.9345 557.175ZM65.5371 550.574C63.3755 552.75 61.236 554.869 59.0868 557.012C60.5708 556.635 62.0402 556.275 63.5237 555.894C65.6508 553.846 67.7544 551.841 69.8983 549.762L65.5371 550.574ZM72.0657 543.925C69.9486 546.064 67.7725 548.33 65.6722 550.438L70.0454 549.625C72.116 547.616 74.2596 545.459 76.3434 543.423L72.0657 543.925ZM78.6812 537.182C76.5184 539.385 74.3359 541.63 72.1859 543.801L76.4556 543.301C78.5723 541.232 80.7223 539.097 82.8522 537.001L78.6812 537.182ZM85.3773 530.361C83.168 532.62 80.9828 534.839 78.7947 537.07L82.9657 536.889C85.1248 534.764 87.2736 532.655 89.4465 530.506L85.3773 530.361ZM92.1424 523.466C89.895 525.784 87.7137 527.967 85.4832 530.254L89.5564 530.399C91.7504 528.222 93.8988 526.146 96.1101 523.942C94.7959 523.797 93.4755 523.634 92.1516 523.476L92.1424 523.466ZM98.9134 516.478C96.6672 518.807 94.4684 521.051 92.239 523.349C93.5606 523.511 94.8832 523.67 96.2067 523.825C98.4 521.641 100.562 519.504 102.789 517.291L98.9134 516.478ZM105.627 509.409C103.445 511.698 101.173 514.126 99.0001 516.381C100.284 516.654 101.572 516.93 102.859 517.195C104.996 515.051 107.236 512.741 109.369 510.563C108.134 510.215 106.886 509.824 105.638 509.437L105.627 509.409ZM98.8678 516.358C101.052 514.095 103.312 511.665 105.507 509.386C-96.6361 446.901 -314.905 524.381 -438.764 583.512C-318.349 535.043 -108.297 472.448 98.879 516.387L98.8678 516.358ZM92.0967 523.346C94.3292 521.04 96.5346 518.818 98.782 516.463C-109.202 472.372 -320.11 535.67 -440.239 584.222L-444.592 586.321C-328.635 548.159 -123.234 497.233 92.1063 523.36L92.0967 523.346ZM85.324 530.246C87.5622 527.954 89.747 525.767 91.9981 523.445C-123.763 497.295 -329.538 548.501 -445.326 586.696C-446.897 587.46 -448.448 588.215 -449.988 588.972C-338.448 561.143 -137.979 522.111 85.3336 530.259L85.324 530.246ZM78.6247 537.075C80.8123 534.84 83.0012 532.616 85.2217 530.349C-138.366 522.205 -339.038 561.354 -450.459 589.186C-452.079 589.981 -453.696 590.776 -455.281 591.553C-348.106 574.109 -152.631 547.018 78.6343 537.088L78.6247 537.075ZM72.0108 543.832C74.1643 541.656 76.3504 539.407 78.5168 537.2C-152.946 547.149 -348.541 574.278 -455.605 591.743C-457.267 592.569 -458.881 593.382 -460.499 594.196C-357.695 587.097 -167.221 571.945 72.0108 543.832ZM65.4831 550.488C67.5865 548.373 69.7698 546.098 71.8865 543.956C-167.489 572.085 -358.026 587.229 -460.745 594.322C-462.417 595.164 -464.113 596.012 -465.741 596.841C-367.302 600.12 -181.791 596.895 65.4871 550.487L65.4831 550.488ZM58.8764 557.09C61.0324 554.936 63.1759 552.816 65.3491 550.635C-182.026 597.046 -367.564 600.248 -465.944 596.955C-467.653 597.827 -469.288 598.675 -470.934 599.532C-376.871 613.183 -196.397 621.856 58.8672 557.08L58.8764 557.09ZM52.23 563.627C54.4261 561.468 56.5295 559.427 58.7224 557.239C-196.604 622.004 -377.086 613.291 -471.115 599.618C-472.827 600.501 -474.519 601.381 -476.176 602.247C-386.481 626.287 -211.04 646.844 52.2329 563.616L52.23 563.627ZM45.6935 570.056C47.8198 567.964 49.9401 565.891 52.0796 563.772C-211.222 646.959 -386.67 626.374 -476.315 602.31C-478.041 603.213 -479.768 604.112 -481.411 604.991C-396.089 639.435 -225.658 671.81 45.6935 570.056ZM39.2451 576.403C41.3146 574.383 43.4185 572.271 45.503 570.243C-225.823 671.931 -396.243 639.511 -481.526 605.055C-483.278 605.982 -484.973 606.903 -486.637 607.784C-405.681 652.633 -240.227 696.808 39.2263 576.416L39.2451 576.403ZM32.9231 582.606C34.928 580.663 37.013 578.565 39.0315 576.599C-240.368 696.893 -405.809 652.68 -486.75 607.83C-488.5 608.757 -490.214 609.68 -491.893 610.6C-415.306 665.886 -254.773 721.832 32.9059 582.634L32.9231 582.606ZM26.4608 588.826C28.5334 586.835 30.5924 584.868 32.6974 582.84C-254.891 721.904 -415.395 665.925 -491.985 610.647C-493.738 611.6 -495.487 612.549 -497.151 613.467C-424.952 679.177 -269.386 746.842 26.4435 588.853L26.4608 588.826ZM19.8862 595.057C21.9933 593.048 24.0435 591.148 26.1634 589.108C-269.528 746.913 -425.053 679.214 -497.273 613.539C-499.055 614.521 -500.767 615.474 -502.445 616.415C-434.613 692.507 -284.03 771.822 19.869 595.085L19.8862 595.057ZM13.4275 601.199C15.4628 599.275 17.4673 597.365 19.5395 595.408C-284.192 771.899 -434.729 692.568 -502.577 616.5C-504.373 617.505 -506.088 618.473 -507.768 619.429C-444.277 705.897 -298.636 796.82 13.4275 601.199ZM7.13558 607.161C9.08424 605.334 11.0683 603.423 13.0311 601.577C-298.803 796.879 -444.385 705.949 -507.851 619.486C-509.665 620.512 -511.39 621.499 -513.06 622.462C-453.953 719.349 -313.203 821.833 7.1235 607.162L7.13558 607.161ZM1.07533 612.906C2.91503 611.195 4.82366 609.336 6.66896 607.602C-313.38 821.889 -454.059 719.383 -513.167 622.521C-514.998 623.578 -516.733 624.585 -518.387 625.553C-463.633 732.887 -327.713 846.927 1.06326 612.908L1.07533 612.906ZM-5.39775 618.881C-3.42053 617.055 -1.46988 615.283 0.520491 613.43C-327.918 846.949 -463.762 732.927 -518.506 625.617C-520.366 626.703 -522.118 627.737 -523.747 628.706C-473.348 746.432 -342.33 871.896 -5.40976 618.882L-5.39775 618.881ZM-12.2365 625.109C-10.2172 623.26 -8.24529 621.497 -6.20876 619.62C-342.579 871.847 -473.469 746.438 -523.842 628.772C-525.744 629.911 -527.507 630.964 -529.097 631.921C-483.09 759.984 -357.019 896.728 -12.2485 625.11L-12.2365 625.109ZM-19.0062 631.263C-17.1028 629.54 -15.1966 627.807 -13.2876 626.062C-357.331 896.589 -483.231 759.963 -529.218 631.997C-531.249 633.231 -533.019 634.318 -534.485 635.229C-492.837 773.61 -371.664 921.521 -19.0183 631.264L-19.0062 631.263ZM-25.598 637.265C-23.8966 635.734 -22.1479 634.117 -20.4366 632.566C-372.033 921.268 -492.954 773.546 -534.583 635.298C-537.909 637.365 -539.68 638.519 -539.862 638.638C-502.568 787.341 -386.221 946.337 -25.598 637.265ZM-558.038 474.243C-558.146 476.388 -598.272 1150.03 -27.7523 639.213C-578.807 1109.88 -557.359 484.072 -557.296 482.068L-557.175 482.055C-557.192 482.75 -559.791 559.153 -539.908 638.511C-539.639 638.338 -537.888 637.186 -534.637 635.176C-535.298 632.958 -535.948 630.747 -536.586 628.541C-539.268 629.979 -540.74 630.795 -540.795 630.841L-540.854 630.749C-540.785 630.712 -539.326 629.894 -536.605 628.444C-537.263 626.157 -537.863 623.881 -538.471 621.606C-540.507 622.495 -541.604 622.995 -541.663 623.019L-541.714 622.922C-541.656 622.897 -540.555 622.394 -538.499 621.499C-539.124 619.149 -539.752 616.803 -540.334 614.47C-541.717 614.92 -542.487 615.182 -542.534 615.194L-542.57 615.092C-542.522 615.086 -541.752 614.818 -540.362 614.363C-540.967 611.93 -541.534 609.515 -542.096 607.107L-543.406 607.369L-543.418 607.264L-542.116 606.999C-542.701 604.494 -543.254 601.986 -543.79 599.519L-544.27 599.543L-544.282 599.434L-543.822 599.409C-556.671 540.11 -556.432 490.441 -556.436 489.898L-556.315 489.885C-556.312 490.428 -556.551 540.093 -543.698 599.392L-539.467 599.167C-540.104 596.811 -540.724 594.464 -541.309 592.143C-543.794 591.874 -545.098 591.709 -545.155 591.704L-545.135 591.596C-545.083 591.59 -543.794 591.763 -541.338 592.028C-541.952 589.593 -542.548 587.166 -543.112 584.776C-544.992 584.217 -545.985 583.889 -546.032 583.872L-545.99 583.769C-545.944 583.786 -544.972 584.104 -543.142 584.651C-543.738 582.122 -544.284 579.638 -544.824 577.172C-546.168 576.465 -546.865 576.061 -546.904 576.04L-546.841 575.949C-546.807 575.967 -546.139 576.352 -544.856 577.029C-545.425 574.405 -545.961 571.832 -546.473 569.286C-547.301 568.618 -547.75 568.23 -547.777 568.208L-547.697 568.125C-547.67 568.148 -547.249 568.505 -546.51 569.096C-547.053 566.383 -547.566 563.707 -548.049 561.069C-548.417 560.64 -548.622 560.398 -548.642 560.367L-548.544 560.301C-548.544 560.301 -548.361 560.523 -548.079 560.837C-554.779 524.396 -555.535 498.091 -555.553 497.711L-555.433 497.698C-555.417 498.063 -554.773 520.442 -549.423 552.484L-549.391 552.481C-549.356 552.539 -548.455 554.047 -546.664 556.64C-547.241 554.011 -547.781 551.451 -548.286 548.96C-549.669 546.286 -550.334 544.781 -550.379 544.705L-550.27 544.66C-550.239 544.723 -549.623 546.112 -548.386 548.534C-548.944 545.754 -549.457 543.08 -549.925 540.511C-550.791 538.246 -551.224 536.936 -551.247 536.872L-551.129 536.837C-551.123 536.895 -550.762 537.956 -550.045 539.863C-550.585 536.88 -551.094 534.029 -551.498 531.364C-551.891 529.939 -552.098 529.092 -552.112 529.039L-551.992 529.025C-551.987 529.065 -551.873 529.515 -551.662 530.322C-554.044 515.208 -554.687 505.779 -554.702 505.564L-554.582 505.551C-554.569 505.667 -554.376 508.487 -553.834 513.393L-553.718 513.381C-553.699 513.551 -552.957 519.944 -550.895 530.468C-549.962 534.403 -548.654 539.486 -546.913 545.409C-545.65 548.984 -544.133 553.027 -542.335 557.487C-540.814 560.571 -539.099 563.899 -537.139 567.47C-535.401 570.057 -533.496 572.798 -531.365 575.672C-529.426 577.804 -527.339 580.026 -525.065 582.318C-522.939 584.012 -520.661 585.76 -518.231 587.562C-515.97 588.814 -513.544 590.106 -511.013 591.42C-508.614 592.278 -506.079 593.155 -503.421 594.04C-500.859 594.539 -498.215 595.04 -495.425 595.543C-492.723 595.69 -489.912 595.833 -486.991 595.971L-478.259 595.396C-475.339 594.898 -472.324 594.39 -469.213 593.873C-466.173 593.078 -463.037 592.27 -459.829 591.45C-456.678 590.368 -453.45 589.277 -450.144 588.178C-446.924 586.844 -443.63 585.502 -440.263 584.151C-316.646 524.922 -97.394 446.541 105.613 509.322C137.472 476.074 170.742 439.949 205.723 400.358C708.107 -168.253 1058.81 -93.4303 1254.02 47.1429C1364.71 126.845 1425.42 227.689 1435.45 244.362C1436.38 245.912 1436.82 246.759 1436.84 246.738L1436.93 246.809C1436.84 246.9 1436.33 246.053 1435.35 244.415C1425.32 227.745 1364.61 126.914 1253.94 47.2247C1058.75 -93.324 708.122 -168.118 205.803 400.419C170.816 439.996 137.572 476.092 105.726 509.35L109.469 510.512C140.405 479.263 172.689 445.343 206.574 408.178C723.279 -158.563 1089.81 -50.1449 1282.2 93.0106C1374.61 161.77 1426.84 238.541 1436.25 252.369C1437.22 253.793 1437.68 254.571 1437.71 254.55L1437.8 254.624C1437.71 254.707 1437.18 253.929 1436.16 252.426C1426.75 238.602 1374.53 161.841 1282.13 93.0916C1089.77 -50.0344 723.307 -158.422 206.666 408.241C172.79 445.383 140.526 479.293 109.594 510.546C110.854 510.928 112.112 511.299 113.374 511.707C143.414 482.451 174.672 450.74 207.458 415.998C744.346 -152.952 1131.91 -0.975313 1316.8 141.655C1387.6 196.275 1428.7 249.521 1437.07 260.375C1438.08 261.681 1438.56 262.413 1438.58 262.379L1438.67 262.449C1438.59 262.532 1438.04 261.818 1436.97 260.434C1428.6 249.579 1387.51 196.34 1316.71 141.733C1131.83 -0.855882 744.35 -152.805 207.526 416.071C174.756 450.801 143.489 482.505 113.476 511.747C114.705 512.148 115.924 512.604 117.146 513.016C146.284 485.739 176.599 456.184 208.301 423.826C773.969 -153.31 1190.21 58.2523 1358 192.909C1403.81 229.671 1431.1 260.697 1437.86 268.383C1438.9 269.574 1439.4 270.227 1439.42 270.207L1439.51 270.281C1439.43 270.356 1438.86 269.707 1437.76 268.452C1431 260.755 1403.72 229.743 1357.92 192.991C1190.14 58.3591 773.984 -153.168 208.39 423.897C176.688 456.248 146.392 485.8 117.268 513.058C118.494 513.473 119.72 513.914 120.943 514.341C149.184 489.038 178.516 461.64 209.165 431.656C817.291 -163.278 1274.49 136.266 1403.56 244.491C1422.56 260.421 1434.45 272.21 1438.66 276.385C1439.74 277.461 1440.27 278.042 1440.29 278.04L1440.38 278.111C1440.3 278.182 1439.71 277.597 1438.57 276.475C1434.36 272.303 1422.48 260.518 1403.48 244.588C1274.43 136.364 817.299 -163.128 209.254 431.727C178.616 461.699 149.295 489.092 121.065 514.382C122.297 514.804 123.526 515.233 124.753 515.667C152.096 492.34 180.453 467.094 210.033 439.482C885.207 -190.819 1405.31 255.104 1439.44 284.377C1440.58 285.353 1441.13 285.88 1441.14 285.863L1441.23 285.938C1441.17 286.004 1440.55 285.477 1439.36 284.46C1405.22 255.191 885.199 -190.671 210.118 439.557C180.553 467.156 152.208 492.393 124.88 515.708C126.112 516.145 127.348 516.537 128.585 517.003C155.033 495.646 182.398 472.551 210.897 447.308C863.555 -130.741 1404.72 266.302 1440.24 292.364C1441.42 293.229 1442.02 293.703 1442.01 293.692L1442.1 293.763C1442.04 293.825 1441.41 293.356 1440.17 292.45C1404.65 266.391 863.563 -130.595 210.978 447.387C182.494 472.613 155.133 495.701 128.706 517.033C129.923 517.479 131.132 517.951 132.342 518.405C157.895 499.001 184.313 478.025 211.775 455.121C841.873 -70.6368 1404.04 277.441 1441.05 300.336C1442.28 301.099 1442.89 301.52 1442.91 301.504L1442.99 301.579C1442.94 301.637 1442.27 301.225 1440.99 300.428C1404 277.533 841.896 -70.4999 211.869 455.202C184.438 478.092 158.035 499.055 132.493 518.447C133.699 518.901 134.898 519.393 136.101 519.855C160.78 502.39 186.25 483.527 212.656 462.953C820.137 -10.4793 1403.25 288.551 1441.82 308.319C1443.11 308.984 1443.76 309.35 1443.77 309.338L1443.86 309.409C1443.81 309.462 1443.11 309.124 1441.76 308.414C1403.21 288.644 820.147 -10.3446 212.734 463.032C186.343 483.597 160.892 502.451 136.244 519.905C137.451 520.372 138.659 520.843 139.869 521.318C163.671 505.789 188.181 489.033 213.54 470.777C798.276 49.7287 1402.24 299.631 1442.56 316.302C1443.93 316.885 1444.62 317.176 1444.63 317.175L1444.72 317.25C1444.67 317.299 1443.93 316.995 1442.51 316.392C1402.21 299.715 798.309 49.8461 213.605 470.857C188.269 489.1 163.774 505.844 139.992 521.364C141.209 521.839 142.427 522.295 143.643 522.796C166.551 509.201 190.099 494.543 214.4 478.61C776.382 109.966 1400.98 310.679 1443.32 324.261C1444.78 324.731 1445.52 324.991 1445.53 324.983L1445.62 325.054C1445.57 325.099 1444.78 324.848 1443.28 324.361C1400.97 310.765 776.418 110.072 214.491 478.696C190.21 494.623 166.683 509.26 143.794 522.838C144.995 523.327 146.195 523.817 147.397 524.309C169.429 512.634 192.029 500.075 215.287 486.43C754.314 170.245 1399.25 321.736 1443.99 332.244C1445.58 332.619 1446.39 332.828 1446.39 332.82L1446.48 332.894C1446.44 332.935 1445.6 332.735 1443.96 332.351C1399.21 321.842 754.331 170.364 215.35 486.522C192.106 500.151 169.553 512.698 147.529 524.368C148.707 524.858 149.877 525.393 151.06 525.89C172.239 516.12 193.911 505.627 216.135 494.258C731.968 230.583 1396.66 332.861 1444.55 340.229C1446.33 340.502 1447.24 340.666 1447.24 340.666L1447.33 340.737C1446.39 340.656 1445.45 340.528 1444.53 340.352C1396.65 332.983 731.987 230.713 216.192 494.369C193.975 505.726 172.35 516.203 151.174 525.97C152.362 526.47 153.543 526.989 154.727 527.501C175.045 519.63 195.804 511.163 217.005 502.098C709.209 290.997 1392.61 344.17 1444.96 348.241C1447.04 348.404 1448.1 348.5 1448.1 348.492L1448.19 348.567C1448.16 348.6 1447.06 348.515 1444.94 348.353C1392.6 344.277 709.229 291.108 217.052 502.199C195.876 511.283 175.148 519.738 154.868 527.563C156.061 528.081 157.256 528.58 158.447 529.109C177.894 523.131 197.703 516.737 217.873 509.927C685.53 351.497 1385.26 355.916 1444.93 356.29C1447.59 356.308 1448.96 356.326 1448.97 356.322L1449.06 356.393C1449.02 356.426 1447.63 356.418 1444.92 356.401C1385.24 356.014 685.546 351.602 217.912 510.026C197.763 516.853 177.994 523.236 158.604 529.176C159.799 529.705 160.998 530.208 162.19 530.748C180.753 526.659 199.603 522.327 218.74 517.753C658.959 412.251 1367.56 369.153 1443.27 364.546L1449.83 364.148L1449.92 364.222C1449.89 364.252 1447.62 364.392 1443.27 364.655C1367.58 369.261 658.979 412.358 218.768 517.856C199.669 522.436 180.864 526.759 162.352 530.826C163.493 531.349 164.628 531.925 165.778 532.452C183.519 530.23 201.468 527.938 219.624 525.577C572.595 479.647 1146.43 409.305 1363.69 382.674C1418.56 375.946 1450.67 372.009 1450.71 371.969L1450.8 372.04C1450.73 372.106 1418.6 376.044 1363.7 382.775C1146.46 409.405 572.611 479.752 219.635 525.678C201.53 528.031 183.638 530.317 165.961 532.534C167.103 533.069 168.244 533.622 169.387 534.168C186.287 533.803 203.323 533.546 220.495 533.398C360.362 532.223 544.07 514.727 726.748 491.934C1091.15 446.461 1451.44 379.923 1451.56 379.796L1451.65 379.871C1451.52 379.999 1091.17 446.568 726.748 492.04C544.066 514.837 360.37 532.332 220.479 533.507C203.382 533.651 186.42 533.907 169.594 534.274C170.745 534.818 171.896 535.359 173.045 535.919C189.087 537.415 205.191 539.186 221.356 541.232C353.307 558.072 534.18 546.604 716.665 523.836C1081.29 478.339 1452.33 387.725 1452.42 387.63L1452.51 387.701C1452.42 387.799 1081.32 478.445 716.681 523.941C534.188 546.714 353.286 558.174 221.339 541.337C205.277 539.289 189.275 537.53 173.333 536.06C174.524 536.633 175.719 537.173 176.904 537.761C192.024 541.092 207.131 544.859 222.228 549.061C346.372 583.905 524.583 578.461 707.006 555.681C1071.7 510.175 1453.22 395.507 1453.29 395.456L1453.38 395.53C1453.31 395.593 1071.74 510.281 707.022 555.79C524.581 578.556 346.352 584.014 222.191 549.164C207.261 544.975 192.304 541.278 177.344 537.962C178.38 538.491 179.413 539.059 180.453 539.587C194.748 544.756 208.983 550.468 223.103 556.882C339.464 609.72 515.049 610.266 697.441 587.49C1062.16 542 1454.08 403.315 1454.11 403.283L1454.2 403.354C1454.17 403.387 1062.17 542.109 697.418 587.621C515.005 610.385 339.392 609.838 223.002 556.989C209.146 550.696 195.182 545.079 181.15 539.983C195.912 547.508 210.193 555.767 223.928 564.723C549.726 777.237 1452.38 412.14 1454.99 411.096L1455.04 411.197C1452.43 412.241 549.727 777.362 223.856 564.808C209.894 555.704 195.37 547.318 180.35 539.69C177.861 538.783 175.38 537.849 172.887 536.986C170.116 536.389 167.348 535.809 164.581 535.245C161.852 535.007 159.13 534.79 156.392 534.571L147.834 534.781L138.891 535.911C135.878 536.552 132.869 537.19 129.864 537.825C126.68 538.753 123.53 539.651 120.375 540.553C117.017 541.776 113.684 542.966 110.358 544.151C106.87 545.637 103.419 547.12 99.9756 548.601C96.5339 550.28 93.072 551.998 89.6547 553.642C86.5232 555.338 83.408 557.011 80.3091 558.66C76.5891 560.869 72.9448 562.956 69.2825 565.063C65.3789 567.557 61.5178 569.958 57.663 572.38C53.6627 575.101 49.666 577.818 45.6966 580.488C41.9978 583.147 38.2752 585.848 34.6136 588.44C31.3687 590.897 28.1456 593.308 24.9442 595.67C21.0075 598.784 17.1724 601.714 13.3268 604.661C8.94475 608.261 4.65009 611.697 0.345082 615.149C-4.10473 618.944 -8.56089 622.68 -12.9686 626.379C-17.1939 630.112 -21.4304 633.854 -25.5475 637.392C-598.468 1151.94 -558.267 476.39 -558.159 474.242L-558.038 474.243Z" fill="#EA523C"/>
</svg>
