<svg width="1920" height="1064" viewBox="0 0 1920 1064" fill="none" xmlns="http://www.w3.org/2000/svg">
<rect x="15" width="1890" height="1063.12" rx="12" fill="black"/>
<path opacity="0.73" d="M517.474 651.751C516.706 652.241 515.915 652.748 515.131 653.252C514.298 653.839 513.488 654.395 512.659 654.989C514.26 653.916 515.853 652.852 517.474 651.758M526.586 645.647C525.124 646.541 523.661 647.431 522.197 648.315C520.546 649.493 518.964 650.563 517.32 651.727C518.791 650.785 520.262 649.847 521.736 648.899C523.376 647.784 524.95 646.755 526.586 645.64V645.647ZM531.194 642.868L528.728 644.365C527.849 644.966 527.004 645.515 526.125 646.102C527.788 645.022 529.466 643.955 531.174 642.851L531.194 642.868ZM533.962 640.697L528.778 643.677C527.039 644.928 525.323 646.109 523.61 647.353C525.284 646.335 526.958 645.321 528.644 644.289C530.414 643.052 532.138 641.923 533.943 640.679L533.962 640.697ZM539.822 637.33C538.209 638.261 536.612 639.175 535.011 640.109C533.586 641.096 532.184 642.044 530.787 643.014C532.25 642.128 533.709 641.245 535.176 640.342C536.712 639.283 538.217 638.355 539.803 637.313L539.822 637.33ZM544.507 634.638C543.385 635.287 542.283 635.916 541.177 636.552C540.525 636.979 539.857 637.434 539.208 637.862C540.943 636.788 542.687 635.742 544.495 634.62L544.507 634.638ZM539.899 636.524C538.198 637.441 536.481 638.372 534.784 639.283C533.056 640.537 531.282 641.857 529.566 643.104C531.358 642.083 533.149 641.054 534.941 640.019C536.554 638.862 538.244 637.653 539.887 636.507L539.899 636.524ZM545.551 633.481C543.933 634.356 542.322 635.225 540.717 636.086C539.15 637.177 537.541 638.327 535.982 639.408C537.691 638.428 539.388 637.459 541.108 636.462C542.575 635.478 544.069 634.443 545.539 633.463L545.551 633.481ZM550.839 630.632C549.391 631.421 547.97 632.182 546.538 632.949C545.186 633.846 543.804 634.797 542.464 635.683C544 634.797 545.536 633.929 547.106 633.015C548.335 632.234 549.591 631.393 550.827 630.615L550.839 630.632ZM555.132 628.318C554.114 628.878 553.123 629.406 552.125 629.941C551.13 630.566 550.109 631.233 549.122 631.858C551.104 630.686 553.103 629.501 555.12 628.301L555.132 628.318ZM8.06295 502.28C8.06295 502.367 8.18582 504.389 8.57365 507.981C8.08215 501.238 7.97847 496.781 7.95543 495.322C7.95543 497.326 7.97847 499.612 8.04375 502.27L8.06295 502.28ZM546.204 632.077C544.522 632.918 542.817 633.783 541.139 634.613C539.219 636.003 537.299 637.424 535.406 638.803C537.142 637.872 538.893 636.924 540.636 635.986C542.479 634.7 544.349 633.38 546.204 632.077ZM551.729 629.298L546.868 631.73C545.063 632.994 543.247 634.276 541.454 635.527C543.12 634.631 544.783 633.738 546.446 632.828C548.204 631.685 549.975 630.497 551.729 629.312V629.298ZM557.017 626.651C555.5 627.418 554.003 628.162 552.497 628.916C550.812 630.041 549.118 631.188 547.444 632.3C548.98 631.476 550.516 630.667 552.052 629.823C553.711 628.794 555.366 627.717 557.017 626.675V626.651ZM561.805 624.253C560.504 624.921 559.233 625.542 557.965 626.185C556.429 627.161 554.893 628.158 553.357 629.128C554.571 628.475 555.777 627.839 557.021 627.154C558.587 626.22 560.208 625.226 561.805 624.267V624.253ZM565.261 622.516C564.493 622.906 563.771 623.27 563.038 623.635C561.752 624.41 560.45 625.202 559.167 625.97C561.168 624.865 563.226 623.673 565.23 622.541L565.261 622.516ZM9.72178 519.248C9.98673 520.568 10.2901 521.992 10.6395 523.549C10.0328 519.97 9.56818 516.809 9.19571 514.04C9.34931 515.683 9.5221 517.424 9.72178 519.248ZM8.40086 512.046C8.61973 513.436 8.9538 515.405 9.46451 517.99C9.21107 515.558 9.0114 513.349 8.8386 511.264C8.45462 508.138 8.2319 505.81 8.10135 504.285C8.17046 506.678 8.26262 509.249 8.40086 512.046ZM552.739 627.495C551.077 628.252 549.391 629.044 547.747 629.798C545.708 631.299 543.7 632.755 541.673 634.235C543.378 633.39 545.102 632.498 546.814 631.66C548.78 630.271 550.746 628.902 552.739 627.495ZM558.154 625.004L553.292 627.241C551.334 628.631 549.406 629.965 547.459 631.33L552.451 628.843C554.337 627.564 556.234 626.3 558.154 625.004ZM563.41 622.572C561.874 623.291 560.338 623.993 558.772 624.705C556.902 625.966 555.055 627.196 553.196 628.443C554.759 627.662 556.31 626.894 557.885 626.098C559.728 624.938 561.56 623.774 563.41 622.586V622.572ZM568.402 620.283C566.97 620.957 565.568 621.589 564.151 622.238C562.37 623.385 560.607 624.5 558.837 625.629C560.216 624.934 561.583 624.274 562.984 623.545L568.402 620.283ZM573.164 618.049C571.863 618.667 570.568 619.277 569.278 619.88C567.58 620.922 565.895 621.926 564.201 622.944C565.568 622.249 566.958 621.502 568.329 620.79C569.927 619.893 571.532 618.984 573.144 618.063L573.164 618.049ZM577.691 615.853C576.693 616.329 575.686 616.822 574.68 617.312C573.605 617.927 572.534 618.528 571.463 619.136L577.691 615.853ZM12.402 532.415C12.8065 533.624 13.243 534.89 13.7114 536.212C12.8666 533.172 12.1294 530.341 11.4996 527.739C11.7761 529.236 12.0795 530.81 12.402 532.415ZM10.6318 526.877C11.0619 528.305 11.5611 529.879 12.1217 531.574C11.7377 529.569 11.3729 527.669 11.0427 525.821C10.5934 523.903 10.2018 522.131 9.86385 520.519C10.0917 522.548 10.3477 524.667 10.6318 526.877ZM8.93076 520.86C9.31475 522.27 9.78706 524.042 10.4283 526.186C10.1173 523.754 9.84849 521.461 9.60658 519.258C9.09204 516.729 8.71573 514.648 8.45462 513.085C8.58133 515.534 8.74261 518.143 8.93076 520.86ZM559.409 622.815C557.77 623.493 556.107 624.205 554.475 624.872C552.34 626.456 550.286 627.919 548.162 629.482C549.84 628.721 551.537 627.926 553.219 627.154C555.3 625.688 557.316 624.306 559.409 622.815ZM564.708 620.609L559.878 622.621C557.812 624.094 555.823 625.452 553.772 626.901C555.416 626.15 557.06 625.394 558.706 624.632C560.719 623.27 562.681 621.988 564.708 620.609ZM569.9 618.441C568.337 619.101 566.782 619.744 565.219 620.394C563.23 621.752 561.302 623.01 559.325 624.347C560.907 623.621 562.477 622.906 564.067 622.166C566.021 620.908 567.918 619.727 569.9 618.441ZM574.922 616.357C573.429 616.993 571.962 617.59 570.48 618.208C568.56 619.456 566.697 620.613 564.785 621.842C566.256 621.148 567.707 620.512 569.197 619.814C571.113 618.643 572.995 617.531 574.922 616.35V616.357ZM579.968 614.203C578.504 614.835 577.047 615.459 575.598 616.075C573.736 617.218 571.923 618.285 570.073 619.411C571.574 618.716 573.091 617.965 574.596 617.25C576.393 616.218 578.159 615.235 579.968 614.196V614.203ZM585.236 611.882C583.815 612.501 582.372 613.147 580.943 613.772C579.315 614.71 577.729 615.589 576.113 616.513C577.568 615.818 579.031 615.089 580.482 614.39C582.072 613.539 583.639 612.726 585.236 611.875V611.882ZM589.679 609.923L586.63 611.267C585.528 611.854 584.457 612.407 583.362 613.004C585.463 611.965 587.559 610.955 589.679 609.916V609.923ZM15.9155 543.369C16.4301 544.411 16.9907 545.512 17.5628 546.624C16.503 544.032 15.5443 541.574 14.6868 539.248C15.0759 540.587 15.4854 541.961 15.9155 543.369ZM13.7421 538.779C14.3181 540.027 14.9325 541.326 15.6045 542.705C15.0861 540.996 14.5908 539.332 14.1376 537.734C13.5655 536.163 13.051 534.683 12.571 533.262C12.9281 535.055 13.3236 536.9 13.7421 538.779ZM11.634 534.055C12.1908 535.357 12.8244 536.785 13.5194 538.31C13.0766 536.284 12.6657 534.326 12.2868 532.436C11.7032 530.699 11.1733 529.041 10.7201 527.572C10.9966 529.654 11.3013 531.815 11.634 534.055ZM9.5989 529.024C10.0942 530.309 10.7086 531.852 11.4728 533.652C11.1221 531.317 10.8072 529.065 10.5282 526.894C9.87921 524.747 9.37619 522.951 8.9922 521.482C9.1586 523.9 9.36083 526.414 9.5989 529.024ZM565.998 618.132C564.378 618.723 562.731 619.355 561.114 619.939C558.998 621.526 556.925 623.045 554.824 624.604C556.468 623.93 558.142 623.215 559.793 622.52C561.886 621.054 563.921 619.636 565.998 618.132ZM571.19 616.207C569.585 616.801 567.972 617.406 566.371 617.993C564.313 619.473 562.305 620.884 560.262 622.339L565.142 620.307C567.185 618.924 569.163 617.614 571.205 616.207H571.19ZM576.32 614.307C574.738 614.898 573.168 615.478 571.589 616.044C569.589 617.434 567.642 618.719 565.657 620.074C567.239 619.414 568.813 618.764 570.403 618.097C572.403 616.826 574.335 615.617 576.335 614.307H576.32ZM581.358 612.431C579.822 613.015 578.286 613.564 576.75 614.133C574.799 615.412 572.91 616.607 570.99 617.861C572.503 617.229 573.997 616.624 575.529 615.971C577.518 614.776 579.4 613.664 581.358 612.431ZM586.477 610.486L581.846 612.25C579.926 613.432 578.09 614.526 576.193 615.69C577.729 615.026 579.307 614.342 580.866 613.668C582.771 612.594 584.591 611.601 586.492 610.496L586.477 610.486ZM591.799 608.401C590.236 609.009 588.654 609.641 587.091 610.249C585.321 611.291 583.604 612.23 581.842 613.244C583.409 612.549 584.987 611.854 586.553 611.159C588.331 610.225 590.036 609.367 591.814 608.404L591.799 608.401ZM596.906 606.396L592.559 608.102C591 608.947 589.487 609.725 587.951 610.555C589.38 609.927 590.81 609.296 592.244 608.662C593.822 607.89 595.343 607.185 596.921 606.4L596.906 606.396ZM601.252 604.687C600.162 605.121 599.083 605.538 598.004 605.962C596.952 606.49 595.923 606.98 594.87 607.501C597.005 606.577 599.117 605.663 601.268 604.691L601.252 604.687ZM20.1624 552.488C20.8037 553.416 21.4565 554.347 22.1553 555.316C20.8766 553.086 19.717 550.953 18.6303 548.903C19.1295 550.084 19.6248 551.265 20.1624 552.488ZM17.6627 548.792C18.3577 549.834 19.0873 550.921 19.8668 552.047C19.2293 550.584 18.6073 549.139 18.0313 547.746C17.3555 546.454 16.7257 545.21 16.1113 544.005C16.5952 545.561 17.1097 547.162 17.6627 548.792ZM15.1859 544.97C15.8848 546.082 16.6259 547.242 17.4361 548.469C16.8716 546.732 16.3264 545.054 15.8234 543.414C15.113 541.972 14.4717 540.635 13.8689 539.321C14.2605 541.138 14.7059 543.028 15.1706 544.956L15.1859 544.97ZM12.7514 540.958C13.4234 542.104 14.1645 543.331 14.9939 544.661C14.5152 542.667 14.066 540.725 13.6461 538.835C12.9281 537.275 12.2868 535.83 11.7262 534.496C12.0257 536.583 12.3623 538.732 12.7361 540.944L12.7514 540.958ZM10.3669 536.747C10.9813 537.873 11.7108 539.179 12.5863 540.673C12.2049 538.41 11.8555 536.21 11.538 534.072C10.7701 532.272 10.148 530.726 9.6181 529.417C9.84081 531.793 10.0789 534.232 10.3669 536.747ZM572.365 613.473C570.791 613.974 569.189 614.516 567.623 614.991C565.572 616.541 563.456 618.181 561.417 619.709C563.042 619.119 564.697 618.486 566.325 617.889C568.302 616.475 570.368 614.936 572.365 613.473ZM577.399 611.858C575.832 612.362 574.258 612.872 572.691 613.369C570.71 614.807 568.667 616.336 566.697 617.753L571.543 615.957C573.467 614.647 575.464 613.216 577.399 611.872V611.858ZM582.391 610.26C580.855 610.76 579.309 611.256 577.752 611.747C575.832 613.081 573.855 614.495 571.95 615.808L576.719 614.043C578.578 612.834 580.513 611.51 582.387 610.274L582.391 610.26ZM587.314 608.679C585.778 609.179 584.284 609.652 582.767 610.138C580.909 611.365 579 612.671 577.153 613.88C578.689 613.303 580.225 612.751 581.807 612.143C583.612 611.041 585.49 609.829 587.31 608.693L587.314 608.679ZM592.252 607.06C590.735 607.567 589.23 608.057 587.721 608.547C585.927 609.669 584.08 610.871 582.295 611.976C583.873 611.375 585.467 610.76 587.056 610.148C588.761 609.169 590.531 608.081 592.248 607.074L592.252 607.06ZM597.37 605.323C595.834 605.841 594.298 606.386 592.762 606.9C591.084 607.883 589.36 608.94 587.69 609.912C589.303 609.287 590.931 608.637 592.54 608.008C594.11 607.15 595.765 606.205 597.366 605.33L597.37 605.323ZM602.389 603.61C600.907 604.117 599.421 604.628 597.942 605.128C596.406 605.973 594.813 606.865 593.277 607.71C594.839 607.103 596.404 606.489 597.973 605.868C599.405 605.135 600.941 604.354 602.385 603.617L602.389 603.61ZM607.177 601.977C605.81 602.45 604.451 602.908 603.092 603.367C601.732 604.062 600.335 604.791 598.979 605.452C600.442 604.878 601.898 604.312 603.372 603.714C604.62 603.186 605.933 602.561 607.174 601.984L607.177 601.977ZM611.24 600.588C610.192 600.956 609.159 601.283 608.122 601.651C607.089 602.127 606.025 602.634 604.996 603.106C607.067 602.287 609.147 601.45 611.236 600.598L611.24 600.588ZM25.112 560.128C25.8608 560.899 26.6019 561.67 27.416 562.47C25.9415 560.587 24.5706 558.773 23.2804 557.015C23.8679 558.043 24.4708 559.072 25.112 560.128ZM22.2705 557.144C23.0769 558.005 23.9102 558.881 24.7895 559.794C24.0407 558.554 23.3073 557.324 22.62 556.129C21.852 555.059 21.107 554.024 20.3928 553.002C20.988 554.357 21.6177 555.74 22.2705 557.144ZM19.452 554.066C20.2661 554.971 21.125 555.912 22.0286 556.887C21.349 555.41 20.6808 553.951 20.0588 552.53C19.2485 551.37 18.4921 550.251 17.7548 549.171C18.3001 550.769 18.8684 552.412 19.452 554.066ZM16.672 550.897C17.4745 551.832 18.3423 552.822 19.2601 553.85C18.661 552.148 18.0812 550.466 17.5436 548.83C16.7257 547.6 15.9578 546.398 15.2397 545.297C15.6966 547.117 16.1766 549 16.672 550.901V550.897ZM13.9265 547.597C14.6944 548.566 15.5507 549.584 16.5069 550.706C15.9962 548.761 15.5123 546.85 15.0631 544.988C14.2144 543.64 13.4733 542.406 12.786 541.246C13.1367 543.307 13.5169 545.425 13.9265 547.6V547.597ZM11.2193 544.161C11.9374 545.109 12.7975 546.204 13.7729 547.409C13.3633 545.218 12.9793 543.072 12.6209 540.972C11.7454 539.481 11.0043 538.171 10.3822 537.035C10.628 539.356 10.907 541.732 11.2193 544.164V544.161ZM8.55829 540.516C9.03828 541.211 9.87153 542.399 11.0811 543.991C10.7739 541.531 10.4923 539.128 10.2363 536.782C8.96148 534.437 8.25878 532.96 8.04375 532.502C8.1871 535.1 8.35862 537.772 8.55829 540.516ZM578.87 608.752C577.334 609.155 575.798 609.575 574.262 609.968C572.127 611.59 569.973 613.24 567.853 614.832C569.427 614.338 571.044 613.789 572.626 613.3C574.696 611.795 576.792 610.253 578.87 608.735V608.752ZM583.75 607.446C582.214 607.852 580.678 608.273 579.142 608.672C577.077 610.183 574.991 611.719 572.941 613.188C574.511 612.688 576.097 612.174 577.668 611.67C579.695 610.277 581.742 608.839 583.75 607.428V607.446ZM588.604 606.146L584.057 607.362C582.053 608.752 580.029 610.194 578.036 611.576C579.593 611.078 581.149 610.579 582.706 610.079C584.656 608.773 586.638 607.435 588.604 606.129V606.146ZM593.404 604.861C591.902 605.271 590.42 605.66 588.926 606.059C586.98 607.355 585.014 608.679 583.082 609.957C584.618 609.464 586.123 608.992 587.663 608.488C589.564 607.282 591.495 606.049 593.404 604.844V604.861ZM598.207 603.555C596.714 603.971 595.235 604.364 593.753 604.767C591.864 605.959 589.952 607.182 588.074 608.356C589.61 607.852 591.146 607.348 592.682 606.834C594.513 605.743 596.368 604.625 598.207 603.537V603.555ZM603.153 602.144C601.644 602.568 600.112 603.02 598.607 603.44C596.802 604.51 594.974 605.611 593.177 606.667C594.74 606.139 596.322 605.587 597.885 605.059C599.628 604.093 601.402 603.093 603.153 602.127V602.144ZM608.03 600.754C606.555 601.178 605.08 601.6 603.602 602.019C601.894 602.964 600.147 603.937 598.457 604.868L603.038 603.308C604.689 602.453 606.371 601.578 608.03 600.734V600.754ZM612.787 599.4L608.564 600.605C606.958 601.422 605.338 602.262 603.741 603.068C605.185 602.575 606.624 602.092 608.076 601.588C609.631 600.855 611.221 600.101 612.787 599.379V599.4ZM617.257 598.124C615.971 598.5 614.707 598.851 613.417 599.212C611.947 599.907 610.46 600.602 608.997 601.269C610.238 600.845 611.467 600.438 612.722 599.997C614.231 599.368 615.756 598.722 617.257 598.104V598.124ZM621.162 596.978L618.136 597.874C616.904 598.382 615.664 598.917 614.435 599.406C616.685 598.594 618.931 597.756 621.162 596.957V596.978ZM30.7183 566.402C31.5477 567.007 32.3848 567.615 33.2603 568.24C31.6015 566.695 30.0322 565.19 28.5526 563.724C29.2361 564.606 29.9503 565.502 30.7183 566.402ZM27.5657 564.057C28.4796 564.752 29.4012 565.447 30.3765 566.142C29.5356 565.099 28.6985 564.085 27.9075 563.084C27.0243 562.205 26.1834 561.347 25.3616 560.507C26.0451 561.677 26.7978 562.869 27.5465 564.057H27.5657ZM24.4401 561.66C25.3616 562.379 26.3178 563.112 27.32 563.873C26.552 562.629 25.784 561.393 25.0352 560.187C24.1214 559.249 23.2574 558.339 22.428 557.449C23.0385 558.829 23.7297 560.239 24.4209 561.66H24.4401ZM21.3413 559.193C22.2603 559.937 23.2267 560.706 24.2404 561.5C23.5338 560.048 22.8388 558.606 22.186 557.196C21.2645 556.207 20.3903 555.253 19.5634 554.333C20.1087 555.924 20.7039 557.54 21.3221 559.193H21.3413ZM18.2694 556.657C19.1717 557.418 20.1432 558.217 21.1723 559.054C20.5464 557.383 19.9436 555.733 19.3753 554.118C18.4422 553.075 17.5667 552.082 16.7565 551.137C17.2096 552.943 17.7203 554.788 18.2463 556.657H18.2694ZM15.2205 554.034C16.1037 554.809 17.0675 555.643 18.1119 556.525C17.582 554.635 17.0675 552.773 16.576 550.946C15.6198 549.827 14.7674 548.799 13.9764 547.819C14.3552 549.857 14.7623 551.929 15.1975 554.034H15.2205ZM12.1793 551.286C13.0126 552.061 13.9649 552.926 15.0554 553.892C14.6176 551.766 14.2042 549.681 13.8151 547.638C12.8436 546.44 11.972 545.335 11.2462 544.387C11.5355 546.649 11.8465 548.949 12.1793 551.286ZM9.21491 548.427C9.87921 549.091 10.8085 550.004 12.0641 551.179C11.7262 548.809 11.4139 546.483 11.1272 544.199C9.93681 542.636 9.10356 541.461 8.59285 540.725C8.75157 543.243 8.95892 545.81 9.21491 548.427ZM585.513 603.892C584.023 604.201 582.525 604.517 581.047 604.812C578.847 606.497 576.681 608.13 574.5 609.791C576.036 609.395 577.572 608.967 579.108 608.564C581.231 607.008 583.347 605.483 585.494 603.892H585.513ZM590.244 602.898C588.757 603.207 587.256 603.53 585.77 603.839C583.635 605.41 581.546 606.938 579.411 608.488C580.947 608.081 582.483 607.661 584.019 607.251C586.073 605.802 588.135 604.368 590.224 602.898H590.244ZM594.955 601.908L590.512 602.842C588.439 604.305 586.388 605.729 584.326 607.171L588.892 605.948C590.892 604.604 592.901 603.27 594.936 601.908H594.955ZM599.632 600.921C598.161 601.237 596.702 601.54 595.239 601.849C593.219 603.204 591.223 604.527 589.214 605.861C590.72 605.458 592.209 605.069 593.722 604.656C595.673 603.416 597.635 602.182 599.613 600.921H599.632ZM604.301 599.928C602.838 600.247 601.391 600.549 599.935 600.859C597.969 602.109 596.022 603.332 594.072 604.562C595.569 604.152 597.067 603.749 598.576 603.329C600.461 602.2 602.366 601.074 604.282 599.924L604.301 599.928ZM609.082 598.854C607.607 599.181 606.114 599.528 604.639 599.851C602.742 600.987 600.865 602.099 598.979 603.214C600.515 602.787 602.051 602.332 603.587 601.904C605.407 600.895 607.232 599.878 609.063 598.854H609.082ZM613.824 597.788C612.369 598.114 610.906 598.448 609.454 598.771C607.638 599.782 605.833 600.775 604.029 601.772C605.526 601.352 607.031 600.918 608.533 600.49L613.824 597.788ZM618.494 596.745C617.073 597.072 615.656 597.385 614.239 597.704C612.507 598.594 610.783 599.469 609.063 600.348C610.51 599.938 611.954 599.528 613.413 599.108C615.082 598.32 616.769 597.529 618.474 596.735L618.494 596.745ZM623.036 595.727C621.673 596.04 620.348 596.332 618.981 596.638C617.338 597.407 615.698 598.167 614.062 598.92C615.414 598.538 616.75 598.166 618.113 597.767C619.736 597.086 621.371 596.403 623.017 595.717L623.036 595.727ZM627.536 594.685L623.635 595.602L618.989 597.492C620.337 597.093 621.707 596.669 623.051 596.269C624.536 595.744 626.025 595.209 627.517 594.664L627.536 594.685ZM631.66 593.671C630.597 593.921 629.522 594.181 628.458 594.438L624.971 595.696L631.66 593.671ZM36.8621 571.408C37.7453 571.853 38.6668 572.305 39.5923 572.76C37.7952 571.551 36.0672 570.366 34.4276 569.213C35.2225 569.935 36.048 570.672 36.8621 571.408ZM33.4062 569.671C34.4161 570.193 35.4221 570.714 36.4781 571.249C35.5604 570.422 34.658 569.605 33.7902 568.817C32.7957 568.122 31.8702 567.427 30.9256 566.732C31.755 567.684 32.5845 568.657 33.4254 569.658L33.4062 569.671ZM29.9925 567.886C31.0139 568.428 32.0584 568.977 33.1528 569.543C32.2773 568.501 31.421 567.49 30.5992 566.486C29.5855 565.749 28.6255 565.03 27.6848 564.325C28.4451 565.482 29.2207 566.67 30.0117 567.872L29.9925 567.886ZM26.5981 566.062C27.6195 566.618 28.6793 567.191 29.789 567.778C28.9801 566.548 28.1968 565.335 27.439 564.137C26.4176 563.369 25.4461 562.622 24.5053 561.889C25.1914 563.254 25.8954 564.64 26.6173 566.048L26.5981 566.062ZM23.219 564.186C24.2365 564.759 25.3002 565.35 26.4214 565.964C25.6919 564.533 24.9853 563.126 24.3057 561.733C23.2817 560.932 22.3038 560.156 21.372 559.405C21.971 560.966 22.5931 562.555 23.2382 564.172L23.219 564.186ZM19.8629 562.261C20.8638 562.845 21.9301 563.457 23.0615 564.099C22.4164 562.464 21.7957 560.852 21.1992 559.263C20.1624 558.426 19.1909 557.62 18.277 556.855C18.7941 558.62 19.3292 560.417 19.8821 562.247L19.8629 562.261ZM16.5222 560.277C17.4975 560.868 18.5727 561.507 19.717 562.174C19.1564 560.321 18.6252 558.504 18.1235 556.723C17.0752 555.841 16.0998 554.986 15.2167 554.225C15.6467 556.202 16.0845 558.214 16.5414 560.263L16.5222 560.277ZM13.2084 558.217C14.1492 558.815 15.1821 559.461 16.3878 560.194C15.9245 558.13 15.4854 556.098 15.0707 554.097C13.9725 553.128 13.0279 552.266 12.187 551.484C12.5249 553.683 12.859 555.921 13.2276 558.203L13.2084 558.217ZM9.91377 556.063C10.7163 556.605 11.7646 557.297 13.074 558.148C12.69 555.855 12.3713 553.604 12.0526 551.38C10.8161 550.227 9.87153 549.296 9.19187 548.629C9.42995 551.047 9.66802 553.524 9.93297 556.049L9.91377 556.063ZM592.19 598.997C590.743 599.208 589.291 599.42 587.851 599.625C585.597 601.362 583.428 602.974 581.193 604.684C582.679 604.385 584.184 604.065 585.678 603.756C587.886 602.134 590.005 600.619 592.21 598.983L592.19 598.997ZM596.771 598.302C595.324 598.514 593.865 598.736 592.421 598.944C590.228 600.574 588.112 602.071 585.935 603.687C587.425 603.377 588.93 603.054 590.424 602.742C592.57 601.244 594.644 599.827 596.79 598.305L596.771 598.302ZM601.337 597.624L597.009 598.263C594.874 599.782 592.812 601.192 590.693 602.686L595.147 601.748C597.244 600.358 599.267 599.042 601.356 597.628L601.337 597.624ZM605.883 596.929C604.447 597.148 603.019 597.357 601.587 597.569C599.509 598.958 597.497 600.285 595.443 601.672C596.917 601.362 598.38 601.06 599.859 600.744C601.89 599.476 603.867 598.257 605.903 596.95L605.883 596.929ZM610.422 596.235C608.99 596.457 607.573 596.662 606.148 596.877C604.125 598.177 602.159 599.386 600.15 600.664C601.617 600.351 603.076 600.046 604.555 599.723C606.54 598.58 608.464 597.464 610.441 596.269L610.422 596.235ZM615.03 595.502C613.594 595.724 612.135 595.967 610.702 596.196C608.74 597.381 606.832 598.486 604.881 599.671C606.367 599.344 607.876 598.976 609.362 598.663C611.286 597.617 613.148 596.61 615.057 595.536L615.03 595.502ZM619.638 594.769C618.213 594.994 616.781 595.227 615.356 595.463C613.471 596.53 611.628 597.524 609.75 598.569C611.221 598.243 612.699 597.906 614.17 597.576C616.009 596.655 617.806 595.755 619.645 594.803L619.638 594.769ZM624.192 594.042L619.968 594.716C618.152 595.658 616.382 596.54 614.592 597.468C616.032 597.145 617.468 596.825 618.916 596.495C620.686 595.703 622.445 594.914 624.2 594.077L624.192 594.042ZM628.685 593.327C627.302 593.553 625.947 593.761 624.576 593.983C622.833 594.803 621.12 595.575 619.4 596.384C620.79 596.071 622.168 595.773 623.57 595.446C625.286 594.769 626.972 594.088 628.692 593.362L628.685 593.327ZM633.196 592.628C631.841 592.854 630.478 593.087 629.126 593.323C627.46 594.018 625.824 594.685 624.165 595.38C625.567 595.05 626.984 594.706 628.389 594.379C630.005 593.764 631.595 593.202 633.196 592.628ZM637.674 591.864L633.784 592.528C632.279 593.08 630.804 593.601 629.307 594.143L633.323 593.184C634.786 592.722 636.226 592.298 637.685 591.847L637.674 591.864ZM641.66 591.169L638.499 591.708C637.347 592.055 636.195 592.403 635.043 592.75C637.259 592.229 639.459 591.708 641.671 591.169H641.66ZM43.5435 575.237C44.4843 575.536 45.4634 575.841 46.4464 576.147C44.5611 575.272 42.7333 574.41 40.99 573.562C41.8232 574.115 42.6718 574.674 43.5435 575.237ZM39.8457 574.045C40.917 574.393 42.0229 574.74 43.148 575.112C42.1611 574.466 41.2088 573.833 40.2681 573.208C39.2031 572.687 38.1664 572.174 37.1578 571.669C38.0333 572.454 38.9241 573.246 39.8457 574.045ZM36.1632 572.829C37.2806 573.201 38.4019 573.576 39.5846 573.962C38.6284 573.128 37.7107 572.308 36.8007 571.495C35.6948 570.939 34.6465 570.401 33.602 569.866C34.4391 570.846 35.2839 571.829 36.1632 572.826V572.829ZM32.4961 571.586C33.6135 571.971 34.7617 572.36 35.952 572.76C35.0535 571.739 34.1934 570.734 33.3448 569.737C32.2312 569.164 31.1675 568.605 30.1269 568.056C30.8988 569.223 31.6782 570.394 32.4961 571.586ZM28.8406 570.318C29.9541 570.711 31.1138 571.114 32.3195 571.527C31.4901 570.318 30.7029 569.129 29.9273 567.948C28.806 567.354 27.7347 566.777 26.7018 566.211C27.3968 567.57 28.0995 568.931 28.8406 570.318ZM25.1965 569.004C26.3075 569.405 27.4697 569.82 28.6831 570.248C27.9152 568.858 27.224 567.469 26.5251 566.103C25.3962 565.489 24.3249 564.891 23.2996 564.314C23.914 565.878 24.5361 567.431 25.1965 569.004ZM21.564 567.667C22.6622 568.077 23.8244 568.504 25.0506 568.949C24.3863 567.351 23.7604 565.787 23.1307 564.227C21.9787 563.585 20.9227 562.97 19.9128 562.383C20.4543 564.141 20.9918 565.878 21.564 567.681V567.667ZM17.9468 566.277C19.022 566.692 20.1829 567.132 21.4296 567.597C20.8498 565.798 20.3083 564.036 19.7784 562.278C18.6265 561.608 17.5551 560.969 16.576 560.375C17.0137 562.355 17.463 564.311 17.9468 566.308V566.277ZM14.345 564.86C15.3779 565.273 16.5299 565.728 17.8009 566.225C17.3132 564.217 16.864 562.251 16.4224 560.291C15.2205 559.562 14.1799 558.902 13.2353 558.311C13.5962 560.503 13.9495 562.674 14.345 564.891V564.86ZM10.7509 563.414C11.6763 563.804 12.8206 564.28 14.2068 564.839C13.8228 562.612 13.4388 560.43 13.1124 558.259C11.7992 557.425 10.7547 556.737 9.94065 556.174C10.2018 558.582 10.459 560.969 10.7509 563.414ZM598.902 594.018L594.679 594.366C592.444 596.103 590.251 597.777 588.036 599.49C589.476 599.285 590.935 599.07 592.386 598.858C594.563 597.239 596.718 595.668 598.902 594.018ZM603.33 593.671L599.106 594.018C596.929 595.647 594.786 597.221 592.624 598.826L596.982 598.177C599.102 596.662 601.191 595.199 603.33 593.671ZM607.753 593.323L603.529 593.671C601.406 595.189 599.306 596.655 597.213 598.152L601.548 597.51C603.629 596.103 605.668 594.73 607.753 593.323ZM612.162 592.976L607.965 593.323C605.895 594.737 603.864 596.103 601.821 597.492C603.257 597.28 604.689 597.072 606.133 596.853C608.141 595.519 610.13 594.265 612.162 592.948V592.976ZM616.57 592.628C615.164 592.747 613.782 592.854 612.384 592.976C610.368 594.282 608.387 595.533 606.383 596.822C607.819 596.603 609.243 596.394 610.683 596.172C612.653 594.939 614.588 593.796 616.57 592.59V592.628ZM621.013 592.236L616.789 592.608C614.826 593.799 612.903 594.942 610.956 596.12C612.4 595.894 613.863 595.654 615.306 595.425C617.226 594.317 619.1 593.285 621.013 592.198V592.236ZM625.448 591.843L621.262 592.215C619.373 593.289 617.514 594.3 615.633 595.377L619.945 594.682C621.784 593.695 623.597 592.778 625.448 591.805V591.843ZM629.863 591.454L625.716 591.822C623.892 592.778 622.099 593.692 620.287 594.633L624.545 593.938C626.323 593.077 628.074 592.281 629.863 591.416V591.454ZM634.252 591.069C632.882 591.194 631.522 591.308 630.159 591.416C628.4 592.257 626.672 593.056 624.925 593.883C626.319 593.657 627.702 593.445 629.103 593.216C630.823 592.465 632.521 591.77 634.252 591.03V591.069ZM638.661 590.662L634.583 591.041C632.893 591.76 631.23 592.43 629.549 593.16L633.772 592.465C635.401 591.809 637.013 591.239 638.661 590.624V590.662ZM643.061 590.245C641.729 590.37 640.373 590.502 639.052 590.624C637.474 591.211 635.919 591.77 634.348 592.361L638.48 591.666C640.012 591.135 641.521 590.686 643.061 590.197V590.245ZM647.358 589.839L643.549 590.186C642.128 590.627 640.723 591.055 639.325 591.489L643.219 590.829C644.589 590.464 645.96 590.144 647.358 589.8V589.839ZM651.255 589.467L648.034 589.773L644.751 590.579C646.916 590.172 649.07 589.814 651.244 589.429L651.255 589.467ZM50.6972 578.027L53.8344 578.555C51.8069 577.95 49.8486 577.355 47.9594 576.769C48.8733 577.148 49.7718 577.565 50.7087 577.988L50.6972 578.027ZM46.7728 577.36C47.9248 577.558 49.1113 577.759 50.2979 577.961C49.2342 577.478 48.2013 577.002 47.176 576.526C46.0625 576.178 44.9374 575.831 43.8737 575.484C44.8375 576.074 45.7898 576.693 46.7844 577.321L46.7728 577.36ZM42.8485 576.665C44.0388 576.877 45.2522 577.089 46.5079 577.304C45.4711 576.651 44.4689 576.005 43.4821 575.362C42.2994 574.987 41.1781 574.619 40.0262 574.254C40.9708 575.022 41.8962 575.821 42.86 576.647L42.8485 576.665ZM38.928 575.97L42.6411 576.634C41.662 575.803 40.7212 574.987 39.7766 574.17C38.5747 573.781 37.4266 573.399 36.2938 573.02C37.1654 573.962 38.0333 574.942 38.9395 575.953L38.928 575.97ZM35.0151 575.254L38.7513 575.949C37.8374 574.942 36.9543 573.948 36.0634 572.961C34.8577 572.558 33.698 572.166 32.5653 571.777C33.4062 572.885 34.1742 574.045 35.0266 575.22L35.0151 575.254ZM31.1099 574.528L34.8615 575.223C34.0167 574.038 33.2065 572.868 32.4078 571.704L28.9058 570.488C29.6316 571.784 30.3612 573.132 31.1215 574.494L31.1099 574.528ZM27.2086 573.781C28.4067 574.013 29.6597 574.253 30.9679 574.5C30.1999 573.132 29.4626 571.777 28.7446 570.436C27.5235 570.005 26.3562 569.588 25.2426 569.185C25.8851 570.686 26.5443 572.206 27.2201 573.747L27.2086 573.781ZM23.315 573.017C24.5015 573.253 25.7495 573.5 27.0742 573.754C26.3907 572.197 25.7315 570.656 25.0967 569.129C23.8602 568.685 22.7006 568.254 21.5985 567.844C22.1566 569.528 22.7326 571.241 23.3265 572.982L23.315 573.017ZM19.429 572.232C20.581 572.472 21.8405 572.725 23.1844 572.993C22.5854 571.242 22.0107 569.505 21.4603 567.781C20.2085 567.316 19.045 566.871 17.9699 566.458C18.4434 568.341 18.9337 570.254 19.4405 572.197L19.429 572.232ZM15.5507 571.426C16.6681 571.666 17.9391 571.926 19.3023 572.207C18.7903 570.26 18.3014 568.329 17.8355 566.416C16.5491 565.919 15.3933 565.464 14.3565 565.047C14.7443 567.114 15.1437 569.248 15.5622 571.391L15.5507 571.426ZM11.6801 570.592C12.7169 570.821 13.9457 571.089 15.4278 571.402C15.0055 569.248 14.6023 567.107 14.2298 564.995C12.8398 564.436 11.6878 563.953 10.7739 563.571C11.0542 565.85 11.3652 568.195 11.6916 570.557L11.6801 570.592ZM605.492 589.05L601.406 589.081C599.229 590.787 596.979 592.597 594.817 594.293L599.041 593.945C601.172 592.326 603.372 590.62 605.503 589.015L605.492 589.05ZM609.762 589.015L605.676 589.05C603.549 590.648 601.356 592.351 599.244 593.931L603.468 593.584C605.549 592.073 607.696 590.478 609.773 588.981L609.762 589.015ZM614.028 588.977L609.946 589.012C607.876 590.506 605.722 592.093 603.687 593.57L607.911 593.223C609.931 591.815 612.016 590.336 614.039 588.942L614.028 588.977ZM618.29 588.942L614.22 588.977C612.2 590.367 610.126 591.84 608.122 593.209L612.346 592.861C614.304 591.562 616.332 590.197 618.302 588.908L618.29 588.942ZM622.552 588.904L618.49 588.939C616.524 590.221 614.504 591.583 612.553 592.847L616.754 592.5C618.67 591.305 620.644 590.051 622.564 588.869L622.552 588.904ZM626.818 588.863L622.76 588.904C620.84 590.075 618.885 591.336 617 592.483L621.224 592.111C623.071 591.027 624.975 589.891 626.83 588.828L626.818 588.863ZM631.081 588.821L627.033 588.859C625.19 589.901 623.297 591.044 621.466 592.086L625.689 591.718C627.464 590.745 629.303 589.734 631.092 588.786L631.081 588.821ZM635.339 588.776L631.311 588.817C629.533 589.759 627.705 590.766 625.935 591.694L630.109 591.326C631.845 590.468 633.619 589.578 635.351 588.741L635.339 588.776ZM639.586 588.734L635.585 588.776C633.868 589.603 632.129 590.485 630.409 591.298C631.787 591.176 633.154 591.062 634.54 590.951C636.215 590.197 637.927 589.418 639.598 588.699L639.586 588.734ZM643.81 588.689L639.839 588.73C638.184 589.425 636.495 590.204 634.848 590.905L638.991 590.52C640.615 589.894 642.247 589.252 643.841 588.654L643.81 588.689ZM648.034 588.637L644.109 588.682C642.543 589.272 640.941 589.901 639.379 590.485L643.484 590.092C645.023 589.589 646.563 589.078 648.072 588.602L648.034 588.637ZM652.227 588.588L648.387 588.633C646.924 589.095 645.427 589.592 643.967 590.047L647.972 589.669C649.42 589.286 650.86 588.908 652.265 588.553L652.227 588.588ZM656.32 588.539L652.668 588.581C651.336 588.928 649.981 589.276 648.652 589.603L652.438 589.255C653.763 588.984 655.084 588.734 656.359 588.505L656.32 588.539ZM660.026 588.498L656.954 588.532C655.863 588.727 654.757 588.935 653.667 589.13L660.026 588.498ZM58.4115 579.75L61.6601 579.896C59.5251 579.551 57.4516 579.214 55.4395 578.885L58.4115 579.75ZM54.2491 579.559L57.97 579.729C56.8449 579.399 55.7044 579.072 54.6139 578.749L51.0735 578.155C52.1064 578.621 53.1855 579.079 54.2491 579.559ZM50.0905 579.368L53.9611 579.545C52.8552 579.059 51.7417 578.569 50.6742 578.089L47.0109 577.467C47.9978 578.093 49.0576 578.732 50.0905 579.368ZM45.9319 579.173L49.8716 579.357C48.8195 578.708 47.7597 578.058 46.7421 577.419L43.0136 576.766C43.9582 577.561 44.9489 578.385 45.9319 579.173ZM41.7733 578.975L45.7553 579.163C44.7607 578.35 43.7585 577.533 42.8062 576.731L39.0508 576.06C39.934 577.023 40.8556 577.999 41.7733 578.975ZM37.6301 578.774L41.6312 578.968C40.702 577.982 39.7727 576.998 38.8896 576.029C37.5917 575.796 36.3399 575.567 35.1226 575.334C35.9213 576.474 36.7699 577.624 37.6301 578.774ZM33.4792 578.569L37.488 578.767C36.6355 577.61 35.7792 576.453 34.969 575.313L31.1983 574.619C31.9163 575.918 32.692 577.242 33.4676 578.569H33.4792ZM29.3244 578.36L33.3448 578.562C32.5768 577.228 31.8088 575.897 31.0408 574.584L27.2624 573.868C27.9228 575.348 28.6179 576.852 29.3129 578.36H29.3244ZM25.1735 578.148L29.1938 578.353C28.4988 576.839 27.8038 575.327 27.1472 573.837C25.8186 573.58 24.5668 573.333 23.3764 573.097C23.937 574.764 24.5476 576.456 25.162 578.148H25.1735ZM21.0226 577.933L25.0468 578.145C24.4324 576.443 23.818 574.744 23.2459 573.069C21.9019 572.802 20.6501 572.551 19.4789 572.312C19.9666 574.167 20.4811 576.046 21.011 577.933H21.0226ZM16.8716 577.714L20.8997 577.926C20.3698 576.036 19.8437 574.146 19.3637 572.284C17.9967 572.006 16.7257 571.742 15.6006 571.502C15.9808 573.552 16.4185 575.629 16.8601 577.714H16.8716ZM12.7246 577.488L16.7526 577.707C16.3072 575.623 15.8733 573.538 15.4701 571.478C13.9879 571.165 12.7591 570.898 11.7147 570.665C12.0142 572.916 12.3598 575.199 12.713 577.488H12.7246ZM612.204 583.943L608.245 583.672C606.014 585.43 603.764 587.223 601.548 588.956L605.641 588.925C607.811 587.275 610.019 585.586 612.204 583.943ZM616.312 584.235L612.369 583.954C610.188 585.607 607.988 587.292 605.841 588.922L609.934 588.887C612.031 587.348 614.181 585.771 616.301 584.221L616.312 584.235ZM620.421 584.527L616.478 584.245C614.354 585.791 612.211 587.372 610.103 588.887L614.189 588.852C616.251 587.417 618.344 585.951 620.421 584.513V584.527ZM624.534 584.819L620.594 584.537C618.524 585.972 616.435 587.435 614.381 588.849L618.463 588.817C620.471 587.49 622.51 586.135 624.534 584.805V584.819ZM628.65 585.11C627.329 585.013 626.024 584.926 624.71 584.833C622.694 586.156 620.663 587.508 618.659 588.814L622.733 588.779C624.691 587.563 626.669 586.316 628.65 585.097V585.11ZM632.743 585.42C631.442 585.322 630.128 585.218 628.831 585.124C626.868 586.34 624.887 587.581 622.94 588.779L627.014 588.737C628.911 587.636 630.835 586.507 632.743 585.406V585.42ZM636.833 585.729L632.932 585.434C631.012 586.531 629.115 587.654 627.229 588.734L631.292 588.692C633.127 587.709 634.99 586.702 636.833 585.715V585.729ZM640.926 586.038L637.033 585.743C635.197 586.722 633.346 587.723 631.522 588.692L635.566 588.651C637.344 587.765 639.144 586.893 640.926 586.028V586.038ZM645.023 586.347L641.137 586.052C639.363 586.917 637.578 587.789 635.815 588.647L639.843 588.605C641.56 587.852 643.299 587.07 645.023 586.333V586.347ZM649.101 586.663L645.261 586.365C643.549 587.108 641.805 587.869 640.124 588.605L644.132 588.56C645.772 587.924 647.446 587.282 649.101 586.649V586.663ZM653.16 586.99L649.347 586.684C647.707 587.306 646.056 587.942 644.428 588.557L648.41 588.508C649.984 587.997 651.578 587.48 653.164 586.976L653.16 586.99ZM657.203 587.313L653.433 587.011C651.897 587.508 650.315 588.015 648.763 588.505L652.692 588.46C654.189 588.07 655.702 587.681 657.203 587.299V587.313ZM661.228 587.636L657.526 587.341C656.063 587.709 654.592 588.088 653.137 588.453L656.977 588.407C658.382 588.143 659.807 587.879 661.228 587.622V587.636ZM665.194 587.952L661.631 587.667L657.591 588.4L661.228 588.359L665.194 587.952ZM668.761 588.255C667.759 588.175 666.757 588.084 665.755 588.001L662.41 588.348L668.761 588.255ZM66.5137 580.573L69.8774 580.375L63.4802 580.094L66.5137 580.573ZM62.1439 580.837L66.026 580.601L62.5701 580.052L58.8378 579.885C59.9206 580.188 61.0188 580.504 62.1439 580.816V580.837ZM57.7664 581.108L61.829 580.855C60.654 580.507 59.5251 580.195 58.3731 579.865L54.4949 579.687C55.5815 580.146 56.6567 580.618 57.7664 581.094V581.108ZM53.3813 581.383L57.5322 581.122C56.4033 580.636 55.3089 580.156 54.2222 579.677L50.2748 579.493C51.2924 580.122 52.3215 580.733 53.3736 581.369L53.3813 581.383ZM49 581.668L53.197 581.393C52.1218 580.75 51.0889 580.118 50.0559 579.482L46.0663 579.295C47.0263 580.069 47.9978 580.858 49 581.654V581.668ZM44.6148 581.959L48.8387 581.678C47.825 580.875 46.8535 580.08 45.882 579.288L41.8731 579.097C42.7755 580.031 43.6741 580.983 44.6148 581.946V581.959ZM40.222 582.258L44.4689 581.97C43.5281 581.001 42.6219 580.045 41.7196 579.09L37.6992 578.895C38.5248 579.997 39.358 581.112 40.222 582.244V582.258ZM35.8292 582.564L40.0914 582.265C39.2198 581.129 38.3827 580.007 37.5571 578.888L33.5291 578.69C34.2779 579.962 35.0382 581.247 35.8292 582.553V582.564ZM31.4325 582.877L35.7101 582.553C34.9153 581.247 34.1742 579.955 33.4062 578.666L29.3743 578.464C30.0348 579.924 30.7183 581.386 31.4325 582.863V582.877ZM27.0281 583.2L31.3096 582.887C30.5916 581.404 29.9081 579.937 29.2361 578.475L25.2004 578.27C25.7917 579.892 26.3946 581.529 27.0281 583.186V583.2ZM22.6238 583.547L26.9091 583.221C26.2717 581.556 25.6688 579.913 25.0736 578.273L21.0379 578.065C21.5525 579.858 22.0709 581.678 22.6238 583.523V583.547ZM18.2118 583.895L22.5048 583.547C21.9518 581.699 21.4296 579.871 20.9189 578.051L16.8947 577.818C17.3094 579.823 17.7471 581.834 18.2118 583.867V583.895ZM13.7997 584.242L18.0966 583.895C17.6281 581.855 17.1904 579.84 16.7641 577.829L12.7284 577.61C13.0548 579.792 13.4388 581.994 13.7997 584.221V584.242ZM9.38003 584.617C10.3323 584.534 11.7531 584.412 13.6807 584.252C13.2967 582.018 12.9473 579.809 12.6094 577.606L8.57749 577.377C8.83092 579.774 9.0882 582.164 9.38003 584.596V584.617ZM618.989 578.781C617.71 578.586 616.432 578.398 615.149 578.211C612.872 580.017 610.622 581.782 608.36 583.564L612.327 583.835C614.546 582.15 616.754 580.486 618.989 578.781ZM622.936 579.402C621.669 579.208 620.402 578.996 619.135 578.805C616.908 580.504 614.707 582.168 612.496 583.846L616.447 584.127C618.605 582.553 620.755 580.997 622.932 579.402H622.936ZM626.884 580.028L623.082 579.427C620.917 581.018 618.77 582.553 616.612 584.138L620.559 584.419C622.664 582.956 624.749 581.511 626.88 580.028H626.884ZM630.839 580.653L627.037 580.052C624.925 581.532 622.813 582.974 620.732 584.43L624.68 584.711C626.726 583.363 628.769 582.022 630.835 580.653H630.839ZM634.805 581.282C633.534 581.073 632.267 580.882 630.996 580.677C628.938 582.043 626.903 583.377 624.852 584.725C626.169 584.819 627.479 584.905 628.8 585.003C630.8 583.766 632.789 582.553 634.802 581.282H634.805ZM638.726 581.942C637.474 581.734 636.218 581.511 634.967 581.306C632.962 582.56 630.977 583.783 628.984 585.017L632.905 585.312C634.84 584.19 636.771 583.078 638.722 581.942H638.726ZM642.643 582.606L638.891 581.97C636.948 583.102 635.024 584.211 633.093 585.326L637.009 585.621C638.883 584.638 640.753 583.624 642.639 582.606H642.643ZM646.567 583.273C645.319 583.061 644.067 582.845 642.815 582.637C640.938 583.648 639.075 584.638 637.205 585.639L641.114 585.934C642.931 585.048 644.739 584.172 646.563 583.273H646.567ZM650.507 583.943C649.251 583.724 648.003 583.519 646.747 583.304C644.931 584.197 643.13 585.069 641.326 585.948L645.231 586.243C646.985 585.479 648.736 584.721 650.503 583.943H650.507ZM654.412 584.638L650.695 583.981C648.94 584.753 647.201 585.506 645.453 586.267L649.332 586.57C651.021 585.923 652.711 585.284 654.408 584.638H654.412ZM658.286 585.333C657.061 585.11 655.836 584.881 654.612 584.662C652.926 585.312 651.255 585.944 649.577 586.58L653.417 586.889C655.038 586.375 656.654 585.861 658.282 585.333H658.286ZM662.161 586.028L658.505 585.361C656.896 585.882 655.299 586.403 653.698 586.9L657.518 587.205C659.062 586.827 660.606 586.441 662.157 586.028H662.161ZM666.039 586.722C664.829 586.497 663.616 586.278 662.406 586.059C660.87 586.451 659.361 586.834 657.841 587.219L661.631 587.522L666.039 586.722ZM669.921 587.417C668.727 587.191 667.529 586.979 666.331 586.761C664.895 587.025 663.466 587.282 662.034 587.539L665.759 587.841L669.921 587.417ZM673.611 588.136C672.498 587.924 671.384 587.699 670.274 587.487L666.315 587.89L669.825 588.185L673.611 588.136ZM676.994 588.793L674.107 588.234L670.881 588.275L676.994 588.793ZM75.069 580.469L78.4557 579.962L71.9279 580.333L75.069 580.469ZM70.4611 581.164L74.516 580.552L70.8835 580.4L66.9822 580.625L70.4611 581.164ZM65.8878 581.859C67.2855 581.643 68.6756 581.424 70.1117 581.206L66.483 580.646L62.4204 580.889C63.5749 581.225 64.7358 581.554 65.9032 581.876L65.8878 581.859ZM61.2799 582.578L65.6228 581.883C64.4325 581.554 63.2588 581.225 62.1017 580.896L57.9469 581.153C59.0605 581.644 60.1817 582.125 61.3107 582.595L61.2799 582.578ZM56.6721 583.311L61.0803 582.616C59.9283 582.14 58.8147 581.661 57.7127 581.188L53.508 581.452C54.5793 582.081 55.6353 582.706 56.7066 583.328L56.6721 583.311ZM52.0642 584.068C53.5234 583.825 54.9748 583.585 56.5031 583.339C55.4203 582.711 54.3566 582.083 53.3122 581.456L49.0883 581.734C50.0867 582.512 51.0927 583.296 52.1064 584.086L52.0642 584.068ZM47.4563 584.836L51.926 584.089C50.902 583.304 49.9023 582.522 48.927 581.744L44.6763 582.025C45.6106 582.968 46.5488 583.911 47.4909 584.853L47.4563 584.836ZM42.8485 585.621C44.3 585.371 45.8052 585.114 47.3373 584.857C46.3901 583.912 45.4596 582.972 44.5457 582.036L40.2758 582.324C41.1282 583.429 41.9935 584.534 42.8715 585.639L42.8485 585.621ZM38.2176 586.424C39.6652 586.17 41.182 585.906 42.7256 585.642C41.8424 584.534 40.9861 583.429 40.1452 582.335L35.8676 582.63C36.6547 583.905 37.4342 585.169 38.2406 586.441L38.2176 586.424ZM33.579 587.244L38.0985 586.444C37.2922 585.168 36.5063 583.895 35.7408 582.623L31.4594 582.929C32.1698 584.391 32.8725 585.823 33.602 587.261L33.579 587.244ZM28.9558 588.112L33.4868 587.289C32.7573 585.847 32.0507 584.409 31.3557 582.981C29.8581 583.087 28.4297 583.193 27.0704 583.297C27.6822 584.886 28.3107 586.491 28.9558 588.112ZM24.3018 588.977L28.8406 588.112C28.1878 586.493 27.5619 584.885 26.9475 583.283L22.6545 583.61C23.1883 585.395 23.7297 587.178 24.3018 588.97V588.977ZM19.6364 589.849C21.0418 589.578 22.5355 589.29 24.1866 588.981C23.6145 587.181 23.0692 585.395 22.5355 583.617L18.2386 583.964C18.6879 585.923 19.1487 587.886 19.6364 589.849ZM14.9747 590.78L19.5327 589.884C19.0412 587.904 18.5804 585.937 18.1311 583.978L13.8305 584.325C14.1837 586.469 14.5562 588.616 14.9747 590.78ZM10.2901 591.736C11.4113 591.499 12.9204 591.19 14.8557 590.805C14.4717 588.633 14.0877 586.479 13.7037 584.336C11.7838 584.496 10.3515 584.617 9.39539 584.683C9.67186 587.035 9.95601 589.373 10.2786 591.736H10.2901ZM625.847 573.58C624.61 573.278 623.378 572.993 622.141 572.704C619.837 574.56 617.58 576.293 615.276 578.12C616.556 578.308 617.836 578.499 619.116 578.694C621.358 576.967 623.558 575.331 625.835 573.58H625.847ZM629.625 574.539C628.412 574.236 627.198 573.91 625.981 573.611C623.708 575.348 621.516 576.995 619.258 578.718C620.525 578.909 621.796 579.121 623.059 579.316C625.252 577.69 627.398 576.175 629.614 574.539H629.625ZM633.415 575.501C632.198 575.192 630.981 574.876 629.764 574.573C627.552 576.206 625.409 577.731 623.209 579.343C624.476 579.538 625.747 579.743 627.014 579.941C629.149 578.444 631.242 577.023 633.404 575.501H633.415ZM637.213 576.463L633.554 575.536C631.396 577.054 629.31 578.471 627.168 579.965L630.977 580.57C633.054 579.184 635.116 577.87 637.201 576.463H637.213ZM641.022 577.429C639.797 577.11 638.576 576.811 637.355 576.498C635.255 577.888 633.219 579.211 631.134 580.594C632.405 580.796 633.673 580.99 634.947 581.199C636.971 579.927 638.956 578.732 641.011 577.429H641.022ZM644.77 578.444C643.568 578.124 642.366 577.784 641.164 577.467C639.121 578.756 637.14 579.955 635.109 581.223C636.364 581.428 637.62 581.65 638.876 581.859C640.838 580.705 642.769 579.614 644.758 578.444H644.77ZM648.51 579.486C647.312 579.159 646.114 578.822 644.916 578.499C642.934 579.663 641.007 580.75 639.041 581.9L642.8 582.54C644.716 581.511 646.575 580.518 648.498 579.472L648.51 579.486ZM652.261 580.528C651.061 580.195 649.86 579.865 648.66 579.538C646.74 580.58 644.877 581.553 642.973 582.581L646.74 583.221C648.575 582.286 650.388 581.424 652.25 580.504L652.261 580.528ZM656.028 581.57C654.823 581.223 653.621 580.91 652.415 580.577C650.564 581.497 648.76 582.352 646.916 583.259C648.172 583.471 649.432 583.679 650.687 583.898C652.465 583.082 654.22 582.335 656.017 581.539L656.028 581.57ZM659.757 582.63L656.19 581.612C654.4 582.408 652.657 583.148 650.875 583.929L654.608 584.589C656.32 583.898 658.014 583.273 659.745 582.599L659.757 582.63ZM663.436 583.721C662.284 583.373 661.093 583.026 659.926 582.679C658.202 583.346 656.52 583.964 654.807 584.624C656.04 584.843 657.273 585.076 658.505 585.298C660.141 584.735 661.769 584.232 663.424 583.69L663.436 583.721ZM667.126 584.815C665.974 584.468 664.787 584.12 663.616 583.773C661.969 584.311 660.36 584.815 658.724 585.34L662.41 586.01C663.977 585.576 665.532 585.194 667.114 584.784L667.126 584.815ZM670.835 585.913C669.683 585.566 668.493 585.218 667.322 584.871C665.755 585.277 664.219 585.656 662.656 586.055L666.339 586.726C667.832 586.42 669.314 586.16 670.827 585.882L670.835 585.913ZM674.552 587.021C673.4 586.674 672.221 586.326 671.058 585.979C669.572 586.257 668.109 586.511 666.63 586.785C667.851 587.007 669.069 587.226 670.29 587.459C671.703 587.278 673.131 587.139 674.541 586.99L674.552 587.021ZM678.092 588.15C676.994 587.803 675.9 587.456 674.802 587.108C673.408 587.254 672.029 587.386 670.639 587.528C671.791 587.751 672.966 587.987 674.126 588.223L678.092 588.15ZM681.548 589.255C680.496 588.908 679.444 588.56 678.392 588.248L674.61 588.3L677.95 588.949L681.548 589.255ZM684.743 590.273C683.825 589.978 682.911 589.686 681.994 589.397L678.899 589.133C680.849 589.477 682.796 589.849 684.747 590.242L684.743 590.273ZM83.989 579.566L87.5217 578.77C85.2178 579.093 83.006 579.416 80.8058 579.736L83.989 579.566ZM79.2391 580.657C80.6176 580.337 81.9731 580.021 83.3862 579.701L79.6384 579.906L75.6142 580.504L79.2391 580.657ZM74.4431 581.772C75.883 581.424 77.3844 581.077 78.8589 580.73L75.0766 580.566C73.6521 580.778 72.2044 580.994 70.8182 581.206L74.4431 581.772ZM69.6701 582.901C71.1638 582.553 72.6383 582.185 74.1743 581.824L70.4765 581.265C68.9943 581.49 67.5773 581.713 66.1451 581.935L69.6701 582.901ZM64.8702 584.058C66.3755 583.692 67.905 583.322 69.4589 582.95L65.8955 581.973L61.4911 582.668C62.5893 583.137 63.7413 583.596 64.8702 584.068V584.058ZM60.055 585.242C61.5641 584.867 63.1269 584.485 64.6974 584.103C63.5455 583.63 62.3935 583.161 61.2953 582.713C59.7977 582.95 58.2887 583.186 56.8487 583.408C57.897 584.023 58.976 584.638 60.055 585.253V585.242ZM55.2436 586.451C56.7796 586.062 58.3155 585.677 59.9091 585.277C58.8186 584.659 57.7396 584.04 56.6836 583.429C55.1476 583.676 53.6885 583.919 52.2178 584.162C53.2047 584.93 54.2222 585.698 55.2436 586.462V586.451ZM50.4131 587.685L55.1092 586.486C54.084 585.715 53.0664 584.947 52.0757 584.186L47.5831 584.933C48.5008 585.857 49.4531 586.775 50.4131 587.695V587.685ZM45.5671 588.942L50.2863 587.716C49.3302 586.792 48.3664 585.871 47.4525 584.937L42.9445 585.701C43.7931 586.799 44.6801 587.876 45.5671 588.953V588.942ZM40.7097 590.228C42.2456 589.821 43.8315 589.401 45.4481 588.974C44.5611 587.893 43.674 586.813 42.8216 585.743L38.2982 586.524C39.0777 587.765 39.8956 589.001 40.702 590.238L40.7097 590.228ZM35.8407 591.548C37.3766 591.128 38.9433 590.7 40.5945 590.259C39.7766 589.019 38.9625 587.779 38.1792 586.545C36.6163 586.82 35.1073 587.087 33.652 587.348C34.3585 588.751 35.0996 590.155 35.8407 591.558V591.548ZM30.9602 592.896C32.4961 592.469 34.0667 592.031 35.7293 591.579C34.9844 590.19 34.2395 588.765 33.5329 587.369L28.9942 588.192C29.6278 589.762 30.292 591.333 30.9602 592.906V592.896ZM26.0643 594.286C27.5696 593.855 29.1644 593.405 30.8488 592.938C30.1807 591.36 29.5126 589.787 28.879 588.227L24.3325 589.071C24.8855 590.798 25.4768 592.542 26.0643 594.286ZM21.157 595.703C22.643 595.269 24.2289 594.81 25.953 594.313C25.3616 592.576 24.7703 590.839 24.2173 589.102C22.5624 589.415 21.0686 589.703 19.6594 589.974C20.1355 591.868 20.6463 593.785 21.157 595.703ZM16.2304 597.162C17.6665 596.731 19.2524 596.259 21.0418 595.734C20.5311 593.813 20.0204 591.892 19.5442 589.988C17.8508 590.315 16.311 590.617 14.9786 590.884C15.3587 592.976 15.8042 595.06 16.2304 597.162ZM11.2923 598.67C12.5595 598.277 14.1568 597.788 16.119 597.197C15.689 595.095 15.2551 592.99 14.8634 590.905C12.9204 591.294 11.4075 591.6 10.2901 591.84C10.5973 594.101 10.9467 596.387 11.2923 598.67ZM17.4553 603.534C15.4509 604.317 13.7588 604.984 12.379 605.535C12.7399 607.689 13.1239 609.847 13.5309 612.011C15.017 611.316 16.7987 610.458 18.8492 609.502C18.3615 607.515 17.8931 605.521 17.4553 603.537V603.534ZM22.6238 601.547C20.7384 602.262 19.0988 602.895 17.5667 603.492C18.0044 605.472 18.4729 607.46 18.949 609.454C20.5515 608.706 22.3166 607.895 24.2442 607.022C23.6913 605.194 23.1422 603.367 22.6238 601.55V601.547ZM27.7769 599.618C25.9914 600.282 24.2941 600.918 22.7352 601.505C23.2535 603.322 23.7988 605.142 24.3517 606.966C25.9952 606.22 27.7539 605.428 29.6278 604.59C28.998 602.936 28.3721 601.272 27.7769 599.622V599.618ZM32.9147 597.735C31.1509 598.375 29.4754 598.988 27.8883 599.577C28.4796 601.227 29.1094 602.884 29.7353 604.545C31.4018 603.801 33.1528 603.028 34.9882 602.224C34.2855 600.73 33.579 599.229 32.9147 597.739V597.735ZM38.0333 595.894C36.29 596.516 34.6273 597.114 33.0414 597.694C33.7019 599.184 34.4123 600.681 35.1111 602.175C36.7853 601.442 38.5209 600.688 40.341 599.907C39.55 598.573 38.782 597.228 38.0333 595.898V595.894ZM43.1365 594.091C41.4047 594.699 39.7574 595.279 38.1446 595.856C38.878 597.187 39.6806 598.524 40.4485 599.862C42.1343 599.135 43.8545 598.402 45.6593 597.638C44.7991 596.45 43.9428 595.272 43.1365 594.095V594.091ZM48.2205 592.33L43.2286 594.067C44.035 595.241 44.8913 596.426 45.7322 597.607C47.4141 596.912 49.1305 596.176 50.9161 595.432C50.0252 594.393 49.096 593.358 48.2205 592.333V592.33ZM53.2968 590.593C51.6073 591.162 49.9369 591.729 48.3318 592.278C49.2073 593.299 50.1327 594.331 51.0198 595.359C52.6863 594.664 54.4334 593.952 56.1882 593.233C55.2321 592.371 54.2376 591.485 53.2968 590.61V590.593ZM58.3578 588.897C56.6682 589.458 55.0196 590.009 53.412 590.551C54.3489 591.426 55.332 592.309 56.3188 593.188C57.993 592.493 59.7056 591.798 61.4566 591.103C60.4198 590.384 59.36 589.648 58.3655 588.915L58.3578 588.897ZM63.3957 587.237C61.7062 587.785 60.0973 588.321 58.4807 588.859C59.4829 589.589 60.5388 590.325 61.5756 591.058C63.2536 590.363 64.9317 589.707 66.6788 589.012C65.5806 588.439 64.4594 587.845 63.3957 587.254V587.237ZM68.426 585.611L63.5301 587.191C64.5938 587.779 65.7112 588.373 66.8055 588.963C68.4605 588.307 70.1693 587.64 71.8857 586.969C70.7261 586.535 69.551 586.08 68.426 585.628V585.611ZM73.4408 584.016C71.7923 584.537 70.1718 585.053 68.5796 585.562C69.7046 586.01 70.8835 586.462 72.0355 586.914C73.6866 586.272 75.3659 585.622 77.0734 584.965C75.8523 584.666 74.6235 584.35 73.4408 584.033V584.016ZM78.4327 582.453C76.7892 582.96 75.2226 583.457 73.6328 583.96C74.8078 584.273 76.0328 584.586 77.2385 584.902C78.8858 584.27 80.5101 583.641 82.2035 582.998L78.4327 582.453ZM83.4246 580.921C81.8272 581.407 80.2029 581.9 78.6516 582.38C79.8727 582.56 81.1437 582.727 82.3955 582.922C84.0005 582.314 85.6786 581.695 87.3297 581.08L83.4246 580.921ZM88.378 579.413C86.796 579.889 85.2639 580.358 83.7202 580.827L87.5832 580.987C89.1729 580.393 90.7511 579.802 92.3792 579.204L88.378 579.413ZM93.343 577.936L88.8042 579.288L92.7132 579.083C94.2492 578.52 95.8235 577.95 97.3941 577.384L93.343 577.936ZM98.2926 576.488C96.8488 576.905 95.4216 577.321 94.0111 577.738L97.851 577.217C99.2948 576.696 100.739 576.175 102.213 575.647C100.885 575.941 99.5802 576.227 98.3003 576.505L98.2926 576.488ZM106.571 574.111C104.267 574.761 102.029 575.407 99.7978 576.053C100.831 575.831 101.91 575.605 102.958 575.386L106.571 574.111ZM632.69 568.31C631.499 567.903 630.305 567.521 629.111 567.132C626.807 568.994 624.53 570.79 622.234 572.624C623.47 572.909 624.706 573.198 625.943 573.5C628.205 571.784 630.42 570.067 632.69 568.31ZM636.295 569.609C635.143 569.199 633.991 568.758 632.809 568.355C630.547 570.092 628.32 571.805 626.077 573.531C627.291 573.83 628.508 574.156 629.725 574.459C631.918 572.843 634.091 571.249 636.295 569.609ZM639.916 570.912C638.764 570.495 637.585 570.064 636.418 569.654C634.218 571.287 632.045 572.882 629.86 574.494C631.081 574.796 632.298 575.112 633.515 575.421C635.646 573.92 637.77 572.433 639.916 570.912ZM643.545 572.218C642.393 571.791 641.206 571.374 640.039 570.953C637.9 572.472 635.781 573.958 633.653 575.47L637.317 576.401C639.39 575.001 641.46 573.621 643.564 572.218H643.545ZM647.189 573.528C646.037 573.09 644.843 572.687 643.672 572.26C641.59 573.649 639.525 575.039 637.459 576.429C638.684 576.741 639.909 577.04 641.134 577.36C643.146 576.088 645.164 574.808 647.189 573.521V573.528ZM650.764 574.896C649.612 574.459 648.46 574.004 647.308 573.573C645.288 574.854 643.275 576.128 641.268 577.394C642.47 577.714 643.675 578.054 644.877 578.374C646.836 577.223 648.798 576.068 650.764 574.91V574.896ZM654.323 576.286C653.172 575.841 652.02 575.379 650.891 574.942C648.93 576.1 646.977 577.258 645.031 578.416C646.229 578.739 647.431 579.076 648.633 579.406L654.323 576.286ZM657.895 577.676C656.748 577.213 655.596 576.763 654.439 576.328C652.547 577.37 650.656 578.404 648.767 579.43L652.38 580.424C654.22 579.527 656.055 578.607 657.895 577.69V577.676ZM661.481 579.065C660.329 578.603 659.177 578.166 658.025 577.714C656.197 578.631 654.366 579.548 652.546 580.452C653.751 580.799 654.961 581.105 656.17 581.445C657.933 580.688 659.711 579.889 661.481 579.079V579.065ZM665.033 580.507C663.896 580.044 662.758 579.581 661.619 579.118C659.853 579.91 658.087 580.705 656.332 581.487C657.522 581.825 658.714 582.173 659.907 582.529C661.612 581.88 663.32 581.202 665.033 580.532V580.507ZM668.516 581.987C667.398 581.518 666.289 581.028 665.167 580.566C663.47 581.233 661.765 581.907 660.072 582.564C661.251 582.911 662.426 583.259 663.604 583.606L668.516 581.987ZM672.018 583.471C670.9 582.995 669.783 582.515 668.662 582.046C667.034 582.585 665.402 583.13 663.781 583.662C664.961 584.004 666.139 584.352 667.314 584.704C668.877 584.325 670.443 583.908 672.018 583.495V583.471ZM675.543 584.968C674.422 584.482 673.296 584.016 672.175 583.537C670.639 583.947 669.057 584.363 667.51 584.766C668.688 585.114 669.871 585.461 671.05 585.809C672.544 585.562 674.045 585.274 675.543 584.985V584.968ZM679.087 586.483C677.966 585.989 676.837 585.524 675.716 585.041C674.237 585.319 672.747 585.607 671.273 585.882C672.448 586.229 673.627 586.577 674.802 586.924L679.087 586.483ZM682.455 588.029C681.391 587.553 680.335 587.042 679.267 586.57L675.044 587.018C676.165 587.365 677.282 587.737 678.403 588.088L682.455 588.029ZM685.811 589.571C684.766 589.092 683.718 588.605 682.673 588.129L678.722 588.189C679.824 588.536 680.922 588.883 682.021 589.231L685.811 589.571ZM689.147 591.1C688.13 590.627 687.112 590.165 686.076 589.71L682.447 589.391C683.503 589.738 684.559 590.058 685.615 590.398C686.801 590.645 687.972 590.891 689.147 591.124V591.1ZM692.35 592.573C691.424 592.135 690.495 591.722 689.566 591.294C688.545 591.086 687.516 590.867 686.494 590.662C688.445 591.315 690.411 591.934 692.35 592.597V592.573ZM694.201 593.316C695.944 594.147 697.676 595.033 699.411 595.898C698.578 595.352 697.753 594.786 696.916 594.244C696.013 593.959 695.107 593.643 694.201 593.341V593.316ZM690.027 591.392C691.133 591.899 692.239 592.389 693.337 592.91C694.4 593.257 695.456 593.632 696.52 593.997C695.51 593.348 694.485 592.74 693.448 592.104C692.331 591.892 691.179 591.649 690.027 591.416V591.392ZM686.41 589.728C687.473 590.217 688.541 590.7 689.604 591.197C690.806 591.44 692.008 591.697 693.21 591.944C692.204 591.312 691.19 590.69 690.18 590.068L686.41 589.728ZM682.915 588.126C683.987 588.609 685.054 589.109 686.125 589.599L689.984 589.946C688.975 589.325 687.965 588.685 686.951 588.07L682.915 588.126ZM679.459 586.545C680.535 587.028 681.606 587.542 682.685 588.025L686.774 587.963C685.757 587.348 684.755 586.691 683.737 586.08C682.347 586.26 680.892 586.42 679.475 586.57L679.459 586.545ZM675.884 585.006C677.013 585.493 678.146 585.962 679.275 586.462L683.595 585.993C682.524 585.357 681.445 584.763 680.373 584.141C678.891 584.45 677.386 584.749 675.9 585.031L675.884 585.006ZM672.325 583.495C673.454 583.974 674.587 584.443 675.712 584.933C677.209 584.652 678.73 584.35 680.235 584.061C679.168 583.439 678.092 582.842 677.021 582.234C675.477 582.675 673.899 583.109 672.34 583.519L672.325 583.495ZM668.796 581.998C669.92 582.461 671.044 582.938 672.167 583.429C673.73 583.016 675.32 582.578 676.894 582.161C675.831 581.553 674.771 580.941 673.703 580.344C672.087 580.914 670.443 581.483 668.811 582.022L668.796 581.998ZM665.29 580.511C666.415 580.973 667.529 581.466 668.65 581.935C670.282 581.397 671.945 580.82 673.581 580.274C672.521 579.677 671.469 579.052 670.405 578.464C668.723 579.163 666.987 579.871 665.306 580.535L665.29 580.511ZM661.734 579.058C662.876 579.522 664.017 579.985 665.156 580.448C666.849 579.781 668.585 579.059 670.29 578.395C669.207 577.801 668.12 577.217 667.037 576.634C665.29 577.46 663.501 578.298 661.75 579.079L661.734 579.058ZM658.156 577.69C659.308 578.145 660.46 578.583 661.612 579.048C663.366 578.259 665.163 577.415 666.93 576.616C665.832 576.026 664.73 575.47 663.631 574.879C661.815 575.796 659.961 576.766 658.156 577.69ZM654.573 576.3C655.72 576.747 656.872 577.198 658.029 577.651C659.845 576.741 661.704 575.768 663.532 574.844C662.441 574.268 661.348 573.697 660.252 573.132C658.359 574.146 656.439 575.258 654.569 576.272L654.573 576.3ZM651.006 574.91C652.158 575.348 653.31 575.81 654.462 576.255C656.336 575.213 658.263 574.122 660.152 573.076C659.062 572.513 657.975 571.926 656.885 571.37C654.919 572.503 652.933 573.733 651.002 574.879L651.006 574.91ZM647.431 573.521C648.583 573.955 649.735 574.41 650.887 574.848C652.807 573.701 654.811 572.468 656.758 571.301C655.66 570.745 654.565 570.175 653.463 569.63C651.459 570.887 649.409 572.242 647.427 573.5L647.431 573.521ZM643.779 572.207C644.954 572.635 646.133 573.038 647.304 573.476C649.293 572.214 651.344 570.86 653.348 569.574C652.227 569.022 651.102 568.508 649.977 567.966C647.922 569.352 645.814 570.814 643.775 572.187L643.779 572.207ZM640.147 570.901C641.299 571.322 642.485 571.738 643.656 572.166C645.699 570.776 647.807 569.31 649.865 567.913C648.747 567.374 647.628 566.84 646.509 566.312C644.401 567.799 642.232 569.397 640.143 570.88L640.147 570.901ZM636.522 569.598C637.674 570.012 638.856 570.439 640.024 570.856C642.117 569.369 644.29 567.771 646.402 566.26C645.284 565.732 644.175 565.186 643.057 564.665C640.876 566.263 638.664 567.983 636.518 569.578L636.522 569.598ZM632.908 568.299C634.06 568.702 635.235 569.143 636.399 569.553C638.549 567.955 640.78 566.235 642.95 564.613C641.832 564.095 640.726 563.54 639.609 563.029C637.39 564.738 635.116 566.572 632.905 568.278L632.908 568.299ZM629.215 567.076C630.405 567.465 631.599 567.847 632.789 568.254C634.99 566.548 637.274 564.714 639.494 562.98C638.342 562.466 637.19 561.98 636.061 561.486C633.792 563.3 631.453 565.249 629.211 567.055L629.215 567.076ZM93.3084 577.853L96.7643 576.839C94.4834 577.332 92.2179 577.825 90.0138 578.315L93.3084 577.853ZM88.3473 579.329C89.7565 578.906 91.2003 578.478 92.6441 578.051L88.7658 578.593C87.3643 578.906 85.9704 579.218 84.6034 579.531L88.3473 579.329ZM83.4092 580.816C84.9068 580.361 86.3928 579.903 87.9326 579.427L84.0082 579.639C82.5222 579.986 81.0784 580.313 79.6308 580.646L83.4092 580.816ZM78.4174 582.349C79.9533 581.873 81.543 581.39 83.1135 580.91L79.2544 580.747L74.7272 581.789C75.9406 581.994 77.1579 582.178 78.4135 582.362L78.4174 582.349ZM73.4255 583.912C74.9999 583.415 76.555 582.922 78.1754 582.418C76.9083 582.234 75.6718 582.046 74.4392 581.862C72.8764 582.23 71.3673 582.592 69.8698 582.953C71.0563 583.287 72.2274 583.596 73.437 583.943L73.4255 583.912ZM68.4336 585.503C70.0118 584.999 71.6246 584.485 73.2565 583.971C72.0393 583.648 70.8566 583.325 69.6739 583.005C68.1047 583.38 66.5598 583.753 65.0392 584.124C66.1566 584.596 67.2702 585.055 68.4298 585.517L68.4336 585.503ZM63.4111 587.125C64.9931 586.608 66.6366 586.083 68.2801 585.555C67.1281 585.09 65.9953 584.628 64.8664 584.165L60.1932 585.312C61.2531 585.93 62.3052 586.531 63.4072 587.139L63.4111 587.125ZM58.3655 588.807C59.9782 588.272 61.5794 587.737 63.2575 587.191C62.1554 586.58 61.0956 585.975 60.032 585.367L55.3396 586.549C56.3495 587.292 57.3364 588.043 58.3655 588.807ZM53.316 590.495C54.9211 589.953 56.5633 589.403 58.2426 588.845C57.202 588.088 56.2074 587.337 55.2052 586.583C53.5925 586.99 52.0258 587.393 50.4899 587.789C51.4537 588.682 52.3522 589.582 53.3275 590.488L53.316 590.495ZM48.2474 592.232C49.8447 591.684 51.5151 591.117 53.197 590.547C52.2255 589.637 51.3001 588.737 50.3631 587.834C48.7504 588.251 47.1568 588.661 45.6286 589.064C46.504 590.096 47.3565 591.149 48.2589 592.212L48.2474 592.232ZM43.171 593.99C44.7723 593.428 46.4349 592.854 48.136 592.271C47.2298 591.204 46.3812 590.151 45.5095 589.095C43.8891 589.519 42.284 589.943 40.7596 590.353C41.566 591.541 42.3493 592.75 43.1825 593.969L43.171 593.99ZM38.0909 595.755C39.6998 595.182 41.3432 594.602 43.0827 593.997C42.2456 592.774 41.4661 591.565 40.6674 590.353C39.0124 590.794 37.4419 591.221 35.9021 591.642C36.6163 593.021 37.3267 594.386 38.0909 595.755ZM32.98 597.593C34.5812 597.013 36.24 596.415 37.9718 595.793C37.2038 594.404 36.4973 593.045 35.7716 591.673C34.1051 592.128 32.5192 592.566 30.9947 592.99C31.6514 594.532 32.2926 596.061 32.98 597.603V597.593ZM27.8537 599.472C29.4383 598.884 31.1112 598.272 32.8725 597.635C32.1813 596.089 31.54 594.557 30.8872 593.025C29.2054 593.493 27.6041 593.945 26.0989 594.372C26.671 596.082 27.2393 597.774 27.8537 599.483V599.472ZM22.7083 601.397C24.2442 600.81 25.9568 600.174 27.7424 599.514C27.1318 597.801 26.5597 596.106 25.9837 594.404C24.2596 594.897 22.6737 595.359 21.1838 595.793C21.6792 597.669 22.1707 599.532 22.7083 601.408V601.397ZM17.5436 603.398C19.0796 602.804 20.7115 602.172 22.5931 601.456C22.0593 599.577 21.564 597.711 21.0571 595.846C19.2639 596.367 17.678 596.843 16.2419 597.273C16.6681 599.302 17.0867 601.338 17.5436 603.398ZM12.3598 605.441C13.7421 604.885 15.4317 604.219 17.4284 603.443C16.9753 601.387 16.5568 599.347 16.1382 597.308C14.1722 597.899 12.5748 598.389 11.3115 598.785C11.6417 600.991 11.9835 603.204 12.3598 605.434V605.441ZM501.872 662.306C500.87 663.032 499.853 663.779 498.854 664.498C500.336 663.48 501.865 662.393 503.378 661.333C502.875 661.666 502.383 661.972 501.872 662.306ZM508.93 657.178C507.121 658.502 505.332 659.794 503.535 661.1C504.986 660.148 506.496 659.106 507.97 658.123C509.606 656.973 511.211 655.865 512.851 654.708C511.533 655.552 510.232 656.368 508.934 657.178H508.93ZM516.057 652.001C514.014 653.506 512.048 654.902 510.021 656.386C511.664 655.344 513.361 654.256 515.039 653.179C516.959 651.835 518.799 650.567 520.715 649.208C519.161 650.153 517.616 651.084 516.08 652.001H516.057ZM522.8 647.023C520.822 648.496 518.868 649.934 516.906 651.386C518.61 650.372 520.361 649.302 522.109 648.235C524.028 646.846 525.948 645.56 527.868 644.157C526.176 645.13 524.488 646.085 522.804 647.023H522.8ZM529.139 642.218C527.219 643.646 525.265 645.178 523.38 646.585C525.13 645.609 526.908 644.595 528.686 643.577C530.453 642.305 532.288 640.933 534.062 639.644C532.407 640.526 530.783 641.364 529.135 642.218H529.139ZM535.713 637.233C533.686 638.768 531.635 640.339 529.627 641.85C531.309 640.971 532.991 640.092 534.696 639.182C536.616 637.792 538.601 636.33 540.548 634.909C538.92 635.708 537.334 636.455 535.717 637.233H535.713ZM542.46 632.119C540.336 633.741 538.236 635.322 536.128 636.92C537.775 636.125 539.403 635.35 541.066 634.53C543.117 633.029 545.163 631.549 547.229 630.014C545.624 630.75 544.061 631.414 542.464 632.119H542.46ZM549.333 626.908C547.129 628.603 545.006 630.173 542.806 631.844C544.422 631.129 546.016 630.455 547.648 629.708C549.79 628.134 551.871 626.647 554.029 625.049C552.455 625.695 550.915 626.279 549.337 626.911L549.333 626.908ZM556.095 621.697C553.933 623.375 551.791 625.018 549.644 626.672C551.238 626.032 552.801 625.435 554.406 624.782C556.533 623.201 558.63 621.655 560.776 620.067C559.202 620.637 557.674 621.141 556.099 621.7L556.095 621.697ZM562.727 616.485C560.619 618.132 558.442 619.89 556.349 621.512C557.931 620.95 559.474 620.435 561.064 619.862C563.119 618.323 565.253 616.666 567.319 615.103C565.78 615.558 564.271 616.002 562.731 616.475L562.727 616.485ZM569.493 611.152C567.312 612.869 565.111 614.627 562.965 616.308C564.501 615.836 566.037 615.405 567.573 614.919C569.704 613.31 571.87 611.649 574.012 610.02C572.488 610.406 570.99 610.76 569.497 611.142L569.493 611.152ZM576.366 605.726C574.124 607.501 571.912 609.235 569.685 610.986C571.221 610.6 572.688 610.246 574.204 609.857C576.393 608.196 578.57 606.549 580.774 604.861C579.304 605.156 577.848 605.431 576.366 605.726ZM583.332 600.233C581.028 602.068 578.824 603.777 576.543 605.584C578.021 605.288 579.48 605.017 580.962 604.718C583.205 603.002 585.386 601.383 587.644 599.639L583.332 600.233ZM590.27 594.675C587.997 596.509 585.751 598.291 583.493 600.094C584.937 599.893 586.365 599.705 587.809 599.5C590.036 597.784 592.236 596.106 594.483 594.362L590.27 594.675ZM597.144 589.064C594.917 590.867 592.62 592.785 590.412 594.56L594.636 594.247C596.806 592.562 599.06 590.746 601.245 589.036L597.144 589.064ZM604.109 583.373C601.832 585.232 599.532 587.129 597.27 588.96L601.364 588.932C603.583 587.195 605.841 585.399 608.076 583.637L604.109 583.373ZM611.159 577.617C608.832 579.524 606.532 581.397 604.228 583.28L608.195 583.544C610.46 581.758 612.714 579.986 614.995 578.18L611.159 577.617ZM618.282 571.798C615.913 573.757 613.621 575.595 611.271 577.526L615.111 578.089C617.415 576.258 619.665 574.518 621.988 572.663C620.759 572.388 619.526 572.096 618.29 571.808L618.282 571.798ZM625.421 565.892C623.051 567.861 620.736 569.755 618.386 571.697C619.62 571.989 620.855 572.277 622.091 572.562C624.395 570.724 626.665 568.928 629.003 567.066L625.421 565.892ZM632.513 559.902C630.209 561.841 627.805 563.901 625.513 565.808C626.699 566.201 627.89 566.597 629.08 566.982C631.326 565.176 633.688 563.223 635.934 561.386C634.802 560.927 633.661 560.427 632.521 559.93L632.513 559.902ZM625.39 565.773C627.694 563.859 630.086 561.796 632.402 559.867C447.611 479.615 232.938 530.146 109.536 573.173C228.565 539.877 433.906 502.576 625.398 565.801L625.39 565.773ZM618.252 571.679C620.605 569.73 622.925 567.858 625.298 565.864C433.058 502.409 226.833 540.287 108.065 573.691L103.726 575.223C217.46 551.217 417.18 524.473 618.259 571.693L618.252 571.679ZM611.121 577.502C613.479 575.567 615.775 573.726 618.148 571.763C416.673 524.476 216.569 551.446 102.993 575.501C101.426 576.06 99.8785 576.613 98.3425 577.169C206.815 562.48 400.626 546.478 611.129 577.516L611.121 577.502ZM604.067 583.266C606.371 581.379 608.675 579.503 611.013 577.589C400.25 546.527 206.236 562.619 97.8741 577.321C96.2575 577.905 94.6447 578.489 93.0627 579.058C196.321 573.743 384.157 568.521 604.075 583.28L604.067 583.266ZM597.102 588.97C599.367 587.136 601.671 585.236 603.952 583.373C383.846 568.612 195.891 573.858 92.7363 579.204C91.0775 579.812 89.4647 580.413 87.8481 581.014C185.888 585.034 367.745 590.589 597.102 588.97ZM590.228 594.588C592.44 592.806 594.744 590.881 596.971 589.074C367.476 590.693 185.562 585.124 87.6024 581.108C85.932 581.73 84.2386 582.355 82.6105 582.97C175.436 596.356 351.349 612.681 590.232 594.588H590.228ZM583.286 600.146C585.551 598.333 587.801 596.551 590.086 594.713C351.111 612.799 175.175 596.45 82.407 583.057C80.6982 583.703 79.0624 584.336 77.4151 584.975C165.014 607.72 334.918 634.78 583.278 600.136L583.286 600.146ZM576.312 605.639C578.616 603.826 580.82 602.113 583.124 600.272C334.707 634.898 164.799 607.8 77.2347 585.038C75.5221 585.694 73.8287 586.351 72.1699 586.997C154.551 619.119 318.449 656.9 576.316 605.629L576.312 605.639ZM569.454 611.041C571.685 609.283 573.909 607.543 576.155 605.761C318.264 656.99 154.363 619.181 72.0316 587.042C70.3037 587.716 68.5757 588.387 66.9284 589.047C144.083 630.559 302.006 679.002 569.454 611.041ZM562.688 616.374C564.858 614.679 567.07 612.9 569.255 611.198C301.837 679.1 143.93 630.615 66.8132 589.095C65.0584 589.79 63.3573 590.485 61.6908 591.145C133.627 642.048 285.606 701.14 562.669 616.385L562.688 616.374ZM556.057 621.585C558.157 619.956 560.35 618.188 562.466 616.537C285.464 701.206 133.501 642.079 61.5794 591.176C59.8259 591.871 58.1069 592.566 56.4225 593.261C123.133 653.586 269.225 723.305 556.038 621.61L556.057 621.585ZM549.291 626.797C551.461 625.129 553.615 623.482 555.819 621.783C269.106 723.36 123.045 653.613 56.3303 593.296C54.5717 594.015 52.8168 594.73 51.1465 595.425C112.615 665.158 252.783 745.449 549.272 626.821L549.291 626.797ZM542.418 632.008C544.622 630.326 546.761 628.742 548.98 627.033C252.641 745.501 112.516 665.182 51.0236 595.481C49.2342 596.224 47.5139 596.947 45.8282 597.662C102.079 676.765 236.313 767.561 542.398 632.032L542.418 632.008ZM535.663 637.146C537.791 635.537 539.887 633.939 542.053 632.303C236.152 767.617 101.964 676.81 45.6938 597.729C43.8891 598.493 42.165 599.229 40.4754 599.959C91.5344 688.428 219.879 789.695 535.663 637.146ZM529.086 642.131C531.121 640.606 533.198 639.005 535.249 637.462C219.714 789.733 91.4269 688.466 40.3909 600.004C38.567 600.786 36.8314 601.54 35.1495 602.276C80.9709 700.149 203.479 811.846 529.074 642.131H529.086ZM522.75 646.936C524.67 645.508 526.67 643.948 528.598 642.5C203.306 811.881 80.8672 700.17 35.042 602.321C33.1988 603.131 31.4517 603.902 29.7852 604.645C70.3958 711.951 187.124 834.081 522.738 646.936H522.75ZM515.999 651.915C518.061 650.393 520.093 648.92 522.17 647.374C186.929 834.081 70.2691 711.975 29.6661 604.694C27.7923 605.528 26.0259 606.323 24.3825 607.07C59.7862 723.756 170.682 856.187 515.988 651.915H515.999ZM508.876 657.094C510.981 655.555 513.031 654.093 515.154 652.529C170.452 856.114 59.671 723.749 24.2865 607.122C22.3665 608.001 20.5887 608.814 18.9836 609.554C49.1497 735.565 154.186 878.154 508.865 657.094H508.876ZM501.826 662.212C503.808 660.781 505.793 659.339 507.782 657.887C153.906 877.99 49.0192 735.53 18.8607 609.613C16.8102 610.569 15.0208 611.413 13.5386 612.122C38.5017 747.443 137.736 900.089 501.815 662.212H501.826ZM494.961 667.204C496.731 665.933 498.555 664.585 500.336 663.296C137.413 899.811 38.398 747.37 13.4388 612.177C10.075 613.786 8.27798 614.693 8.09367 614.786C27.8576 759.422 121.366 922.056 494.961 667.204ZM8.06295 457.297C7.73656 459.316 -100.606 1092.7 492.718 668.823C-77.9889 1056.72 7.67896 466.67 7.94775 464.78H8.06295C7.97463 465.437 -2.46602 537.477 8.06295 614.661C8.33558 614.526 10.1134 613.619 13.4004 612.056C13.0062 609.888 12.6222 607.727 12.2484 605.573C9.5605 606.654 8.08215 607.272 8.02455 607.31L7.97847 607.216C8.04759 607.189 9.51442 606.567 12.2407 605.479C11.8568 603.245 11.5265 601.029 11.1886 598.812C9.16883 599.441 8.07831 599.799 8.02071 599.816L7.98231 599.719C8.03991 599.702 9.13428 599.34 11.1733 598.708C10.8277 596.419 10.4782 594.133 10.171 591.864C8.81556 592.146 8.05911 592.312 8.01303 592.319L7.98999 592.219C8.03607 592.219 8.79253 592.045 10.1557 591.76C9.83698 589.394 9.55282 587.049 9.27251 584.711L8.00535 584.822V584.721L9.26483 584.607C8.973 582.175 8.71189 579.743 8.4623 577.353L8.00535 577.325V577.221L8.4431 577.245C2.47591 519.779 7.89015 472.795 7.94391 472.281H8.05911C8.00535 472.795 2.59111 519.776 8.56213 577.242L12.5902 577.471C12.2331 575.174 11.8913 572.888 11.5803 570.63C9.25715 570.116 8.03991 569.824 7.98615 569.814L8.01687 569.713C8.06679 569.713 9.26867 570.012 11.5649 570.519C11.2385 568.15 10.9275 565.791 10.6434 563.47C8.92308 562.744 8.01687 562.331 7.97463 562.31L8.02455 562.216C8.06679 562.237 8.9538 562.64 10.628 563.348C10.3285 560.892 10.0712 558.485 9.81777 556.094C8.61973 555.285 8.00151 554.83 7.96695 554.806L8.03607 554.726C8.06679 554.747 8.65813 555.181 9.80242 555.956C9.53746 553.412 9.29939 550.921 9.08052 548.458C8.3663 547.739 7.98231 547.326 7.95927 547.301L8.04375 547.232C8.06679 547.256 8.42774 547.638 9.06516 548.274C8.83476 545.65 8.62869 543.064 8.44694 540.516C8.14359 540.072 7.97463 539.822 7.95927 539.79L8.05911 539.738C8.05911 539.738 8.20886 539.968 8.4431 540.294C5.90877 505.105 7.94007 480.129 7.96311 479.768H8.07831C8.05527 480.115 6.32732 501.363 8.04375 532.248H8.07447C8.10135 532.307 8.79637 533.829 10.221 536.469C9.94961 533.921 9.70514 531.442 9.48754 529.031C8.45846 526.356 7.98615 524.862 7.95159 524.786L8.05911 524.754C8.08215 524.817 8.51989 526.196 9.43763 528.618C9.19955 525.929 8.99348 523.344 8.8194 520.863C8.23574 518.629 7.96311 517.344 7.94775 517.281L8.06295 517.261C8.06295 517.316 8.29334 518.358 8.77333 520.238C8.57365 517.358 8.38934 514.606 8.28566 512.043C8.06295 510.653 7.95543 509.829 7.94775 509.777H8.06295C8.06295 509.816 8.12439 510.253 8.23958 511.038C7.56376 496.485 7.94007 487.494 7.94775 487.289H8.06295C8.06295 487.4 7.95159 490.089 7.95159 494.79H8.06295C8.06295 494.953 8.09751 501.082 8.94996 511.257C9.42227 515.079 10.1288 520.026 11.1579 525.814C11.9796 529.33 12.9934 533.315 14.2298 537.723C15.3472 540.801 16.6221 544.13 18.1042 547.715C19.4789 550.345 20.9957 553.138 22.7121 556.081C24.3249 558.301 26.0682 560.621 27.9804 563.029C29.8159 564.854 31.7896 566.746 33.9015 568.706C35.9098 570.127 38.0717 571.603 40.3295 573.111C42.5106 574.174 44.8183 575.268 47.2413 576.383C49.6144 577.123 52.0642 577.874 54.6523 578.642C57.1943 579.063 59.84 579.492 62.5893 579.927L70.9142 580.295C73.7301 580.129 76.6369 579.963 79.6346 579.798C82.5951 579.364 85.6479 578.926 88.7697 578.485C91.8646 577.79 95.0338 577.096 98.2772 576.401C101.464 575.474 104.722 574.548 108.05 573.621C231.233 530.476 446.931 479.195 632.509 559.819C666.135 531.678 701.397 500.964 738.64 467.146C1273.51 -18.5374 1597.62 88.9106 1767.69 242.346C1864.13 329.341 1911.05 431.126 1918.81 447.955C1919.53 449.519 1919.85 450.366 1919.88 450.349L1919.95 450.425C1919.86 450.502 1919.47 449.647 1918.7 447.993C1910.95 431.168 1864.03 329.397 1767.61 242.415C1597.55 89.0044 1273.51 -18.4088 738.709 467.212C701.462 501.016 666.227 531.706 632.613 559.857L636.034 561.347C668.577 535.003 702.675 506.272 738.628 474.637C1286.86 -7.78151 1622.44 133.115 1789.57 288.701C1869.85 363.43 1911.26 441.545 1918.73 455.616C1919.49 457.064 1919.85 457.849 1919.88 457.832L1919.95 457.912C1919.87 457.982 1919.44 457.189 1918.63 455.661C1911.18 441.594 1869.76 363.489 1789.5 288.77C1622.39 133.216 1286.87 -7.64606 738.709 474.706C702.768 506.321 668.688 535.045 636.149 561.393C637.301 561.886 638.453 562.369 639.605 562.886C671.092 538.335 703.989 511.587 738.647 482.13C1306.21 -0.270477 1657.15 184.05 1817.23 338.353C1878.54 397.445 1911.87 452.131 1918.67 463.28C1919.49 464.621 1919.87 465.364 1919.88 465.333L1919.96 465.409C1919.88 465.479 1919.43 464.746 1918.57 463.325C1911.77 452.176 1878.45 397.497 1817.15 338.419C1657.06 184.154 1306.2 -0.131432 738.705 482.207C704.062 511.653 671.158 538.394 639.697 562.935C640.819 563.442 641.924 564.002 643.038 564.519C673.465 541.746 705.244 516.941 738.628 489.627C1334.29 2.4846 1706.14 246.195 1850.88 391.167C1890.39 430.744 1912.98 462.96 1918.58 470.94C1919.44 472.177 1919.85 472.847 1919.87 472.83L1919.94 472.91C1919.86 472.972 1919.39 472.298 1918.48 470.996C1912.88 463.005 1890.3 430.803 1850.79 391.237C1706.06 246.289 1334.29 2.62006 738.705 489.704C705.321 517.01 673.561 541.816 643.149 564.571C644.267 565.092 645.38 565.638 646.494 566.169C675.865 545.172 706.488 522.305 738.628 497.128C1376.33 -2.42441 1777.76 328.834 1888.61 444.745C1904.92 461.807 1914.95 474.206 1918.49 478.597C1919.41 479.73 1919.85 480.334 1919.87 480.334L1919.94 480.41C1919.87 480.47 1919.37 479.855 1918.41 478.673C1914.86 474.286 1904.84 461.89 1888.52 444.828C1777.69 328.921 1376.32 -2.28194 738.705 497.204C706.577 522.371 675.965 545.234 646.605 566.222C647.727 566.75 648.845 567.284 649.961 567.823C678.277 548.601 707.752 527.669 738.632 504.625C1443.49 -21.3966 1889.16 454.973 1918.41 486.244C1919.38 487.286 1919.84 487.842 1919.86 487.828L1919.93 487.908C1919.87 487.963 1919.34 487.4 1918.32 486.313C1889.07 455.046 1443.46 -21.2576 738.705 504.705C707.84 527.739 678.377 548.663 650.077 567.875C651.198 568.417 652.327 568.918 653.448 569.487C680.711 552.037 709.023 533.037 738.632 512.122C1416.72 33.2029 1887.43 465.51 1918.33 493.887C1919.35 494.828 1919.87 495.339 1919.87 495.328L1919.94 495.405C1919.88 495.457 1919.32 494.946 1918.25 493.96C1887.35 465.586 1416.71 33.3418 738.701 512.206C709.107 533.106 680.799 552.099 653.559 569.529C654.665 570.078 655.76 570.651 656.858 571.207C683.069 555.511 710.263 538.418 738.647 519.609C1389.92 87.8231 1885.62 475.981 1918.26 501.516C1919.35 502.367 1919.88 502.829 1919.89 502.815L1919.97 502.895C1919.91 502.944 1919.32 502.485 1918.19 501.596C1885.58 476.064 1389.93 87.9552 738.728 519.696C710.374 538.495 683.196 555.577 656.996 571.263C658.09 571.818 659.173 572.409 660.264 572.972C685.446 559.02 711.522 543.827 738.663 527.113C1363.06 142.489 1883.72 486.414 1918.16 509.152C1919.31 509.916 1919.88 510.33 1919.89 510.319L1919.97 510.396C1919.92 510.441 1919.29 510.048 1918.09 509.235C1883.67 486.497 1363.06 142.617 738.728 527.197C711.603 543.904 685.546 559.089 660.394 573.034C661.487 573.602 662.582 574.174 663.677 574.751C687.827 562.539 712.774 549.24 738.682 534.61C1336.08 197.189 1881.6 496.795 1918.02 516.785C1919.26 517.479 1919.88 517.827 1919.88 517.827L1919.96 517.907C1919.91 517.949 1919.25 517.584 1917.96 516.865C1881.56 496.871 1336.1 197.303 738.736 534.694C712.851 549.313 687.919 562.602 663.789 574.806C664.891 575.383 665.997 575.942 667.095 576.543C690.196 566.069 714.015 554.656 738.678 542.115C1309.07 251.913 1879.26 507.12 1917.91 524.397C1919.24 524.994 1919.92 525.317 1919.92 525.31L1920 525.387C1919.95 525.425 1919.23 525.105 1917.86 524.487C1879.23 507.2 1309.09 252.018 738.755 542.205C714.111 554.743 690.315 566.138 667.233 576.599C668.319 577.187 669.404 577.777 670.489 578.367C692.561 569.619 715.262 560.093 738.701 549.608C1281.89 306.659 1876.46 517.403 1917.71 532.022C1919.18 532.543 1919.92 532.825 1919.92 532.818L1920 532.898C1919.96 532.932 1919.18 532.655 1917.67 532.12C1876.42 517.5 1281.89 306.773 738.751 549.702C715.328 560.173 692.672 569.692 670.609 578.437C671.672 579.024 672.724 579.653 673.792 580.247C694.857 573.212 716.464 565.544 738.686 557.105C1254.44 361.432 1872.85 527.662 1917.4 539.638C1919.06 540.082 1919.9 540.332 1919.9 540.332L1919.98 540.409C1919.1 540.234 1918.23 540.015 1917.37 539.752C1872.83 527.777 1254.44 361.557 738.728 557.217C716.514 565.645 694.953 573.302 673.892 580.333C674.963 580.931 676.027 581.546 677.094 582.154C697.146 576.827 717.678 570.981 738.69 564.617C1226.59 416.233 1867.84 537.942 1916.95 547.263C1918.91 547.635 1919.9 547.836 1919.9 547.83L1919.98 547.909C1919.94 547.937 1918.92 547.743 1916.93 547.367C1867.82 538.043 1226.59 416.341 738.724 564.717C717.733 571.103 697.232 576.939 677.221 582.227C678.296 582.842 679.375 583.439 680.446 584.065C699.477 580.438 718.893 576.455 738.693 572.117C1197.86 471.02 1859.65 548.292 1916.08 554.879C1918.61 555.174 1919.9 555.334 1919.9 555.33L1919.98 555.407C1919.95 555.434 1918.63 555.282 1916.07 554.983C1859.62 548.382 1197.86 471.121 738.72 572.214C718.937 576.571 699.56 580.548 680.588 584.145C681.664 584.77 682.746 585.371 683.818 586.007C701.814 584.075 720.107 581.944 738.697 579.614C1166.36 525.744 1841.51 558.971 1913.65 562.518L1919.9 562.827L1919.98 562.907C1919.95 562.932 1917.79 562.827 1913.65 562.622C1841.52 559.075 1166.37 525.849 738.713 579.715C720.158 582.054 701.909 584.182 683.964 586.097C684.989 586.712 686.003 587.376 687.036 587.994C704.059 587.744 721.286 587.45 738.716 587.112C1077.58 580.511 1628.03 573.875 1836.44 571.363C1889.07 570.728 1919.88 570.356 1919.92 570.321L1919.99 570.397C1919.92 570.453 1889.1 570.825 1836.44 571.461C1628.05 573.972 1077.59 580.611 738.716 587.209C721.335 587.545 704.163 587.839 687.201 588.091C688.226 588.717 689.247 589.359 690.273 589.995C706.305 591.415 722.456 592.952 738.724 594.605C871.223 608.102 1046.92 610.732 1222.2 608.241C1571.83 603.266 1919.78 577.926 1919.9 577.818L1919.98 577.898C1919.85 578.006 1571.84 603.37 1222.19 608.342C1046.91 610.836 871.219 608.206 738.697 594.706C722.501 593.057 706.421 591.527 690.457 590.117C691.49 590.752 692.523 591.385 693.552 592.034C708.579 595.126 723.635 598.485 738.72 602.109C861.846 631.831 1034.23 639.87 1209.32 637.382C1559.17 632.407 1919.8 585.402 1919.9 585.322L1919.98 585.399C1919.88 585.482 1559.19 632.511 1209.33 637.483C1034.23 639.974 861.816 631.924 738.693 602.207C723.705 598.591 708.744 595.255 693.809 592.198C694.877 592.865 695.952 593.5 697.012 594.181C710.973 598.913 724.879 604.056 738.728 609.61C852.585 655.555 1021.82 669.018 1196.85 666.513C1546.77 661.538 1919.84 592.861 1919.9 592.82L1919.98 592.899C1919.91 592.952 1546.8 661.642 1196.86 666.617C1021.81 669.108 852.554 655.656 738.682 609.704C724.989 604.18 711.219 599.118 697.407 594.418C698.332 595.026 699.25 595.672 700.179 596.28C713.17 602.665 726.045 609.558 738.74 617.104C843.35 679.266 1009.47 698.124 1184.48 695.619C1534.42 690.661 1919.83 600.341 1919.87 600.313L1919.94 600.39C1919.91 600.417 1534.42 690.766 1184.44 695.741C1009.42 698.232 843.269 679.371 738.632 617.194C726.175 609.791 713.546 603.016 700.798 596.728C713.984 605.391 726.637 614.7 738.701 624.611C1024.85 859.775 1917.31 608.516 1919.88 607.8L1919.92 607.901C1917.34 608.616 1024.84 859.893 738.624 624.684C726.361 614.609 713.49 605.155 700.072 596.367C697.81 595.248 695.56 594.105 693.291 593.028C690.731 592.173 688.171 591.335 685.611 590.513C683.054 590.002 680.5 589.512 677.931 589.019L669.81 588.324L661.228 588.46C658.309 588.751 655.395 589.041 652.484 589.328C649.374 589.873 646.298 590.395 643.219 590.919C639.912 591.725 636.633 592.503 633.362 593.278C629.906 594.32 626.484 595.363 623.071 596.405C619.638 597.635 616.182 598.899 612.776 600.098C609.635 601.376 606.512 602.634 603.407 603.871C599.655 605.573 595.988 607.168 592.302 608.78C588.347 610.732 584.441 612.601 580.54 614.491C576.47 616.649 572.403 618.803 568.368 620.915C564.589 623.045 560.784 625.212 557.048 627.283C553.72 629.27 550.417 631.215 547.141 633.116C543.09 635.652 539.154 638.025 535.206 640.412C530.683 643.361 526.259 646.165 521.824 648.982C517.216 652.109 512.609 655.18 508.051 658.22C503.662 661.312 499.261 664.411 494.995 667.329C-100.99 1094.47 7.62136 459.305 7.94775 457.283L8.06295 457.297Z" fill="white"/>
</svg>
