<svg width="24" height="24" viewBox="0 0 24 24" fill="none" xmlns="http://www.w3.org/2000/svg">
<path d="M0.865234 12C0.865234 5.84313 5.84313 0.865234 12 0.865234C18.1569 0.865234 23.1348 5.84313 23.1348 12C23.1348 18.1569 18.1569 23.1348 12 23.1348C5.84313 23.1348 0.865234 18.1569 0.865234 12ZM21.8248 12C21.8248 6.56361 17.4364 2.17521 12 2.17521C6.56361 2.17521 2.17521 6.56361 2.17521 12C2.17521 17.4364 6.56361 21.8248 12 21.8248C17.4364 21.8248 21.8248 17.4364 21.8248 12Z" fill="white"/>
<path d="M12.5531 17.4362L17.2511 11.9999L12.5531 6.56347L13.3456 5.64648L18.8359 11.9999L13.3456 18.3532L12.5531 17.4362Z" fill="white"/>
<path d="M18.1406 11.1228V12.8772H5.85963V11.1228H18.1406Z" fill="white"/>
</svg>
